STARTFONT 2.1
COMMENT
COMMENT Converted from OpenType font "Comfortaa-Regular.otf" by "otf2bdf 3.0".
COMMENT
FONT -FreeType-Comfortaa-Medium-R-Normal--42-300-100-100-P-227-ISO10646-1
SIZE 30 100 100
FONTBOUNDINGBOX 62 65 -9 -12
STARTPROPERTIES 19
FOUNDRY "FreeType"
FAMILY_NAME "Comfortaa"
WEIGHT_NAME "Medium"
SLANT "R"
SETWIDTH_NAME "Normal"
ADD_STYLE_NAME ""
PIXEL_SIZE 42
POINT_SIZE 300
RESOLUTION_X 100
RESOLUTION_Y 100
SPACING "P"
AVERAGE_WIDTH 227
CHARSET_REGISTRY "ISO10646"
CHARSET_ENCODING "1"
FONT_ASCENT 37
FONT_DESCENT 9
COPYRIGHT "Copyright 2011 The Comfortaa Project Authors (https://github.com/alexeiva/comfortaa), with Reserved Font Name "Comfortaa"."
_OTF_FONTFILE "Comfortaa-Regular.otf"
_OTF_PSNAME "Comfortaa-Regular"
ENDPROPERTIES
CHARS 850
STARTCHAR 0000
ENCODING 0
SWIDTH 0 0
DWIDTH 0 0
BBX 0 0 0 0
BITMAP
ENDCHAR
STARTCHAR 000D
ENCODING 13
SWIDTH 288 0
DWIDTH 12 0
BBX 0 0 0 0
BITMAP
ENDCHAR
STARTCHAR 0020
ENCODING 32
SWIDTH 288 0
DWIDTH 12 0
BBX 0 0 0 0
BITMAP
ENDCHAR
STARTCHAR 0021
ENCODING 33
SWIDTH 264 0
DWIDTH 11 0
BBX 5 33 2 0
BITMAP
20
70
70
70
70
70
70
70
70
70
70
70
70
70
70
70
70
70
70
70
70
70
70
70
70
20
00
00
70
F8
F8
F8
70
ENDCHAR
STARTCHAR 0022
ENCODING 34
SWIDTH 264 0
DWIDTH 11 0
BBX 8 9 2 24
BITMAP
42
E7
E7
E7
E7
E7
E7
E7
C6
ENDCHAR
STARTCHAR 0023
ENCODING 35
SWIDTH 720 0
DWIDTH 30 0
BBX 26 33 2 0
BITMAP
00200400
00700E00
00700E00
00700E00
00E00E00
00E01C00
00E01C00
00E01C00
00E01C00
01E01C00
1FFFFFC0
3FFFFFC0
3FFFFFC0
01C03800
03C03800
03803800
03807000
03807000
03807000
03807000
7FFFFF00
FFFFFF80
7FFFFE00
0700E000
0700E000
0F00E000
0E01E000
0E01C000
0E01C000
0E01C000
0E01C000
1C01C000
0C018000
ENDCHAR
STARTCHAR 0024
ENCODING 36
SWIDTH 600 0
DWIDTH 25 0
BBX 21 39 2 -4
BITMAP
003000
003000
003000
03FE00
0FFF80
1FFFC0
3E31E0
3830F0
783070
703030
703000
703000
703000
783000
383000
3E3000
1FB000
07F800
03FF00
007FC0
0033E0
0031F0
003070
003078
003038
003038
003038
403038
E03038
E03078
7030F0
7C31F0
3FFFE0
1FFF80
03FF00
003000
003000
003000
003000
ENDCHAR
STARTCHAR 0025
ENCODING 37
SWIDTH 864 0
DWIDTH 36 0
BBX 34 33 1 0
BITMAP
0080000800
07F8001C00
1FFC003C00
3FFE007C00
3C1F007800
780F00F000
700701E000
700783C000
F00387C000
7003878000
70078F0000
78071E0000
7C0F3E0000
3F7E3C0000
1FFC780000
0FF8F00000
01C1E00000
0003E3F800
0003CFFE00
00079FFF00
000F1E0F00
001E3C0780
001E380380
003C3803C0
00787803C0
00F07803C0
01F03803C0
01E0380380
03C03C0780
07801F1F00
0F000FFE00
0F0007FC00
0E0001F000
ENDCHAR
STARTCHAR 0026
ENCODING 38
SWIDTH 720 0
DWIDTH 30 0
BBX 26 33 2 0
BITMAP
01F00000
07FC0000
0FFE0000
1E0F0000
3C070000
38070000
38038000
38038000
38070000
3C070000
1C0F0000
1E0E0000
0F1C0000
07F80000
03F00000
01E00000
03F00000
0F780000
1E3C0000
3C1E0180
380F0380
70078780
F003CF00
E001FE00
E000FC00
E0007800
E000FC00
E001FE00
F003CF00
780F8780
3FFF03C0
1FFE01C0
0FF80000
ENDCHAR
STARTCHAR 0027
ENCODING 39
SWIDTH 168 0
DWIDTH 7 0
BBX 3 9 2 24
BITMAP
40
E0
E0
E0
E0
E0
E0
E0
C0
ENDCHAR
STARTCHAR 0028
ENCODING 40
SWIDTH 264 0
DWIDTH 11 0
BBX 8 43 2 -10
BITMAP
02
07
07
0F
0E
1E
1C
1C
3C
38
38
78
70
70
70
70
F0
F0
E0
E0
E0
E0
E0
E0
E0
F0
F0
70
70
70
70
78
38
38
3C
3C
1C
1E
0E
0F
0F
07
02
ENDCHAR
STARTCHAR 0029
ENCODING 41
SWIDTH 264 0
DWIDTH 11 0
BBX 9 43 0 -10
BITMAP
2000
7000
7000
7800
7800
3800
3C00
1C00
1C00
1E00
0E00
0E00
0F00
0F00
0700
0700
0700
0700
0700
0700
0700
0780
0700
0700
0700
0700
0700
0700
0700
0F00
0F00
0E00
0E00
1E00
1C00
1C00
3C00
3800
7800
7800
7000
F000
6000
ENDCHAR
STARTCHAR 002A
ENCODING 42
SWIDTH 384 0
DWIDTH 16 0
BBX 12 12 2 21
BITMAP
0200
0700
0700
0600
E670
FFF0
FFF0
0700
1F80
39C0
79E0
38E0
ENDCHAR
STARTCHAR 002B
ENCODING 43
SWIDTH 552 0
DWIDTH 23 0
BBX 19 19 2 5
BITMAP
00E000
00E000
00E000
00E000
00E000
00E000
00E000
00E000
FFFFE0
FFFFE0
FFFFE0
00E000
00E000
00E000
00E000
00E000
00E000
00E000
00E000
ENDCHAR
STARTCHAR 002C
ENCODING 44
SWIDTH 216 0
DWIDTH 9 0
BBX 5 11 2 -7
BITMAP
70
F8
F8
78
78
38
38
30
70
60
40
ENDCHAR
STARTCHAR 002D
ENCODING 45
SWIDTH 384 0
DWIDTH 16 0
BBX 13 3 2 10
BITMAP
FFF0
FFF8
FFF0
ENDCHAR
STARTCHAR 002E
ENCODING 46
SWIDTH 216 0
DWIDTH 9 0
BBX 5 5 2 -1
BITMAP
70
F8
F8
F8
20
ENDCHAR
STARTCHAR 002F
ENCODING 47
SWIDTH 480 0
DWIDTH 20 0
BBX 16 36 2 -3
BITMAP
0002
0007
000F
000E
000E
001E
001C
003C
0038
0038
0078
0070
00F0
00E0
00E0
01E0
01C0
03C0
0380
0380
0780
0700
0F00
0E00
0E00
1E00
1C00
3C00
3800
3800
7800
7000
F000
E000
E000
E000
ENDCHAR
STARTCHAR 0030
ENCODING 48
SWIDTH 576 0
DWIDTH 24 0
BBX 20 33 2 0
BITMAP
006000
03FC00
0FFE00
1FFF00
1E0780
3C03C0
3803C0
7801C0
7001E0
7000E0
7000E0
F000E0
F000E0
E000F0
E000F0
E000F0
E000F0
E000F0
E000F0
E000F0
F000F0
F000E0
7000E0
7000E0
7001E0
7801E0
3801C0
3C03C0
1E0780
1F1F80
0FFF00
07FE00
01F800
ENDCHAR
STARTCHAR 0031
ENCODING 49
SWIDTH 384 0
DWIDTH 16 0
BBX 10 32 2 1
BITMAP
0780
3FC0
FFC0
FFC0
E3C0
03C0
03C0
03C0
03C0
03C0
03C0
03C0
03C0
03C0
03C0
03C0
03C0
03C0
03C0
03C0
03C0
03C0
03C0
03C0
03C0
03C0
03C0
03C0
03C0
03C0
03C0
0180
ENDCHAR
STARTCHAR 0032
ENCODING 50
SWIDTH 576 0
DWIDTH 24 0
BBX 19 33 3 0
BITMAP
00C000
07FC00
1FFE00
3FFF00
7C0F80
7803C0
F003C0
E001C0
E001C0
E001C0
E001C0
4001C0
0001C0
0003C0
000380
000780
000F00
001E00
003C00
007800
007800
00F000
01E000
03C000
078000
0F0000
0E0000
1E0000
3C0000
780000
FFFFE0
FFFFE0
FFFFE0
ENDCHAR
STARTCHAR 0033
ENCODING 51
SWIDTH 576 0
DWIDTH 24 0
BBX 21 33 2 0
BITMAP
00F800
03FE00
0FFF80
1F8FC0
3C03C0
3801E0
3800E0
7800E0
7800E0
3000E0
0000E0
0001C0
0003C0
000F80
007E00
007E00
003F80
0007C0
0001E0
0000F0
000070
000070
600070
E00078
E00070
F00070
700070
7800F0
3C01E0
3E03E0
1FFFC0
0FFF00
01FE00
ENDCHAR
STARTCHAR 0034
ENCODING 52
SWIDTH 648 0
DWIDTH 27 0
BBX 24 33 1 0
BITMAP
000040
0000E0
0001E0
0001E0
0003E0
0007E0
000FE0
001EE0
001EE0
003CE0
0078E0
00F0E0
00E0E0
01E0E0
03C0E0
0780E0
0700E0
0F00E0
1E00E0
3C00E0
3800E0
7000E0
FFFFFF
FFFFFF
FFFFFF
0000E0
0000E0
0000E0
0000E0
0000E0
0000E0
0000E0
000060
ENDCHAR
STARTCHAR 0035
ENCODING 53
SWIDTH 624 0
DWIDTH 26 0
BBX 21 33 3 0
BITMAP
3FFFC0
7FFFE0
7FFFE0
7FFFC0
780000
780000
780000
780000
780000
780000
780000
780000
7FFC00
7FFF00
3FFF80
0007C0
0001E0
0000F0
0000F0
000070
000078
E00078
E00038
E00078
E00078
F00070
F000F0
7800F0
7C03E0
3F0FC0
1FFF80
07FF00
01FC00
ENDCHAR
STARTCHAR 0036
ENCODING 54
SWIDTH 576 0
DWIDTH 24 0
BBX 19 32 3 1
BITMAP
001C00
003C00
003C00
007800
007800
00F000
01E000
01E000
03C000
038000
078000
0F0000
0F4000
1FFC00
1FFF00
3F1F80
7C07C0
7803C0
F001E0
E000E0
E000E0
E000E0
E000E0
E000E0
E000E0
F001E0
7001C0
7803C0
3E0F80
1FFF00
0FFE00
03F800
ENDCHAR
STARTCHAR 0037
ENCODING 55
SWIDTH 576 0
DWIDTH 24 0
BBX 20 33 2 0
BITMAP
7FFFE0
FFFFF0
FFFFF0
7FFFF0
0000E0
0001E0
0001C0
0003C0
000380
000780
000700
000F00
000E00
001E00
001C00
003C00
003C00
007800
007800
007000
00F000
00E000
01E000
01C000
03C000
038000
078000
070000
0F0000
0E0000
1E0000
1E0000
0C0000
ENDCHAR
STARTCHAR 0038
ENCODING 56
SWIDTH 600 0
DWIDTH 25 0
BBX 19 33 3 0
BITMAP
00E000
07FC00
0FFE00
1FBF00
3C0780
380380
780380
700380
700380
780380
380380
380780
3C0F00
1FFE00
0FFC00
1FFE00
3FFF00
7C0780
7803C0
F001C0
E001E0
E000E0
E000E0
E000E0
E000E0
E001E0
F001E0
F003C0
7803C0
3C0F80
1FFF00
0FFE00
03F800
ENDCHAR
STARTCHAR 0039
ENCODING 57
SWIDTH 576 0
DWIDTH 24 0
BBX 19 33 2 0
BITMAP
004000
07FC00
1FFF00
3FBF80
3C07C0
7801C0
7001E0
E000E0
E000E0
E000E0
E000E0
E000E0
E000E0
F000E0
7001C0
7803C0
3E0F80
1FFF80
0FFF00
03FF00
001E00
001C00
003C00
007800
007800
00F000
01E000
01E000
03C000
038000
078000
070000
070000
ENDCHAR
STARTCHAR 003A
ENCODING 58
SWIDTH 192 0
DWIDTH 8 0
BBX 5 24 1 -1
BITMAP
20
78
F8
F8
78
00
00
00
00
00
00
00
00
00
00
00
00
00
00
78
78
F8
78
30
ENDCHAR
STARTCHAR 003B
ENCODING 59
SWIDTH 192 0
DWIDTH 8 0
BBX 6 30 1 -7
BITMAP
20
78
F8
F8
78
00
00
00
00
00
00
00
00
00
00
00
00
00
00
38
7C
7C
3C
3C
1C
1C
18
38
30
20
ENDCHAR
STARTCHAR 003C
ENCODING 60
SWIDTH 552 0
DWIDTH 23 0
BBX 19 23 2 3
BITMAP
0000E0
0003E0
0007E0
001F80
007F00
00FC00
03F000
0FE000
1F8000
7E0000
FC0000
F80000
FC0000
3F0000
1FC000
07E000
01F800
00FE00
003F00
000FC0
0007E0
0001E0
000040
ENDCHAR
STARTCHAR 003D
ENCODING 61
SWIDTH 504 0
DWIDTH 21 0
BBX 17 13 2 8
BITMAP
FFFF80
FFFF80
FFFF80
000000
000000
000000
000000
000000
000000
000000
FFFF80
FFFF80
FFFF80
ENDCHAR
STARTCHAR 003E
ENCODING 62
SWIDTH 552 0
DWIDTH 23 0
BBX 19 23 2 3
BITMAP
E00000
F00000
FC0000
7F0000
1F8000
07E000
03F800
00FC00
003F00
000FC0
0007E0
0003E0
000FE0
001F80
007E00
01FC00
03F000
0FC000
3F8000
7E0000
F80000
F00000
C00000
ENDCHAR
STARTCHAR 003F
ENCODING 63
SWIDTH 552 0
DWIDTH 23 0
BBX 19 33 2 0
BITMAP
07F800
0FFE00
3FFF80
7C0780
7803C0
F001C0
E001E0
E000E0
E000E0
E000E0
E000E0
0001E0
0001C0
0003C0
000780
000F80
001F00
003E00
003800
007000
00F000
00E000
00E000
00E000
00E000
004000
000000
000000
00E000
01F000
01F000
01F000
00E000
ENDCHAR
STARTCHAR 0040
ENCODING 64
SWIDTH 1104 0
DWIDTH 46 0
BBX 42 43 2 -10
BITMAP
00000C000000
0003FFF00000
001FFFFC0000
007FFFFF0000
00FE003FC000
01F80007E000
03E00001F000
07800000F800
0F0000007C00
1E0000003E00
3C003F001E00
3C01FFC00F00
7803FFF00F00
780FFFF80780
700F807C0780
F01E003E0380
F03C001E0380
E03C000F03C0
E038000F03C0
E038000701C0
E078000701C0
E078000701C0
E078000701C0
E038000701C0
E038000F03C0
E03C000F03C0
F03C001F0380
F01E001F0380
701F007F0780
780FE1F70700
7807FFE78F00
3C01FFC7FE00
3C007F03FE00
1E000003F800
0F000000E000
0F8000000000
07C000000000
03F000000000
01FE001E0000
007FFFFE0000
001FFFFC0000
0007FFF00000
00003F000000
ENDCHAR
STARTCHAR 0041
ENCODING 65
SWIDTH 696 0
DWIDTH 29 0
BBX 28 32 1 1
BITMAP
000E0000
000F0000
001F0000
001F8000
001F8000
003B8000
003BC000
0079C000
0071E000
00F0E000
00E0E000
00E07000
01E07000
01C07800
03C03800
03803C00
07801C00
07001C00
07001E00
0F000E00
0E000F00
1FFFFF00
1FFFFF80
1FFFFF80
3C000380
380003C0
780001C0
700001E0
F00000E0
E00000E0
E00000F0
E0000060
ENDCHAR
STARTCHAR 0042
ENCODING 66
SWIDTH 696 0
DWIDTH 29 0
BBX 23 33 4 0
BITMAP
7FF800
FFFF00
FFFFC0
FFFFE0
E001F0
E00070
E00078
E00038
E00038
E00078
E00078
E00070
E000F0
E001E0
FFFFC0
FFFF80
FFFFE0
E001F0
E00078
E0003C
E0001C
E0001C
E0001E
E0001E
E0001E
E0001C
E0001C
E0003C
E00078
E001F8
FFFFF0
FFFFC0
7FFF00
ENDCHAR
STARTCHAR 0043
ENCODING 67
SWIDTH 768 0
DWIDTH 32 0
BBX 26 33 3 0
BITMAP
000FF000
007FFE00
01FFFF00
03F81FC0
07C003C0
0F8001C0
1E000000
3C000000
38000000
78000000
70000000
F0000000
E0000000
E0000000
E0000000
E0000000
E0000000
E0000000
E0000000
E0000000
E0000000
F0000000
70000000
78000000
78000000
3C000000
1E000000
1F0000C0
0F8003C0
07E00FC0
01FFFF80
00FFFF00
003FFC00
ENDCHAR
STARTCHAR 0044
ENCODING 68
SWIDTH 768 0
DWIDTH 32 0
BBX 26 33 4 0
BITMAP
7FC00000
FFFE0000
FFFFC000
E01FE000
E001F000
E0007800
E0003C00
E0001E00
E0000F00
E0000F00
E0000700
E0000780
E0000380
E0000380
E0000380
E0000380
E00003C0
E00003C0
E0000380
E0000380
E0000380
E0000380
E0000780
E0000700
E0000F00
E0001E00
E0003E00
E0007C00
E000F800
E007F000
FFFFC000
FFFF8000
7FFC0000
ENDCHAR
STARTCHAR 0045
ENCODING 69
SWIDTH 696 0
DWIDTH 29 0
BBX 23 33 4 0
BITMAP
7FFFFC
FFFFFE
FFFFFE
FFFFFC
E00000
E00000
E00000
E00000
E00000
E00000
E00000
E00000
E00000
E00000
E00000
FFFFC0
FFFFC0
FFFFC0
E00000
E00000
E00000
E00000
E00000
E00000
E00000
E00000
E00000
E00000
E00000
E00000
FFFFFE
FFFFFE
7FFFFE
ENDCHAR
STARTCHAR 0046
ENCODING 70
SWIDTH 624 0
DWIDTH 26 0
BBX 22 33 2 0
BITMAP
7FFFF8
FFFFFC
FFFFFC
FFFFF8
E00000
E00000
E00000
E00000
E00000
E00000
E00000
E00000
E00000
E00000
E00000
FFFF80
FFFF80
FFFF80
E00000
E00000
E00000
E00000
E00000
E00000
E00000
E00000
E00000
E00000
E00000
E00000
E00000
E00000
C00000
ENDCHAR
STARTCHAR 0047
ENCODING 71
SWIDTH 768 0
DWIDTH 32 0
BBX 26 33 3 0
BITMAP
000FF000
007FFE00
01FFFF00
03F81FC0
07C003C0
0F8001C0
1E000000
3C000000
38000000
78000000
70000000
F0000000
E0000000
E0000000
E0000000
E0000000
E0000000
E001FFC0
E001FFC0
E000FFC0
E00001C0
F00001C0
700001C0
780001C0
780001C0
3C0001C0
1E0001C0
1F0001C0
0F8003C0
07E00FC0
01FFFF80
00FFFF00
003FFC00
ENDCHAR
STARTCHAR 0048
ENCODING 72
SWIDTH 840 0
DWIDTH 35 0
BBX 27 33 4 0
BITMAP
40000040
E00000E0
E00000E0
E00000E0
E00000E0
E00000E0
E00000E0
E00000E0
E00000E0
E00000E0
E00000E0
E00000E0
E00000E0
E00000E0
E00000E0
FFFFFFE0
FFFFFFE0
FFFFFFE0
E00000E0
E00000E0
E00000E0
E00000E0
E00000E0
E00000E0
E00000E0
E00000E0
E00000E0
E00000E0
E00000E0
E00000E0
E00000E0
E00000E0
600000E0
ENDCHAR
STARTCHAR 0049
ENCODING 73
SWIDTH 288 0
DWIDTH 12 0
BBX 3 33 4 0
BITMAP
40
E0
E0
E0
E0
E0
E0
E0
E0
E0
E0
E0
E0
E0
E0
E0
E0
E0
E0
E0
E0
E0
E0
E0
E0
E0
E0
E0
E0
E0
E0
E0
60
ENDCHAR
STARTCHAR 004A
ENCODING 74
SWIDTH 624 0
DWIDTH 26 0
BBX 19 33 2 0
BITMAP
000040
0000E0
0000E0
0000E0
0000E0
0000E0
0000E0
0000E0
0000E0
0000E0
0000E0
0000E0
0000E0
0000E0
0000E0
0000E0
0000E0
0000E0
0000E0
0000E0
0000E0
0000E0
E000E0
E000E0
E000E0
E000E0
F000E0
7001E0
7803C0
3C07C0
1FFF80
0FFF00
07FC00
ENDCHAR
STARTCHAR 004B
ENCODING 75
SWIDTH 648 0
DWIDTH 27 0
BBX 21 33 4 0
BITMAP
400000
E00038
E00078
E000F8
E001F0
E003E0
E007C0
E00F80
E01F00
E03E00
E07C00
E0F800
E1F000
E3E000
E7C000
EFC000
FFE000
FEF000
FCF000
F87800
F03C00
E03C00
E01E00
E00F00
E00780
E00780
E003C0
E001E0
E000F0
E000F0
E00078
E00038
600018
ENDCHAR
STARTCHAR 004C
ENCODING 76
SWIDTH 624 0
DWIDTH 26 0
BBX 21 33 4 0
BITMAP
400000
E00000
E00000
E00000
E00000
E00000
E00000
E00000
E00000
E00000
E00000
E00000
E00000
E00000
E00000
E00000
E00000
E00000
E00000
E00000
E00000
E00000
E00000
E00000
E00000
E00000
E00000
E00000
E00000
E00000
FFFFF8
FFFFF8
7FFFF8
ENDCHAR
STARTCHAR 004D
ENCODING 77
SWIDTH 984 0
DWIDTH 41 0
BBX 33 33 4 0
BITMAP
4000000000
E000000380
F000000780
F000000780
F800000F80
F800000F80
FC00001F80
FC00001F80
EE00003F80
EE00003F80
E700007780
E700007780
E38000E780
E38000E780
E1C001C780
E1C001C780
E0E0038780
E0E0038780
E070070780
E070070780
E0380E0780
E0380E0780
E01C1C0780
E01C1C0780
E00E380780
E00E380780
E007700780
E007700780
E003E00780
E003E00780
E001C00780
E001C00780
6000000300
ENDCHAR
STARTCHAR 004E
ENCODING 78
SWIDTH 816 0
DWIDTH 34 0
BBX 26 33 4 0
BITMAP
40000080
E00001C0
F00001C0
F80001C0
FC0001C0
FC0001C0
EE0001C0
EF0001C0
E78001C0
E38001C0
E1C001C0
E1E001C0
E0F001C0
E07801C0
E03801C0
E03C01C0
E01E01C0
E00F01C0
E00701C0
E00781C0
E003C1C0
E001E1C0
E000E1C0
E00071C0
E00079C0
E0003DC0
E0001DC0
E0000FC0
E0000FC0
E00007C0
E00003C0
E00001C0
600001C0
ENDCHAR
STARTCHAR 004F
ENCODING 79
SWIDTH 912 0
DWIDTH 38 0
BBX 33 33 3 0
BITMAP
000FF00000
007FFE0000
01FFFF8000
03F81FE000
07C003F000
0F0000F800
1E00007C00
3C00003C00
3800001E00
7800000E00
7000000F00
F000000700
E000000700
E000000780
E000000780
E000000380
E000000380
E000000380
E000000780
E000000780
E000000700
F000000700
F000000F00
7000000F00
7800001E00
3C00001E00
3E00003C00
1F00007800
0F8001F000
07E007E000
03FFFFC000
00FFFF0000
003FFC0000
ENDCHAR
STARTCHAR 0050
ENCODING 80
SWIDTH 624 0
DWIDTH 26 0
BBX 21 33 4 0
BITMAP
7FE000
FFFE00
FFFF80
FFFFC0
E003E0
E001E0
E000F0
E00070
E00070
E00078
E00078
E00078
E00078
E00070
E00070
E000F0
E001E0
E003E0
FFFFC0
FFFF80
FFFE00
FFE000
E00000
E00000
E00000
E00000
E00000
E00000
E00000
E00000
E00000
E00000
600000
ENDCHAR
STARTCHAR 0051
ENCODING 81
SWIDTH 912 0
DWIDTH 38 0
BBX 33 33 3 0
BITMAP
000FF00000
007FFE0000
01FFFF8000
03F81FE000
07C003F000
0F0000F800
1E00007C00
3C00003C00
3800001E00
7800000E00
7000000F00
F000000700
E000000700
E000000780
E000000780
E000000380
E000000380
E000000380
E000000380
E000000780
E000000700
F0001C0700
F0001E0F00
70001F0F00
78000F9E00
3C0007DE00
3E0003FC00
1F0001F800
0F8001F800
07E007FC00
03FFFFFE00
00FFFF1E00
003FFC0E00
ENDCHAR
STARTCHAR 0052
ENCODING 82
SWIDTH 624 0
DWIDTH 26 0
BBX 21 33 4 0
BITMAP
7FC000
FFFC00
FFFF00
FFFF80
E007C0
E001E0
E000E0
E000F0
E00070
E00070
E00070
E00070
E00070
E000F0
E000E0
E001E0
E007C0
FFFF80
FFFF00
FFFC00
E03C00
E01E00
E00F00
E00F00
E00780
E00380
E003C0
E001E0
E001E0
E000F0
E00078
E00078
600038
ENDCHAR
STARTCHAR 0053
ENCODING 83
SWIDTH 672 0
DWIDTH 28 0
BBX 22 33 3 0
BITMAP
01FC00
07FF80
1FFFC0
3F03F0
3C00F0
780078
700038
700010
700000
700000
700000
780000
3C0000
3F0000
0FF000
07FF00
01FFC0
000FE0
0001F0
000078
000038
00003C
00001C
00001C
00001C
C0001C
E0003C
F00038
F80078
7E01F0
3FFFE0
0FFFC0
03FF00
ENDCHAR
STARTCHAR 0054
ENCODING 84
SWIDTH 648 0
DWIDTH 27 0
BBX 26 33 1 0
BITMAP
7FFFFF00
FFFFFFC0
FFFFFFC0
001C0000
001C0000
001C0000
001C0000
001C0000
001C0000
001C0000
001C0000
001C0000
001C0000
001C0000
001C0000
001C0000
001C0000
001C0000
001C0000
001C0000
001C0000
001C0000
001C0000
001C0000
001C0000
001C0000
001C0000
001C0000
001C0000
001C0000
001C0000
001C0000
001C0000
ENDCHAR
STARTCHAR 0055
ENCODING 85
SWIDTH 816 0
DWIDTH 34 0
BBX 26 34 4 -1
BITMAP
40000080
E00001C0
E00001C0
E00001C0
E00001C0
E00001C0
E00001C0
E00001C0
E00001C0
E00001C0
E00001C0
E00001C0
E00001C0
E00001C0
E00001C0
E00001C0
E00001C0
E00001C0
E00001C0
E00001C0
E00001C0
E00001C0
E00001C0
E00001C0
F00003C0
70000380
78000780
78000780
3C000F00
1F003E00
0FF3FC00
07FFF800
01FFE000
001E0000
ENDCHAR
STARTCHAR 0056
ENCODING 86
SWIDTH 720 0
DWIDTH 30 0
BBX 28 33 1 0
BITMAP
40000020
E0000070
E0000070
F00000F0
700000E0
780001E0
380001C0
380003C0
3C000380
1C000380
1E000780
0E000700
0F000F00
07000E00
07000E00
07801C00
03801C00
03C03C00
01C03800
01C07800
00E07000
00E07000
00F0E000
0070E000
0079E000
0039C000
0039C000
001F8000
001F8000
001F0000
000F0000
000F0000
00060000
ENDCHAR
STARTCHAR 0057
ENCODING 87
SWIDTH 936 0
DWIDTH 39 0
BBX 37 33 1 0
BITMAP
4000000000
E000200038
E000700038
E000700038
F000F80078
7000F80070
7000F80070
7800D800F0
3801DC00E0
3801DC00E0
3801DC00E0
1C038E01C0
1C038E01C0
1C038E01C0
1E030603C0
0E07070380
0E07070380
0E07070380
070E038700
070E038700
070E038700
078E038F00
039C01CE00
039C01CE00
039C01CE00
01F800FC00
01F800FC00
01F800FC00
00F800F800
00F0007800
00F0007800
00F0007800
0060003000
ENDCHAR
STARTCHAR 0058
ENCODING 88
SWIDTH 696 0
DWIDTH 29 0
BBX 26 32 2 1
BITMAP
70000380
70000780
78000780
3C000F00
1E001E00
0E003C00
0F003C00
07807800
03C0F000
03C0E000
01E1E000
00F3C000
00778000
007F0000
003F0000
001E0000
003F0000
007F8000
00F78000
00E3C000
01E1E000
03C0F000
0780F000
07807800
0F003C00
1E003C00
3C001E00
3C000F00
78000780
F0000780
E00003C0
E0000180
ENDCHAR
STARTCHAR 0059
ENCODING 89
SWIDTH 648 0
DWIDTH 27 0
BBX 27 33 0 0
BITMAP
00000040
E00000E0
F00001E0
780001C0
780003C0
3C000780
1C000700
1E000F00
0F001E00
07001C00
07803C00
03C03800
01C07000
01E0F000
00E0E000
00F1E000
007BC000
003B8000
003F8000
001F0000
000E0000
000E0000
000E0000
000E0000
000E0000
000E0000
000E0000
000E0000
000E0000
000E0000
000E0000
000E0000
000E0000
ENDCHAR
STARTCHAR 005A
ENCODING 90
SWIDTH 720 0
DWIDTH 30 0
BBX 26 33 2 0
BITMAP
3FFFFF80
FFFFFFC0
FFFFFFC0
00000380
00000780
00000F00
00001E00
00001C00
00003800
00007800
0000F000
0001E000
0001C000
00038000
00078000
000F0000
001E0000
001C0000
00380000
00780000
00F00000
01E00000
01C00000
03800000
07800000
0F000000
1E000000
1C000000
38000000
78000000
FFFFFFC0
FFFFFFC0
FFFFFFC0
ENDCHAR
STARTCHAR 005B
ENCODING 91
SWIDTH 312 0
DWIDTH 13 0
BBX 10 43 3 -10
BITMAP
7F00
FF80
FFC0
FF00
E000
E000
E000
E000
E000
E000
E000
E000
E000
E000
E000
E000
E000
E000
E000
E000
E000
E000
E000
E000
E000
E000
E000
E000
E000
E000
E000
E000
E000
E000
E000
E000
E000
E000
E000
FF00
FF80
FFC0
7F80
ENDCHAR
STARTCHAR 005C
ENCODING 92
SWIDTH 480 0
DWIDTH 20 0
BBX 16 36 2 -3
BITMAP
4000
E000
E000
F000
F000
7000
7800
3800
3C00
3C00
1C00
1E00
0E00
0F00
0F00
0700
0780
0380
03C0
03C0
01C0
01E0
00E0
00F0
00F0
0070
0078
0038
003C
001C
001C
001E
000E
000F
0007
0007
ENDCHAR
STARTCHAR 005D
ENCODING 93
SWIDTH 312 0
DWIDTH 13 0
BBX 10 43 0 -10
BITMAP
7F00
FFC0
FFC0
7FC0
01C0
01C0
01C0
01C0
01C0
01C0
01C0
01C0
01C0
01C0
01C0
01C0
01C0
01C0
01C0
01C0
01C0
01C0
01C0
01C0
01C0
01C0
01C0
01C0
01C0
01C0
01C0
01C0
01C0
01C0
01C0
01C0
01C0
01C0
01C0
3FC0
FFC0
FFC0
7F80
ENDCHAR
STARTCHAR 005E
ENCODING 94
SWIDTH 480 0
DWIDTH 20 0
BBX 16 12 2 21
BITMAP
0380
03C0
07E0
0FE0
0FF0
1E78
3C38
3C3C
781E
F00E
F00F
E007
ENDCHAR
STARTCHAR 005F
ENCODING 95
SWIDTH 480 0
DWIDTH 20 0
BBX 24 3 -2 -3
BITMAP
7FFFFE
FFFFFF
7FFFFE
ENDCHAR
STARTCHAR 0060
ENCODING 96
SWIDTH 264 0
DWIDTH 11 0
BBX 8 8 2 25
BITMAP
40
E0
F0
F8
7C
3E
1F
06
ENDCHAR
STARTCHAR 0061
ENCODING 97
SWIDTH 672 0
DWIDTH 28 0
BBX 23 23 3 0
BITMAP
00FE00
07FF80
0FFFC0
1F03F0
3C00F0
780078
70003C
F0001C
E0001C
E0001E
E0001E
E0000E
E0001E
E0001E
E0001E
F0001E
F0003E
78007E
3C00FE
3E01FE
1FFFDE
07FF9E
01FE0C
ENDCHAR
STARTCHAR 0062
ENCODING 98
SWIDTH 696 0
DWIDTH 29 0
BBX 23 33 4 0
BITMAP
400000
E00000
E00000
E00000
E00000
E00000
E00000
E00000
E00000
E00000
E0FE00
E3FF80
E7FFE0
EF03F0
FC00F8
F80078
F0003C
F0001C
E0001E
E0001E
E0000E
E0000E
E0000E
E0000E
E0001E
F0001C
70003C
780038
3C0078
1F01F0
0FFFE0
07FFC0
01FF00
ENDCHAR
STARTCHAR 0063
ENCODING 99
SWIDTH 600 0
DWIDTH 25 0
BBX 19 23 3 0
BITMAP
01FC00
07FF00
1FFF80
3F03E0
3C01E0
7800E0
700000
E00000
E00000
E00000
E00000
E00000
E00000
E00000
E00000
E00000
F00000
780000
3C00C0
3E01E0
1FFFC0
07FF80
01FE00
ENDCHAR
STARTCHAR 0064
ENCODING 100
SWIDTH 696 0
DWIDTH 29 0
BBX 23 32 3 1
BITMAP
00000E
00001E
00001E
00001E
00001E
00001E
00001E
00001E
00001E
01FC1E
07FF1E
0FFFDE
1F03FE
3C00FE
78007E
70003E
F0001E
E0001E
E0001E
E0001E
E0000E
E0001E
E0001E
E0001C
E0001C
70003C
780078
3C00F8
3E01F0
1FFFE0
07FF80
01FE00
ENDCHAR
STARTCHAR 0065
ENCODING 101
SWIDTH 624 0
DWIDTH 26 0
BBX 21 23 3 0
BITMAP
01FC00
07FF00
1FFF80
3E03C0
3C01E0
7800F0
F00070
E00070
E00038
E00038
FFFFF8
FFFFF8
FFFFF0
E00000
E00000
E00000
F00000
780000
3C0060
3E01E0
1FFFE0
07FF80
01FE00
ENDCHAR
STARTCHAR 0066
ENCODING 102
SWIDTH 360 0
DWIDTH 15 0
BBX 14 33 1 0
BITMAP
0008
00FC
01FC
03F0
0780
0700
0700
0F00
0E00
0E00
0E00
FFF8
FFFC
FFF8
0E00
0E00
0E00
0E00
0E00
0E00
0E00
0E00
0E00
0E00
0E00
0E00
0E00
0E00
0E00
0E00
0E00
0E00
0E00
ENDCHAR
STARTCHAR 0067
ENCODING 103
SWIDTH 672 0
DWIDTH 28 0
BBX 23 32 3 -9
BITMAP
01FE00
07FF80
0FFFE0
1F03F0
3C00F0
780078
70003C
F0001C
E0001C
E0001E
E0001E
E0000E
E0001E
E0001E
E0001E
E0001E
F0003E
78007E
7C00EE
3E01EE
1FFFCE
0FFF9E
01FE1C
00001C
00001C
60003C
700078
7C00F0
3F03F0
1FFFC0
07FF80
01FE00
ENDCHAR
STARTCHAR 0068
ENCODING 104
SWIDTH 672 0
DWIDTH 28 0
BBX 21 33 4 0
BITMAP
400000
E00000
E00000
E00000
E00000
E00000
E00000
E00000
E00000
E00000
E1FC00
E7FF00
EFFFC0
FE07E0
F801E0
F000F0
F00070
E00078
E00078
E00038
E00038
E00038
E00038
E00038
E00038
E00038
E00038
E00038
E00038
E00038
E00038
E00038
E00030
ENDCHAR
STARTCHAR 0069
ENCODING 105
SWIDTH 288 0
DWIDTH 12 0
BBX 4 32 4 0
BITMAP
60
F0
F0
F0
60
00
00
00
00
60
F0
F0
F0
F0
F0
F0
F0
F0
F0
F0
F0
F0
F0
F0
F0
F0
F0
F0
F0
F0
F0
60
ENDCHAR
STARTCHAR 006A
ENCODING 106
SWIDTH 288 0
DWIDTH 12 0
BBX 12 42 -4 -10
BITMAP
0060
00F0
00F0
00F0
0060
0000
0000
0000
0000
0060
00E0
00E0
00E0
00E0
00E0
00E0
00E0
00E0
00E0
00E0
00E0
00E0
00E0
00E0
00E0
00E0
00E0
00E0
00E0
00E0
00E0
00E0
00E0
00E0
00E0
01E0
01C0
07C0
3F80
FF00
FE00
7000
ENDCHAR
STARTCHAR 006B
ENCODING 107
SWIDTH 576 0
DWIDTH 24 0
BBX 17 33 4 0
BITMAP
400000
E00000
E00000
E00000
E00000
E00000
E00000
E00000
E00000
E00000
E00180
E00780
E00F80
E01F00
E03C00
E07800
E0F000
E1E000
E3C000
E78000
FF8000
FF8000
FFC000
F1E000
E0F000
E07800
E03C00
E03C00
E01E00
E00F00
E00780
E00380
E00180
ENDCHAR
STARTCHAR 006C
ENCODING 108
SWIDTH 288 0
DWIDTH 12 0
BBX 8 33 3 0
BITMAP
40
E0
E0
E0
E0
E0
E0
E0
E0
E0
E0
E0
E0
E0
E0
E0
E0
E0
E0
E0
E0
E0
E0
E0
E0
E0
E0
E0
F0
78
7F
3F
1F
ENDCHAR
STARTCHAR 006D
ENCODING 109
SWIDTH 936 0
DWIDTH 39 0
BBX 32 23 4 0
BITMAP
43F00FE0
EFFC1FF8
FFFE7FFC
FC1FF83E
F807E01E
F007E00F
E003C00F
E003C007
E003C007
E003C007
E003C007
E003C007
E003C007
E003C007
E003C007
E003C007
E003C007
E003C007
E003C007
E003C007
E003C007
E003C007
E0018007
ENDCHAR
STARTCHAR 006E
ENCODING 110
SWIDTH 672 0
DWIDTH 28 0
BBX 21 23 4 0
BITMAP
41FC00
E7FF00
EFFFC0
FE07E0
F801E0
F000F0
F00070
E00078
E00078
E00038
E00038
E00038
E00038
E00038
E00038
E00038
E00038
E00038
E00038
E00038
E00038
E00038
E00030
ENDCHAR
STARTCHAR 006F
ENCODING 111
SWIDTH 672 0
DWIDTH 28 0
BBX 23 23 3 0
BITMAP
00FE00
07FF80
0FFFC0
1F03F0
3C00F0
780078
70003C
F0001C
E0001C
E0001E
E0001E
E0000E
E0001E
E0001E
E0001C
E0001C
F0003C
780078
3C00F8
3E01F0
1FFFE0
07FF80
01FE00
ENDCHAR
STARTCHAR 0070
ENCODING 112
SWIDTH 696 0
DWIDTH 29 0
BBX 23 33 4 -10
BITMAP
00FE00
07FF80
0FFFE0
1F03F0
3C00F8
780078
70003C
F0001C
E0001C
E0001E
E0000E
E0000E
E0000E
E0000E
E0001E
F0001C
F0003C
F80038
FC0078
FF01F0
EFFFE0
E3FFC0
E0FF00
E00000
E00000
E00000
E00000
E00000
E00000
E00000
E00000
E00000
400000
ENDCHAR
STARTCHAR 0071
ENCODING 113
SWIDTH 696 0
DWIDTH 29 0
BBX 23 33 3 -10
BITMAP
00FE00
07FF80
0FFFC0
1F03F0
3C00F0
780078
70003C
F0001C
E0001C
E0001C
E0001E
E0000E
E0001E
E0001E
E0001E
F0001E
F0003E
78007E
3C00FE
3E01FE
1FFFDE
07FF9E
01FE1E
00001E
00001E
00001E
00001E
00001E
00001E
00001E
00001E
00001E
00000C
ENDCHAR
STARTCHAR 0072
ENCODING 114
SWIDTH 456 0
DWIDTH 19 0
BBX 14 23 4 0
BITMAP
41F8
E7FC
EFFC
FE00
F800
F000
E000
E000
E000
E000
E000
E000
E000
E000
E000
E000
E000
E000
E000
E000
E000
E000
E000
ENDCHAR
STARTCHAR 0073
ENCODING 115
SWIDTH 528 0
DWIDTH 22 0
BBX 18 23 3 0
BITMAP
07F000
1FFC00
3FFF00
780F80
700780
F00380
F00000
F00000
780000
7E0000
1FF000
0FFC00
01FF00
000F80
000380
0003C0
0001C0
4003C0
E00380
F80780
7FFF00
3FFE00
0FF800
ENDCHAR
STARTCHAR 0074
ENCODING 116
SWIDTH 408 0
DWIDTH 17 0
BBX 14 30 1 0
BITMAP
0E00
0E00
0E00
0E00
0E00
0E00
0E00
0E00
FFF8
FFF8
FFF8
0E00
0E00
0E00
0E00
0E00
0E00
0E00
0E00
0E00
0E00
0E00
0E00
0E00
0F00
0780
07C0
03FC
01FC
007C
ENDCHAR
STARTCHAR 0075
ENCODING 117
SWIDTH 672 0
DWIDTH 28 0
BBX 21 23 3 0
BITMAP
600018
F00038
F00038
F00038
F00038
F00038
F00038
F00038
F00038
F00038
F00038
F00038
F00038
F00038
F00038
700038
700038
780078
3C00F8
3E03F8
1FFFF8
07FFB8
03FE18
ENDCHAR
STARTCHAR 0076
ENCODING 118
SWIDTH 552 0
DWIDTH 23 0
BBX 21 23 1 0
BITMAP
C00018
E00038
E00038
F00078
700070
7800F0
3800E0
3C00E0
1C01C0
1C01C0
0E0380
0E0380
070780
070700
038F00
038E00
03DE00
01DC00
01FC00
00F800
00F800
007000
007000
ENDCHAR
STARTCHAR 0077
ENCODING 119
SWIDTH 744 0
DWIDTH 31 0
BBX 29 23 1 0
BITMAP
C0020018
E0070038
E0070038
E00F8078
700F8070
700F8070
701DC0F0
381DC0E0
3819C0E0
3838C0E0
1C38E1C0
1C38E1C0
1C3061C0
0E707380
0E707380
0E607380
07E03F00
07E03F00
07C03F00
03C01E00
03C01E00
03C01E00
01800C00
ENDCHAR
STARTCHAR 0078
ENCODING 120
SWIDTH 552 0
DWIDTH 23 0
BBX 19 23 2 0
BITMAP
400040
E000E0
F001E0
7803C0
3C0780
1C0F00
1E0F00
0F1E00
07BC00
03F800
01F000
01F000
03F000
03F800
07BC00
0F1E00
1E0F00
3C0F00
380780
7803C0
F001E0
E000E0
C000E0
ENDCHAR
STARTCHAR 0079
ENCODING 121
SWIDTH 552 0
DWIDTH 23 0
BBX 22 33 1 -10
BITMAP
C00018
E0003C
E00038
F00078
700070
780070
3800E0
3C00E0
1C01E0
1E01C0
0E03C0
0F0380
070780
078700
038F00
03CE00
01CE00
01FC00
00FC00
00FC00
007800
007800
007000
00F000
00E000
00E000
01C000
01C000
038000
038000
078000
070000
070000
ENDCHAR
STARTCHAR 007A
ENCODING 122
SWIDTH 552 0
DWIDTH 23 0
BBX 18 23 3 0
BITMAP
FFFF80
FFFFC0
FFFFC0
000780
000700
000E00
001E00
003C00
007800
007000
00F000
01E000
03C000
038000
070000
0F0000
1E0000
3C0000
380000
780000
FFFFC0
FFFFC0
FFFFC0
ENDCHAR
STARTCHAR 007B
ENCODING 123
SWIDTH 384 0
DWIDTH 16 0
BBX 13 43 2 -10
BITMAP
0010
01F8
03F8
03F0
0780
0780
0700
0700
0700
0700
0700
0700
0700
0700
0700
0700
0700
0700
0700
0F00
7E00
FE00
FE00
1F00
0700
0700
0700
0700
0700
0700
0700
0700
0700
0700
0700
0700
0700
0700
0780
03F0
03F8
01F8
0030
ENDCHAR
STARTCHAR 007C
ENCODING 124
SWIDTH 384 0
DWIDTH 16 0
BBX 4 42 6 -9
BITMAP
70
F0
F0
F0
F0
F0
F0
F0
F0
F0
F0
F0
F0
F0
F0
F0
F0
F0
F0
F0
F0
F0
F0
F0
F0
F0
F0
F0
F0
F0
F0
F0
F0
F0
F0
F0
F0
F0
F0
F0
70
60
ENDCHAR
STARTCHAR 007D
ENCODING 125
SWIDTH 384 0
DWIDTH 16 0
BBX 13 43 1 -10
BITMAP
4000
F800
FC00
7E00
0E00
0F00
0F00
0F00
0F00
0F00
0F00
0F00
0F00
0F00
0F00
0F00
0F00
0F00
0700
0780
07F0
03F8
07F0
0780
0700
0F00
0F00
0F00
0F00
0F00
0F00
0F00
0F00
0F00
0F00
0F00
0F00
0F00
0E00
7E00
FE00
FC00
E000
ENDCHAR
STARTCHAR 007E
ENCODING 126
SWIDTH 480 0
DWIDTH 20 0
BBX 16 5 2 13
BITMAP
1E00
7F83
FFFF
E1FF
C07C
ENDCHAR
STARTCHAR 00A0
ENCODING 160
SWIDTH 288 0
DWIDTH 12 0
BBX 0 0 0 0
BITMAP
ENDCHAR
STARTCHAR 00A1
ENCODING 161
SWIDTH 264 0
DWIDTH 11 0
BBX 5 33 4 -10
BITMAP
70
F8
F8
F8
70
00
00
00
70
70
70
70
70
70
70
70
70
70
70
70
70
70
70
70
70
70
70
70
70
70
70
70
30
ENDCHAR
STARTCHAR 00A2
ENCODING 162
SWIDTH 600 0
DWIDTH 25 0
BBX 19 31 3 -4
BITMAP
000300
000380
000300
000700
01FE00
07FF00
1FFF80
3F0FE0
3C1DE0
781CE0
701800
E03800
E03000
E07000
E07000
E06000
E0E000
E0E000
E0C000
E1C000
F18000
7B8000
3F80C0
3F01E0
1FFFC0
07FF80
07FE00
0E0000
0C0000
1C0000
0C0000
ENDCHAR
STARTCHAR 00A3
ENCODING 163
SWIDTH 504 0
DWIDTH 21 0
BBX 20 33 2 0
BITMAP
004000
07FC00
0FFE00
1FFF00
3E0F80
3C0380
380100
780000
780000
780000
780000
380000
380000
3C0000
1C0000
1C0000
1E0000
FFFC00
FFFC00
FFFC00
0E0000
0E0000
0E0000
1E0000
1E0000
1C0000
1C0000
1C00E0
3C00F0
3801E0
7FFFE0
7FFFC0
3FFFC0
ENDCHAR
STARTCHAR 00A4
ENCODING 164
SWIDTH 504 0
DWIDTH 21 0
BBX 17 17 2 7
BITMAP
600300
F1C780
FFFF80
7FFF00
3FFE00
3C1E00
780F00
780F00
700F00
700F00
780F00
3C1E00
3E3E00
7FFF00
FFFF80
F7F780
E00380
ENDCHAR
STARTCHAR 00A5
ENCODING 165
SWIDTH 648 0
DWIDTH 27 0
BBX 27 33 0 0
BITMAP
00000040
E00000E0
F00001E0
780001C0
780003C0
3C000780
1C000700
1E000F00
0F001E00
07001C00
07803C00
03C03800
01C07800
01E0F000
00E0E000
00F1E000
007BC000
003B8000
03FFF800
07FFFC00
03FFF800
000E0000
000E0000
01FFF000
07FFFC00
07FFFC00
000E0000
000E0000
000E0000
000E0000
000E0000
000E0000
000E0000
ENDCHAR
STARTCHAR 00A6
ENCODING 166
SWIDTH 240 0
DWIDTH 10 0
BBX 4 46 3 -10
BITMAP
60
E0
F0
F0
F0
F0
F0
F0
F0
F0
F0
F0
F0
F0
F0
F0
E0
60
00
00
00
00
00
00
00
00
00
00
60
E0
F0
F0
F0
F0
F0
F0
F0
F0
F0
F0
F0
F0
F0
F0
E0
60
ENDCHAR
STARTCHAR 00A7
ENCODING 167
SWIDTH 480 0
DWIDTH 20 0
BBX 16 43 2 -10
BITMAP
0100
0FF0
3FF8
7FFC
783E
F00E
E00F
E007
E007
E007
E000
F000
7800
7F00
3FF0
3FF8
7FFC
783E
F00E
E00F
E007
E007
E007
E00F
F00F
781E
7FFC
3FFC
1FF8
03FC
003E
000E
000F
C007
E007
E007
E00F
F00E
781E
7FFC
3FF8
1FF0
03C0
ENDCHAR
STARTCHAR 00A8
ENCODING 168
SWIDTH 480 0
DWIDTH 20 0
BBX 13 5 4 26
BITMAP
0020
F070
F0F8
F0F8
E070
ENDCHAR
STARTCHAR 00A9
ENCODING 169
SWIDTH 864 0
DWIDTH 36 0
BBX 32 33 2 0
BITMAP
0001C000
003FFC00
00FFFF00
01F81FC0
07C003E0
0F8000F0
1E03C078
1C1FF83C
383FFC1C
387C3E0E
70F00F0E
71E00707
E1C00007
E1C00007
E3C00007
E3800003
E3800003
E3800003
E3C00003
E1C00007
E1C00007
61E00007
70F0060E
70781E0E
383FFE1E
3C1FFC3C
1E07F078
0F0000F0
07C001E0
03F00FC0
01FFFF80
007FFE00
000FF000
ENDCHAR
STARTCHAR 00AA
ENCODING 170
SWIDTH 480 0
DWIDTH 20 0
BBX 16 17 2 16
BITMAP
07C0
1FF8
3FFC
7C3E
F01E
F00F
E007
E007
E007
E007
E00F
F00F
781F
7FFF
3FFF
0FE7
0002
ENDCHAR
STARTCHAR 00AB
ENCODING 171
SWIDTH 480 0
DWIDTH 20 0
BBX 16 23 2 0
BITMAP
0602
0F07
0F0F
1E0E
1E1E
3C1C
3C3C
7838
7878
F070
F0F0
E0E0
F0F0
F070
7878
7838
3C3C
3C1C
1E1E
1E0E
0F0F
0F07
0607
ENDCHAR
STARTCHAR 00AC
ENCODING 172
SWIDTH 552 0
DWIDTH 23 0
BBX 19 9 2 10
BITMAP
FFFFE0
FFFFE0
7FFFE0
0000E0
0000E0
0000E0
0000E0
0000E0
0000E0
ENDCHAR
STARTCHAR 00AD
ENCODING 173
SWIDTH 384 0
DWIDTH 16 0
BBX 13 3 2 10
BITMAP
FFF0
FFF8
FFF0
ENDCHAR
STARTCHAR 00AE
ENCODING 174
SWIDTH 864 0
DWIDTH 36 0
BBX 32 33 2 0
BITMAP
0001C000
003FFC00
00FFFF00
01F81FC0
07C003E0
0F8000F0
1E3FC078
1C3FF83C
383FFC1C
38381C0E
70380E0E
70380E07
E0380E07
E0380E07
E0380E07
E0381C03
E03FFC03
E03FF003
E03FE003
E0387007
E0387807
60383807
70381C0E
70381E0E
38380E1E
3C38063C
1E100078
0F0000F0
07C001E0
03F00FC0
01FFFF80
007FFE00
000FF000
ENDCHAR
STARTCHAR 00AF
ENCODING 175
SWIDTH 552 0
DWIDTH 23 0
BBX 14 3 4 27
BITMAP
7FF8
FFFC
FFFC
ENDCHAR
STARTCHAR 00B0
ENCODING 176
SWIDTH 480 0
DWIDTH 20 0
BBX 16 17 2 16
BITMAP
0180
0FF0
3FF8
7FFC
783E
F01E
E00F
E007
E007
E007
E00F
F00E
781E
7FFC
3FF8
0FF0
03C0
ENDCHAR
STARTCHAR 00B1
ENCODING 177
SWIDTH 552 0
DWIDTH 23 0
BBX 19 20 2 6
BITMAP
00E000
00E000
00E000
00E000
00E000
00E000
00E000
00E000
FFFFE0
FFFFE0
FFFFE0
00E000
00E000
00E000
00E000
00E000
00E000
FFFFE0
FFFFE0
FFFFE0
ENDCHAR
STARTCHAR 00B2
ENCODING 178
SWIDTH 360 0
DWIDTH 15 0
BBX 11 17 2 16
BITMAP
1F00
7F80
7FC0
E1E0
C0E0
C0E0
C0E0
01C0
0380
0700
0E00
1C00
3800
7000
FFE0
FFE0
7FE0
ENDCHAR
STARTCHAR 00B3
ENCODING 179
SWIDTH 360 0
DWIDTH 15 0
BBX 11 17 2 16
BITMAP
1F00
7F80
7FC0
E1C0
E0E0
C0E0
01C0
0780
0F80
03C0
00E0
C0E0
E0E0
E0E0
F1E0
7FC0
3F80
ENDCHAR
STARTCHAR 00B4
ENCODING 180
SWIDTH 264 0
DWIDTH 11 0
BBX 8 7 2 26
BITMAP
0F
1F
3E
7C
F8
F0
E0
ENDCHAR
STARTCHAR 00B5
ENCODING 181
SWIDTH 672 0
DWIDTH 28 0
BBX 21 33 3 -10
BITMAP
600018
F00038
F00038
F00038
F00038
F00038
F00038
F00038
F00038
F00038
F00038
F00038
F00038
F00038
F00038
F00038
F00038
F80078
FC00F8
FF01F8
FFFFF8
F3FF38
F1FE18
F00000
F00000
F00000
F00000
F00000
F00000
F00000
F00000
E00000
600000
ENDCHAR
STARTCHAR 00B6
ENCODING 182
SWIDTH 576 0
DWIDTH 24 0
BBX 20 33 2 0
BITMAP
01FFC0
0FFFF0
1FFFF0
3FFFE0
7FE1C0
FFE1C0
FFE1C0
FFE1C0
FFE1C0
FFE1C0
FFE1C0
FFE1C0
7FE1C0
7FE1C0
3FE1C0
0FE1C0
03E1C0
00E1C0
00E1C0
00E1C0
00E1C0
00E1C0
00E1C0
00E1C0
00E1C0
00E1C0
00E1C0
00E1C0
00E1C0
00E1C0
00E1C0
00E1C0
00E1C0
ENDCHAR
STARTCHAR 00B7
ENCODING 183
SWIDTH 192 0
DWIDTH 8 0
BBX 4 5 2 13
BITMAP
60
F0
F0
F0
60
ENDCHAR
STARTCHAR 00B8
ENCODING 184
SWIDTH 312 0
DWIDTH 13 0
BBX 11 12 1 -10
BITMAP
0600
0700
0F00
0E00
0FC0
03E0
01E0
60E0
F1E0
FFC0
7F80
0E00
ENDCHAR
STARTCHAR 00B9
ENCODING 185
SWIDTH 264 0
DWIDTH 11 0
BBX 8 16 1 17
BITMAP
1F
7F
FF
E7
07
07
07
07
07
07
07
07
07
07
07
06
ENDCHAR
STARTCHAR 00BA
ENCODING 186
SWIDTH 480 0
DWIDTH 20 0
BBX 16 16 2 17
BITMAP
07C0
1FF8
3FFC
7C3E
F01E
F00F
E007
E007
E007
E007
E00F
F00E
781E
7FFC
3FF8
0FF0
ENDCHAR
STARTCHAR 00BB
ENCODING 187
SWIDTH 480 0
DWIDTH 20 0
BBX 16 23 2 0
BITMAP
4040
E0E0
E0F0
F070
7078
7838
383C
3C1C
1C1E
1E0E
0E0F
0F07
0F0F
1E0E
1E1E
3C1C
3C3C
7838
7878
F070
F0F0
E0E0
C0E0
ENDCHAR
STARTCHAR 00BC
ENCODING 188
SWIDTH 768 0
DWIDTH 32 0
BBX 29 33 1 0
BITMAP
00000080
1F0001C0
7F0003C0
FF000380
E7000700
07000F00
07000E00
07001C00
07003C00
07003800
07007000
07007000
0700E000
0701C000
0701C000
07038000
06070080
000701C0
000E03C0
001C07C0
001C07C0
00380EC0
00701CC0
007038C0
00E038C0
01E070C0
01C0E0C0
0381FFF8
0781FFF8
070000C0
0E0000C0
0E0000C0
0C0000C0
ENDCHAR
STARTCHAR 00BD
ENCODING 189
SWIDTH 816 0
DWIDTH 34 0
BBX 31 33 1 0
BITMAP
00000060
1F0000E0
7F0000E0
FF0001C0
E70003C0
07000380
07000700
07000F00
07000E00
07001C00
07003C00
07003800
07007000
0700F000
0700E000
0701C000
0603C1F0
000383F8
000707FC
00070E1E
000E0E0E
001C0C0E
001C0C0E
0038001C
00700038
00700070
00E000E0
01C001E0
01C003C0
03800780
07000FFE
07000FFE
060007FE
ENDCHAR
STARTCHAR 00BE
ENCODING 190
SWIDTH 840 0
DWIDTH 35 0
BBX 31 33 2 0
BITMAP
1F000040
7F8000E0
7FC001E0
E1C001C0
E0E00380
C0E00780
01C00700
07800E00
0F801E00
03C01C00
00E03800
C0E07800
E0E07000
E0E0E000
F1E1E000
7FC1C000
3F838020
00038070
000700F0
000E01F0
000E01F0
001C03F0
00380770
00380E70
00700C70
00E01C70
00E03870
01C07FFE
03807FFE
03800070
07000070
06000070
06000030
ENDCHAR
STARTCHAR 00BF
ENCODING 191
SWIDTH 552 0
DWIDTH 23 0
BBX 19 33 2 -7
BITMAP
00E000
01E000
01F000
01F000
00E000
000000
000000
000000
00E000
00E000
00E000
01E000
01C000
03C000
078000
0F0000
1E0000
3C0000
780000
700000
F00000
E00000
E000E0
E000E0
E000E0
E000E0
E001E0
F001C0
7003C0
7C0F80
3FFF00
1FFE00
07FC00
ENDCHAR
STARTCHAR 00C0
ENCODING 192
SWIDTH 696 0
DWIDTH 29 0
BBX 28 44 1 0
BITMAP
00C00000
01E00000
00F00000
00780000
003C0000
001E0000
000E0000
00040000
00000000
00000000
00000000
00000000
000E0000
000F0000
001F0000
001F8000
001F8000
003B8000
003BC000
0079C000
0071E000
00F0E000
00E0E000
00E07000
01E07000
01C07800
03C03800
03803C00
07801C00
07001C00
07001E00
0F000E00
0E000F00
1FFFFF00
1FFFFF80
1FFFFF80
3C000380
380003C0
780001C0
700001E0
F00000E0
E00000E0
E00000F0
E0000060
ENDCHAR
STARTCHAR 00C1
ENCODING 193
SWIDTH 696 0
DWIDTH 29 0
BBX 28 44 1 0
BITMAP
00006000
0000F000
0001E000
0003E000
0007C000
000F8000
000F0000
000E0000
00000000
00000000
00000000
00000000
000E0000
000F0000
001F0000
001F8000
001F8000
003B8000
003BC000
0079C000
0071E000
00F0E000
00E0E000
00E07000
01E07000
01C07800
03C03800
03803C00
07801C00
07001C00
07001E00
0F000E00
0E000F00
1FFFFF00
1FFFFF80
1FFFFF80
3C000380
380003C0
780001C0
700001E0
F00000E0
E00000E0
E00000F0
E0000060
ENDCHAR
STARTCHAR 00C2
ENCODING 194
SWIDTH 696 0
DWIDTH 29 0
BBX 28 42 1 1
BITMAP
000F0000
003F8000
007FE000
01F9F000
01E0F000
00C03000
00000000
00000000
00000000
00000000
000E0000
000F0000
001F0000
001F8000
001F8000
003B8000
003BC000
0079C000
0071E000
00F0E000
00E0E000
00E07000
01E07000
01C07800
03C03800
03803C00
07801C00
07001C00
07001E00
0F000E00
0E000F00
1FFFFF00
1FFFFF80
1FFFFF80
3C000380
380003C0
780001C0
700001E0
F00000E0
E00000E0
E00000F0
E0000060
ENDCHAR
STARTCHAR 00C3
ENCODING 195
SWIDTH 696 0
DWIDTH 29 0
BBX 28 42 1 0
BITMAP
00780000
00FC7000
01FE7000
01C7E000
01C3E000
00008000
00000000
00000000
00000000
00000000
000E0000
000F0000
001F0000
001F8000
001F8000
003B8000
003BC000
0079C000
0071E000
00F0E000
00E0E000
00E07000
01E07000
01C07800
03C03800
03803C00
07801C00
07001C00
07001E00
0F000E00
0E000F00
1FFFFF00
1FFFFF80
1FFFFF80
3C000380
380003C0
780001C0
700001E0
F00000E0
E00000E0
E00000F0
E0000060
ENDCHAR
STARTCHAR 00C4
ENCODING 196
SWIDTH 696 0
DWIDTH 29 0
BBX 28 41 1 0
BITMAP
00E0F000
01F0F000
01F0F000
00E0F000
00000000
00000000
00000000
00000000
00000000
000E0000
000F0000
001F0000
001F8000
001F8000
003B8000
003BC000
0079C000
0071E000
00F0E000
00E0E000
00E07000
01E07000
01C07800
03C03800
03803C00
07801C00
07001C00
07001E00
0F000E00
0E000F00
1FFFFF00
1FFFFF80
1FFFFF80
3C000380
380003C0
780001C0
700001E0
F00000E0
E00000E0
E00000F0
E0000060
ENDCHAR
STARTCHAR 00C5
ENCODING 197
SWIDTH 696 0
DWIDTH 29 0
BBX 28 43 1 0
BITMAP
00040000
001F8000
00398000
0030C000
0030C000
0030C000
003B8000
001F0000
00040000
00000000
00000000
000E0000
000F0000
001F0000
001F8000
001F8000
003B8000
003BC000
0079C000
0071E000
00F0E000
00E0E000
00E07000
01E07000
01C07800
03C03800
03803C00
07801C00
07001C00
07001E00
0F000E00
0E000F00
1FFFFF00
1FFFFF80
1FFFFF80
3C000380
380003C0
780001C0
700001E0
F00000E0
E00000E0
E00000F0
E0000060
ENDCHAR
STARTCHAR 00C6
ENCODING 198
SWIDTH 960 0
DWIDTH 40 0
BBX 37 33 1 0
BITMAP
00000FFFF0
00003FFFF8
00007FFFF8
0000FFFFF0
0000F80000
0001F80000
0001F80000
0003F80000
0007F80000
0007780000
000F780000
000E780000
001E780000
003C780000
0038780000
00787FFF00
00707FFF00
00F07FFF00
01E0780000
01C0780000
03C0780000
0380780000
07FFF80000
0FFFF80000
0FFFF80000
1E00780000
1C00780000
3C00780000
7800780000
7000780000
F0007FFFF8
E0007FFFF8
E0003FFFF8
ENDCHAR
STARTCHAR 00C7
ENCODING 199
SWIDTH 768 0
DWIDTH 32 0
BBX 26 43 3 -10
BITMAP
000FF000
007FFE00
01FFFF00
03F81FC0
07C003C0
0F8001C0
1E000000
3C000000
38000000
78000000
70000000
F0000000
E0000000
E0000000
E0000000
E0000000
E0000000
E0000000
E0000000
E0000000
E0000000
F0000000
70000000
78000000
78000000
3C000000
1E000000
1F0000C0
0F8003C0
07E00FC0
01FFFF80
00FFFF00
003FFC00
00038000
00038000
0003E000
0000F000
00007800
00187800
003C7800
003FF000
001FE000
00038000
ENDCHAR
STARTCHAR 00C8
ENCODING 200
SWIDTH 696 0
DWIDTH 29 0
BBX 23 44 4 0
BITMAP
038000
03C000
03E000
01F000
00F000
007800
003800
001000
000000
000000
000000
7FFFFC
FFFFFE
FFFFFE
FFFFFC
E00000
E00000
E00000
E00000
E00000
E00000
E00000
E00000
E00000
E00000
E00000
FFFFC0
FFFFC0
FFFFC0
E00000
E00000
E00000
E00000
E00000
E00000
E00000
E00000
E00000
E00000
E00000
E00000
FFFFFE
FFFFFE
7FFFFE
ENDCHAR
STARTCHAR 00C9
ENCODING 201
SWIDTH 696 0
DWIDTH 29 0
BBX 23 44 4 0
BITMAP
000180
0003C0
0007C0
000F80
001F00
003E00
003C00
003800
000000
000000
000000
7FFFFC
FFFFFE
FFFFFE
FFFFFC
E00000
E00000
E00000
E00000
E00000
E00000
E00000
E00000
E00000
E00000
E00000
FFFFC0
FFFFC0
FFFFC0
E00000
E00000
E00000
E00000
E00000
E00000
E00000
E00000
E00000
E00000
E00000
E00000
FFFFFE
FFFFFE
7FFFFE
ENDCHAR
STARTCHAR 00CA
ENCODING 202
SWIDTH 696 0
DWIDTH 29 0
BBX 23 42 4 1
BITMAP
003C00
00FE00
01FF80
03E7C0
0783C0
0300C0
000000
000000
000000
7FFFFC
FFFFFE
FFFFFE
FFFFFC
E00000
E00000
E00000
E00000
E00000
E00000
E00000
E00000
E00000
E00000
E00000
FFFFC0
FFFFC0
FFFFC0
E00000
E00000
E00000
E00000
E00000
E00000
E00000
E00000
E00000
E00000
E00000
E00000
FFFFFE
FFFFFE
7FFFFE
ENDCHAR
STARTCHAR 00CB
ENCODING 203
SWIDTH 696 0
DWIDTH 29 0
BBX 23 41 4 0
BITMAP
0383C0
07C3C0
07C3C0
0383C0
000000
000000
000000
000000
7FFFFC
FFFFFE
FFFFFE
FFFFFC
E00000
E00000
E00000
E00000
E00000
E00000
E00000
E00000
E00000
E00000
E00000
FFFFC0
FFFFC0
FFFFC0
E00000
E00000
E00000
E00000
E00000
E00000
E00000
E00000
E00000
E00000
E00000
E00000
FFFFFE
FFFFFE
7FFFFE
ENDCHAR
STARTCHAR 00CC
ENCODING 204
SWIDTH 288 0
DWIDTH 12 0
BBX 7 44 0 0
BITMAP
C0
E0
F0
78
3C
1E
0E
04
00
00
00
04
0E
0E
0E
0E
0E
0E
0E
0E
0E
0E
0E
0E
0E
0E
0E
0E
0E
0E
0E
0E
0E
0E
0E
0E
0E
0E
0E
0E
0E
0E
0E
06
ENDCHAR
STARTCHAR 00CD
ENCODING 205
SWIDTH 288 0
DWIDTH 12 0
BBX 8 44 4 0
BITMAP
06
0F
1F
3E
7C
F8
F0
E0
00
00
00
40
E0
E0
E0
E0
E0
E0
E0
E0
E0
E0
E0
E0
E0
E0
E0
E0
E0
E0
E0
E0
E0
E0
E0
E0
E0
E0
E0
E0
E0
E0
E0
60
ENDCHAR
STARTCHAR 00CE
ENCODING 206
SWIDTH 288 0
DWIDTH 12 0
BBX 13 42 -1 1
BITMAP
0780
1FC0
3FF0
7CF8
F078
6018
0000
0000
0000
0200
0700
0700
0700
0700
0700
0700
0700
0700
0700
0700
0700
0700
0700
0700
0700
0700
0700
0700
0700
0700
0700
0700
0700
0700
0700
0700
0700
0700
0700
0700
0700
0300
ENDCHAR
STARTCHAR 00CF
ENCODING 207
SWIDTH 288 0
DWIDTH 12 0
BBX 13 41 -1 0
BITMAP
7078
F878
F878
7078
0000
0000
0000
0000
0200
0700
0700
0700
0700
0700
0700
0700
0700
0700
0700
0700
0700
0700
0700
0700
0700
0700
0700
0700
0700
0700
0700
0700
0700
0700
0700
0700
0700
0700
0700
0700
0300
ENDCHAR
STARTCHAR 00D0
ENCODING 208
SWIDTH 768 0
DWIDTH 32 0
BBX 30 33 0 0
BITMAP
07FC0000
0FFFE000
0FFFFC00
0E01FE00
0E001F00
0E000780
0E0003C0
0E0001E0
0E0000F0
0E0000F0
0E000070
0E000078
0E000038
0E000038
0E000038
7FFC0038
FFFE003C
FFFE003C
0E000038
0E000038
0E000038
0E000038
0E000078
0E000070
0E0000F0
0E0001E0
0E0003E0
0E0007C0
0E000F80
0E007F00
0FFFFC00
0FFFF800
07FFC000
ENDCHAR
STARTCHAR 00D1
ENCODING 209
SWIDTH 816 0
DWIDTH 34 0
BBX 26 41 4 0
BITMAP
00780000
01FE0C00
03FFFC00
0387FC00
0301F000
00000000
00000000
00000000
40000080
E00001C0
F00001C0
F80001C0
FC0001C0
FC0001C0
EE0001C0
EF0001C0
E78001C0
E38001C0
E1C001C0
E1E001C0
E0F001C0
E07801C0
E03801C0
E03C01C0
E01E01C0
E00F01C0
E00701C0
E00781C0
E003C1C0
E001E1C0
E000E1C0
E00071C0
E00079C0
E0003DC0
E0001DC0
E0000FC0
E0000FC0
E00007C0
E00003C0
E00001C0
600001C0
ENDCHAR
STARTCHAR 00D2
ENCODING 210
SWIDTH 912 0
DWIDTH 38 0
BBX 33 44 3 0
BITMAP
0038000000
003C000000
003E000000
001F000000
000F800000
0007C00000
0003C00000
0000800000
0000000000
0000000000
0000000000
000FF00000
007FFE0000
01FFFF8000
03F81FE000
07C003F000
0F0000F800
1E00007C00
3C00003C00
3800001E00
7800000E00
7000000F00
F000000700
E000000700
E000000780
E000000780
E000000380
E000000380
E000000380
E000000780
E000000780
E000000700
F000000700
F000000F00
7000000F00
7800001E00
3C00001E00
3E00003C00
1F00007800
0F8001F000
07E007E000
03FFFFC000
00FFFF0000
003FFC0000
ENDCHAR
STARTCHAR 00D3
ENCODING 211
SWIDTH 912 0
DWIDTH 38 0
BBX 33 44 3 0
BITMAP
0000080000
00003C0000
00007C0000
0000F80000
0001F00000
0001E00000
0003C00000
0001800000
0000000000
0000000000
0000000000
000FF00000
007FFE0000
01FFFF8000
03F81FE000
07C003F000
0F0000F800
1E00007C00
3C00003C00
3800001E00
7800000E00
7000000F00
F000000700
E000000700
E000000780
E000000780
E000000380
E000000380
E000000380
E000000780
E000000780
E000000700
F000000700
F000000F00
7000000F00
7800001E00
3C00001E00
3E00003C00
1F00007800
0F8001F000
07E007E000
03FFFFC000
00FFFF0000
003FFC0000
ENDCHAR
STARTCHAR 00D4
ENCODING 212
SWIDTH 912 0
DWIDTH 38 0
BBX 33 42 3 1
BITMAP
0003C00000
0007F00000
001FF80000
003E7C0000
003C1E0000
00300C0000
0000000000
0000000000
0000000000
000FF00000
007FFE0000
01FFFF8000
03F81FE000
07C003F000
0F0000F800
1E00007C00
3C00003C00
3800001E00
7800000E00
7000000F00
F000000700
E000000700
E000000780
E000000780
E000000380
E000000380
E000000380
E000000780
E000000780
E000000700
F000000700
F000000F00
7000000F00
7800001E00
3C00001E00
3E00003C00
1F00007800
0F8001F000
07E007E000
03FFFFC000
00FFFF0000
003FFC0000
ENDCHAR
STARTCHAR 00D5
ENCODING 213
SWIDTH 912 0
DWIDTH 38 0
BBX 33 41 3 0
BITMAP
000F000000
003FC18000
007FFF8000
0070FF8000
00603E0000
0000000000
0000000000
0000000000
000FF00000
007FFE0000
01FFFF8000
03F81FE000
07C003F000
0F0000F800
1E00007C00
3C00003C00
3800001E00
7800000E00
7000000F00
F000000700
E000000700
E000000780
E000000780
E000000380
E000000380
E000000380
E000000780
E000000780
E000000700
F000000700
F000000F00
7000000F00
7800001E00
3C00001E00
3E00003C00
1F00007800
0F8001F000
07E007E000
03FFFFC000
00FFFF0000
003FFC0000
ENDCHAR
STARTCHAR 00D6
ENCODING 214
SWIDTH 912 0
DWIDTH 38 0
BBX 33 41 3 0
BITMAP
003C1C0000
003C3E0000
003C3E0000
003C1C0000
0000000000
0000000000
0000000000
0000000000
000FF00000
007FFE0000
01FFFF8000
03F81FE000
07C003F000
0F0000F800
1E00007C00
3C00003C00
3800001E00
7800000E00
7000000F00
F000000700
E000000700
E000000780
E000000780
E000000380
E000000380
E000000380
E000000780
E000000780
E000000700
F000000700
F000000F00
7000000F00
7800001E00
3C00001E00
3E00003C00
1F00007800
0F8001F000
07E007E000
03FFFFC000
00FFFF0000
003FFC0000
ENDCHAR
STARTCHAR 00D7
ENCODING 215
SWIDTH 480 0
DWIDTH 20 0
BBX 16 17 2 6
BITMAP
4002
E00F
F01F
783E
3C7C
1EF8
0FF0
07E0
07C0
0FE0
1FF0
3E78
7C3C
F81E
F00F
E007
4002
ENDCHAR
STARTCHAR 00D8
ENCODING 216
SWIDTH 888 0
DWIDTH 37 0
BBX 34 33 2 0
BITMAP
0007F80080
003FFF01C0
00FFFFC380
01FC0FF700
03E001FE00
0780007C00
0F00007E00
1E0000FE00
1C0001EF00
3C0003C700
3800078780
78000F0380
70001E0380
70003C03C0
70007803C0
7000F001C0
7001E001C0
7003C001C0
70078003C0
700F0003C0
701E000380
783C000380
7878000780
38F0000780
3DE0000F00
1FC0000F00
1F80001E00
0F80003C00
1FC000F800
3FF003F000
79FFFFE000
F07FFF8000
601FFE0000
ENDCHAR
STARTCHAR 00D9
ENCODING 217
SWIDTH 816 0
DWIDTH 34 0
BBX 26 45 4 -1
BITMAP
01C00000
01E00000
01F00000
00F80000
007C0000
003E0000
001E0000
000C0000
00000000
00000000
00000000
40000080
E00001C0
E00001C0
E00001C0
E00001C0
E00001C0
E00001C0
E00001C0
E00001C0
E00001C0
E00001C0
E00001C0
E00001C0
E00001C0
E00001C0
E00001C0
E00001C0
E00001C0
E00001C0
E00001C0
E00001C0
E00001C0
E00001C0
E00001C0
F00003C0
70000380
78000780
78000780
3C000F00
1F003E00
0FF3FC00
07FFF800
01FFE000
001E0000
ENDCHAR
STARTCHAR 00DA
ENCODING 218
SWIDTH 816 0
DWIDTH 34 0
BBX 26 45 4 -1
BITMAP
0000C000
0001E000
0003E000
0007C000
000F8000
001F0000
001E0000
000C0000
00000000
00000000
00000000
40000080
E00001C0
E00001C0
E00001C0
E00001C0
E00001C0
E00001C0
E00001C0
E00001C0
E00001C0
E00001C0
E00001C0
E00001C0
E00001C0
E00001C0
E00001C0
E00001C0
E00001C0
E00001C0
E00001C0
E00001C0
E00001C0
E00001C0
E00001C0
F00003C0
70000380
78000780
78000780
3C000F00
1F003E00
0FF3FC00
07FFF800
01FFE000
001E0000
ENDCHAR
STARTCHAR 00DB
ENCODING 219
SWIDTH 816 0
DWIDTH 34 0
BBX 26 43 4 0
BITMAP
001E0000
003F8000
00FFC000
01F3E000
01E1F000
01806000
00000000
00000000
00000000
40000080
E00001C0
E00001C0
E00001C0
E00001C0
E00001C0
E00001C0
E00001C0
E00001C0
E00001C0
E00001C0
E00001C0
E00001C0
E00001C0
E00001C0
E00001C0
E00001C0
E00001C0
E00001C0
E00001C0
E00001C0
E00001C0
E00001C0
E00001C0
F00003C0
70000380
78000780
78000780
3C000F00
1F003E00
0FF3FC00
07FFF800
01FFE000
001E0000
ENDCHAR
STARTCHAR 00DC
ENCODING 220
SWIDTH 816 0
DWIDTH 34 0
BBX 26 42 4 -1
BITMAP
01C0E000
03E1F000
03E1F000
01C0E000
00000000
00000000
00000000
00000000
40000080
E00001C0
E00001C0
E00001C0
E00001C0
E00001C0
E00001C0
E00001C0
E00001C0
E00001C0
E00001C0
E00001C0
E00001C0
E00001C0
E00001C0
E00001C0
E00001C0
E00001C0
E00001C0
E00001C0
E00001C0
E00001C0
E00001C0
E00001C0
F00003C0
70000380
78000780
78000780
3C000F00
1F003E00
0FF3FC00
07FFF800
01FFE000
001E0000
ENDCHAR
STARTCHAR 00DD
ENCODING 221
SWIDTH 648 0
DWIDTH 27 0
BBX 27 44 0 0
BITMAP
00006000
0000E000
0001E000
0003C000
00078000
000F0000
000E0000
000C0000
00000000
00000000
00000000
00000040
E00000E0
F00001E0
780001C0
780003C0
3C000780
1C000700
1E000F00
0F001E00
07001C00
07803C00
03C03800
01C07000
01E0F000
00E0E000
00F1E000
007BC000
003B8000
003F8000
001F0000
000E0000
000E0000
000E0000
000E0000
000E0000
000E0000
000E0000
000E0000
000E0000
000E0000
000E0000
000E0000
000E0000
ENDCHAR
STARTCHAR 00DE
ENCODING 222
SWIDTH 624 0
DWIDTH 26 0
BBX 21 33 4 0
BITMAP
400000
E00000
E00000
E00000
E00000
E00000
FFF800
FFFF00
FFFF80
E007C0
E001E0
E000F0
E00070
E00070
E00078
E00078
E00078
E00070
E00070
E000F0
E001E0
E003E0
FFFFC0
FFFF80
FFFE00
E00000
E00000
E00000
E00000
E00000
E00000
E00000
600000
ENDCHAR
STARTCHAR 00DF
ENCODING 223
SWIDTH 552 0
DWIDTH 23 0
BBX 19 32 2 0
BITMAP
07F800
1FFC00
3FFE00
7C0F00
780700
F00380
F00380
E00380
E00380
E00700
E00700
E00E00
E01C00
E03800
E03800
E03800
E03C00
E01E00
E00F00
E00780
E003C0
E001C0
E001E0
E000E0
E000E0
E000E0
E000E0
E200E0
E783C0
E7FFC0
E3FF80
60FE00
ENDCHAR
STARTCHAR 00E0
ENCODING 224
SWIDTH 672 0
DWIDTH 28 0
BBX 23 34 3 0
BITMAP
070000
078000
07C000
03E000
01F000
00F800
007800
000000
000000
000000
000000
00FE00
07FF80
0FFFC0
1F03F0
3C00F0
780078
70003C
F0001C
E0001C
E0001E
E0001E
E0000E
E0001E
E0001E
E0001E
F0001E
F0003E
78007E
3C00FE
3E01FE
1FFFDE
07FF9E
01FE0C
ENDCHAR
STARTCHAR 00E1
ENCODING 225
SWIDTH 672 0
DWIDTH 28 0
BBX 23 34 3 0
BITMAP
000380
000780
000F80
001F00
003E00
007C00
007800
002000
000000
000000
000000
00FE00
07FF80
0FFFC0
1F03F0
3C00F0
780078
70003C
F0001C
E0001C
E0001E
E0001E
E0000E
E0001E
E0001E
E0001E
F0001E
F0003E
78007E
3C00FE
3E01FE
1FFFDE
07FF9E
01FE0C
ENDCHAR
STARTCHAR 00E2
ENCODING 226
SWIDTH 672 0
DWIDTH 28 0
BBX 23 33 3 0
BITMAP
003000
007C00
01FE00
03FF80
07CF80
0703C0
020000
000000
000000
000000
00FE00
07FF80
0FFFC0
1F03F0
3C00F0
780078
70003C
F0001C
E0001C
E0001E
E0001E
E0000E
E0001E
E0001E
E0001E
F0001E
F0003E
78007E
3C00FE
3E01FE
1FFFDE
07FF9E
01FE0C
ENDCHAR
STARTCHAR 00E3
ENCODING 227
SWIDTH 672 0
DWIDTH 28 0
BBX 23 31 3 0
BITMAP
03F000
07FC70
0FFFF0
1E1FE0
0C03C0
000000
000000
000000
00FE00
07FF80
0FFFC0
1F03F0
3C00F0
780078
70003C
F0001C
E0001C
E0001E
E0001E
E0000E
E0001E
E0001E
E0001E
F0001E
F0003E
78007E
3C00FE
3E01FE
1FFFDE
07FF9E
01FE0C
ENDCHAR
STARTCHAR 00E4
ENCODING 228
SWIDTH 672 0
DWIDTH 28 0
BBX 23 32 3 0
BITMAP
020100
078380
0787C0
0787C0
070380
000000
000000
000000
000000
00FE00
07FF80
0FFFC0
1F03F0
3C00F0
780078
70003C
F0001C
E0001C
E0001E
E0001E
E0000E
E0001E
E0001E
E0001E
F0001E
F0003E
78007E
3C00FE
3E01FE
1FFFDE
07FF9E
01FE0C
ENDCHAR
STARTCHAR 00E5
ENCODING 229
SWIDTH 672 0
DWIDTH 28 0
BBX 23 33 3 0
BITMAP
007800
00FC00
01CE00
018600
018600
018600
00FE00
007C00
000000
000000
00FE00
07FF80
0FFFC0
1F03F0
3C00F0
780078
70003C
F0001C
E0001C
E0001E
E0001E
E0000E
E0001E
E0001E
E0001E
F0001E
F0003E
78007E
3C00FE
3E01FE
1FFFDE
07FF9E
01FE0C
ENDCHAR
STARTCHAR 00E6
ENCODING 230
SWIDTH 1104 0
DWIDTH 46 0
BBX 41 23 3 0
BITMAP
00FE001FC000
07FF807FF000
0FFFC0FFF800
1F03F1E03C00
3C00F3C01E00
78007F800F00
70003F000700
F0001E000700
E0001E000380
E0001E000380
E0001FFFFF80
E0000FFFFF80
E0001FFFFF00
E0001E000000
E0001E000000
F0001E000000
F0003F000000
78007F800000
3C00FFC00600
3E01FFE01E00
1FFFDEFFFE00
07FF9E7FF800
01FE0C1FE000
ENDCHAR
STARTCHAR 00E7
ENCODING 231
SWIDTH 600 0
DWIDTH 25 0
BBX 19 33 3 -10
BITMAP
01FC00
07FF00
1FFF80
3F03E0
3C01E0
7800E0
700000
E00000
E00000
E00000
E00000
E00000
E00000
E00000
E00000
E00000
F00000
780000
3C00C0
3E01E0
1FFFC0
07FF80
01FE00
007000
00F000
00FC00
003E00
000E00
060F00
070E00
07FE00
03FC00
00E000
ENDCHAR
STARTCHAR 00E8
ENCODING 232
SWIDTH 624 0
DWIDTH 26 0
BBX 21 34 3 0
BITMAP
0E0000
0F0000
078000
03C000
01E000
00F000
007000
002000
000000
000000
000000
01FC00
07FF00
1FFF80
3E03C0
3C01E0
7800F0
F00070
E00070
E00038
E00038
FFFFF8
FFFFF8
FFFFF0
E00000
E00000
E00000
F00000
780000
3C0060
3E01E0
1FFFE0
07FF80
01FE00
ENDCHAR
STARTCHAR 00E9
ENCODING 233
SWIDTH 624 0
DWIDTH 26 0
BBX 21 34 3 0
BITMAP
000700
000F00
001F00
003E00
007C00
00F800
00F000
006000
000000
000000
000000
01FC00
07FF00
1FFF80
3E03C0
3C01E0
7800F0
F00070
E00070
E00038
E00038
FFFFF8
FFFFF8
FFFFF0
E00000
E00000
E00000
F00000
780000
3C0060
3E01E0
1FFFE0
07FF80
01FE00
ENDCHAR
STARTCHAR 00EA
ENCODING 234
SWIDTH 624 0
DWIDTH 26 0
BBX 21 33 3 0
BITMAP
006000
00F800
03FC00
07FF00
0F8F80
0F0780
040000
000000
000000
000000
01FC00
07FF00
1FFF80
3E03C0
3C01E0
7800F0
F00070
E00070
E00038
E00038
FFFFF8
FFFFF8
FFFFF0
E00000
E00000
E00000
F00000
780000
3C0060
3E01E0
1FFFE0
07FF80
01FE00
ENDCHAR
STARTCHAR 00EB
ENCODING 235
SWIDTH 624 0
DWIDTH 26 0
BBX 21 32 3 0
BITMAP
000200
0F0700
0F0F80
0F0F80
0E0700
000000
000000
000000
000000
01FC00
07FF00
1FFF80
3E03C0
3C01E0
7800F0
F00070
E00070
E00038
E00038
FFFFF8
FFFFF8
FFFFF0
E00000
E00000
E00000
F00000
780000
3C0060
3E01E0
1FFFE0
07FF80
01FE00
ENDCHAR
STARTCHAR 00EC
ENCODING 236
SWIDTH 288 0
DWIDTH 12 0
BBX 8 34 0 0
BITMAP
E0
F0
F8
7C
3E
1F
0E
00
00
00
00
06
0F
0F
0F
0F
0F
0F
0F
0F
0F
0F
0F
0F
0F
0F
0F
0F
0F
0F
0F
0F
0F
06
ENDCHAR
STARTCHAR 00ED
ENCODING 237
SWIDTH 288 0
DWIDTH 12 0
BBX 8 34 4 0
BITMAP
07
0F
1F
3E
7C
F8
F0
40
00
00
00
60
F0
F0
F0
F0
F0
F0
F0
F0
F0
F0
F0
F0
F0
F0
F0
F0
F0
F0
F0
F0
F0
60
ENDCHAR
STARTCHAR 00EE
ENCODING 238
SWIDTH 288 0
DWIDTH 12 0
BBX 12 33 0 0
BITMAP
0600
0F00
1FC0
7FE0
F9F0
F070
4020
0000
0000
0000
0600
0F00
0F00
0F00
0F00
0F00
0F00
0F00
0F00
0F00
0F00
0F00
0F00
0F00
0F00
0F00
0F00
0F00
0F00
0F00
0F00
0F00
0600
ENDCHAR
STARTCHAR 00EF
ENCODING 239
SWIDTH 288 0
DWIDTH 12 0
BBX 12 32 0 1
BITMAP
F0F0
F0F0
F0F0
F0E0
0000
0000
0000
0000
0000
0600
0F00
0F00
0F00
0F00
0F00
0F00
0F00
0F00
0F00
0F00
0F00
0F00
0F00
0F00
0F00
0F00
0F00
0F00
0F00
0F00
0F00
0600
ENDCHAR
STARTCHAR 00F0
ENCODING 240
SWIDTH 672 0
DWIDTH 28 0
BBX 22 35 3 0
BITMAP
001800
003800
073800
07F000
03F800
00FE00
00FF00
01C780
01C1C0
0180E0
000070
000070
000038
006038
07FE18
0FFF98
3F8FDC
3C01DC
7800FC
F0007C
E0003C
E0003C
E0001C
E0001C
E0001C
E0001C
E0003C
E00038
F00038
700070
7800F0
3E03E0
1FFFC0
0FFF80
03FE00
ENDCHAR
STARTCHAR 00F1
ENCODING 241
SWIDTH 672 0
DWIDTH 28 0
BBX 21 31 4 0
BITMAP
07E000
0FF8E0
1FFFE0
3C3FC0
180780
000000
000000
000000
41FC00
E7FF00
EFFFC0
FE07E0
F801E0
F000F0
F00070
E00078
E00078
E00038
E00038
E00038
E00038
E00038
E00038
E00038
E00038
E00038
E00038
E00038
E00038
E00038
E00030
ENDCHAR
STARTCHAR 00F2
ENCODING 242
SWIDTH 672 0
DWIDTH 28 0
BBX 23 34 3 0
BITMAP
070000
078000
07C000
03E000
01F000
00F800
007800
000000
000000
000000
000000
00FE00
07FF80
0FFFC0
1F03F0
3C00F0
780078
70003C
F0001C
E0001C
E0001E
E0001E
E0000E
E0001E
E0001E
E0001C
E0001C
F0003C
780078
3C00F8
3E01F0
1FFFE0
07FF80
01FE00
ENDCHAR
STARTCHAR 00F3
ENCODING 243
SWIDTH 672 0
DWIDTH 28 0
BBX 23 34 3 0
BITMAP
000380
000780
000F80
001F00
003E00
007C00
007800
002000
000000
000000
000000
00FE00
07FF80
0FFFC0
1F03F0
3C00F0
780078
70003C
F0001C
E0001C
E0001E
E0001E
E0000E
E0001E
E0001E
E0001C
E0001C
F0003C
780078
3C00F8
3E01F0
1FFFE0
07FF80
01FE00
ENDCHAR
STARTCHAR 00F4
ENCODING 244
SWIDTH 672 0
DWIDTH 28 0
BBX 23 33 3 0
BITMAP
003000
007C00
01FE00
03FF80
07CF80
0703C0
020000
000000
000000
000000
00FE00
07FF80
0FFFC0
1F03F0
3C00F0
780078
70003C
F0001C
E0001C
E0001E
E0001E
E0000E
E0001E
E0001E
E0001C
E0001C
F0003C
780078
3C00F8
3E01F0
1FFFE0
07FF80
01FE00
ENDCHAR
STARTCHAR 00F5
ENCODING 245
SWIDTH 672 0
DWIDTH 28 0
BBX 23 31 3 0
BITMAP
03F000
07FC70
0FFFF0
1E1FE0
0C03C0
000000
000000
000000
00FE00
07FF80
0FFFC0
1F03F0
3C00F0
780078
70003C
F0001C
E0001C
E0001E
E0001E
E0000E
E0001E
E0001E
E0001C
E0001C
F0003C
780078
3C00F8
3E01F0
1FFFE0
07FF80
01FE00
ENDCHAR
STARTCHAR 00F6
ENCODING 246
SWIDTH 672 0
DWIDTH 28 0
BBX 23 32 3 0
BITMAP
020100
078380
0787C0
0787C0
070380
000000
000000
000000
000000
00FE00
07FF80
0FFFC0
1F03F0
3C00F0
780078
70003C
F0001C
E0001C
E0001E
E0001E
E0000E
E0001E
E0001E
E0001C
E0001C
F0003C
780078
3C00F8
3E01F0
1FFFE0
07FF80
01FE00
ENDCHAR
STARTCHAR 00F7
ENCODING 247
SWIDTH 480 0
DWIDTH 20 0
BBX 16 16 2 6
BITMAP
0180
03C0
03C0
0380
0000
0000
0000
FFFF
FFFF
FFFE
0000
0000
0100
03C0
03C0
0380
ENDCHAR
STARTCHAR 00F8
ENCODING 248
SWIDTH 696 0
DWIDTH 29 0
BBX 24 24 3 -1
BITMAP
007E02
03FFCF
0FFFFE
1F81FC
1E0078
3C00FC
7801FC
7003DE
70078E
F00F0E
E01E0E
E03C0E
E0780E
F0F00E
71E00E
73C01E
7F801C
3F003C
3E0078
3F00F8
7FFFF0
F7FFC0
E1FF00
C00000
ENDCHAR
STARTCHAR 00F9
ENCODING 249
SWIDTH 672 0
DWIDTH 28 0
BBX 21 34 3 0
BITMAP
070000
078000
07C000
03E000
01F000
00F800
007800
000000
000000
000000
000000
600018
F00038
F00038
F00038
F00038
F00038
F00038
F00038
F00038
F00038
F00038
F00038
F00038
F00038
F00038
700038
700038
780078
3C00F8
3E03F8
1FFFF8
07FFB8
03FE18
ENDCHAR
STARTCHAR 00FA
ENCODING 250
SWIDTH 672 0
DWIDTH 28 0
BBX 21 34 3 0
BITMAP
000380
000780
000F80
001F00
003E00
007C00
007800
002000
000000
000000
000000
600018
F00038
F00038
F00038
F00038
F00038
F00038
F00038
F00038
F00038
F00038
F00038
F00038
F00038
F00038
700038
700038
780078
3C00F8
3E03F8
1FFFF8
07FFB8
03FE18
ENDCHAR
STARTCHAR 00FB
ENCODING 251
SWIDTH 672 0
DWIDTH 28 0
BBX 21 33 3 0
BITMAP
003000
007C00
01FE00
03FF80
07CF80
0703C0
020000
000000
000000
000000
600018
F00038
F00038
F00038
F00038
F00038
F00038
F00038
F00038
F00038
F00038
F00038
F00038
F00038
F00038
700038
700038
780078
3C00F8
3E03F8
1FFFF8
07FFB8
03FE18
ENDCHAR
STARTCHAR 00FC
ENCODING 252
SWIDTH 672 0
DWIDTH 28 0
BBX 21 32 3 0
BITMAP
020100
078380
0F87C0
0787C0
070380
000000
000000
000000
000000
600018
F00038
F00038
F00038
F00038
F00038
F00038
F00038
F00038
F00038
F00038
F00038
F00038
F00038
F00038
700038
700038
780078
3C00F8
3E03F8
1FFFF8
07FFB8
03FE18
ENDCHAR
STARTCHAR 00FD
ENCODING 253
SWIDTH 552 0
DWIDTH 23 0
BBX 22 44 1 -10
BITMAP
000300
000780
000F00
001E00
003C00
007800
007000
002000
000000
000000
000000
C00018
E0003C
E00038
F00078
700070
780070
3800E0
3C00E0
1C01E0
1E01C0
0E03C0
0F0380
070780
078700
038F00
03CE00
01CE00
01FC00
00FC00
00FC00
007800
007800
007000
00F000
00E000
00E000
01C000
01C000
038000
038000
078000
070000
070000
ENDCHAR
STARTCHAR 00FE
ENCODING 254
SWIDTH 696 0
DWIDTH 29 0
BBX 23 43 4 -10
BITMAP
400000
E00000
E00000
E00000
E00000
E00000
E00000
E00000
E00000
E00000
E0FE00
E3FF80
E7FFE0
EF03F0
FC00F8
F80078
F0003C
F0001C
E0001E
E0000E
E0000E
E0000E
E0000E
E0000E
E0001E
F0001C
F0003C
F8003C
FC0078
EF01F0
E7FFE0
E3FFC0
E0FF00
E00000
E00000
E00000
E00000
E00000
E00000
E00000
E00000
E00000
400000
ENDCHAR
STARTCHAR 00FF
ENCODING 255
SWIDTH 552 0
DWIDTH 23 0
BBX 22 42 1 -10
BITMAP
020000
0F0780
0F8780
0F0780
070300
000000
000000
000000
000000
C00018
E0003C
E00038
F00078
700070
780070
3800E0
3C00E0
1C01E0
1E01C0
0E03C0
0F0380
070780
078700
038F00
03CE00
01CE00
01FC00
00FC00
00FC00
007800
007800
007000
00F000
00E000
00E000
01C000
01C000
038000
038000
078000
070000
070000
ENDCHAR
STARTCHAR 0100
ENCODING 256
SWIDTH 696 0
DWIDTH 29 0
BBX 28 40 1 0
BITMAP
01FFF000
01FFF800
01FFF000
00000000
00000000
00000000
00000000
00000000
000E0000
000F0000
001F0000
001F8000
001F8000
003B8000
003BC000
0079C000
0071E000
00F0E000
00E0E000
00E07000
01E07000
01C07800
03C03800
03803C00
07801C00
07001C00
07001E00
0F000E00
0E000F00
1FFFFF00
1FFFFF80
1FFFFF80
3C000380
380003C0
780001C0
700001E0
F00000E0
E00000E0
E00000F0
E0000060
ENDCHAR
STARTCHAR 0101
ENCODING 257
SWIDTH 672 0
DWIDTH 28 0
BBX 23 30 3 0
BITMAP
0FFFC0
0FFFC0
07FF80
000000
000000
000000
000000
00FE00
07FF80
0FFFC0
1F03F0
3C00F0
780078
70003C
F0001C
E0001C
E0001E
E0001E
E0000E
E0001E
E0001E
E0001E
F0001E
F0003E
78007E
3C00FE
3E01FE
1FFFDE
07FF9E
01FE0C
ENDCHAR
STARTCHAR 0102
ENCODING 258
SWIDTH 696 0
DWIDTH 29 0
BBX 28 42 1 1
BITMAP
01C07000
01C07000
01E0F000
00FFE000
007FC000
001F8000
00000000
00000000
00000000
00000000
000E0000
000F0000
001F0000
001F8000
001F8000
003B8000
003BC000
0079C000
0071E000
00F0E000
00E0E000
00E07000
01E07000
01C07800
03C03800
03803C00
07801C00
07001C00
07001E00
0F000E00
0E000F00
1FFFFF00
1FFFFF80
1FFFFF80
3C000380
380003C0
780001C0
700001E0
F00000E0
E00000E0
E00000F0
E0000060
ENDCHAR
STARTCHAR 0103
ENCODING 259
SWIDTH 672 0
DWIDTH 28 0
BBX 23 33 3 0
BITMAP
060180
0701C0
0703C0
078780
03FF80
01FE00
003800
000000
000000
000000
00FE00
07FF80
0FFFC0
1F03F0
3C00F0
780078
70003C
F0001C
E0001C
E0001E
E0001E
E0000E
E0001E
E0001E
E0001E
F0001E
F0003E
78007E
3C00FE
3E01FE
1FFFDE
07FF9E
01FE0C
ENDCHAR
STARTCHAR 0104
ENCODING 260
SWIDTH 696 0
DWIDTH 29 0
BBX 31 42 1 -9
BITMAP
000E0000
000F0000
001F0000
001F8000
001F8000
003B8000
003BC000
0079C000
0071E000
00F0E000
00E0E000
00E07000
01E07000
01C07800
03C03800
03803C00
07801C00
07001C00
07001E00
0F000E00
0E000F00
1FFFFF00
1FFFFF80
1FFFFF80
3C000380
380003C0
780001C0
700001E0
F00000E0
E00000E0
E00000F0
E0000060
000000F0
000001E0
000003C0
00000780
00000700
0000070C
000007DE
000003FE
000001FC
000000F0
ENDCHAR
STARTCHAR 0105
ENCODING 261
SWIDTH 672 0
DWIDTH 28 0
BBX 27 34 3 -11
BITMAP
00FE0000
07FF8000
0FFFC000
1F03F000
3C00F000
78007800
70003C00
F0001C00
E0001C00
E0001E00
E0001E00
E0000E00
E0001E00
E0001E00
E0001E00
F0001E00
F0003E00
78007E00
3C00FE00
3E01FE00
1FFFDE00
07FF9E00
01FE0C00
00000700
00000F00
00001F00
00003E00
00003C00
00003800
00003860
00003DE0
00003FE0
00001FC0
00000F00
ENDCHAR
STARTCHAR 0106
ENCODING 262
SWIDTH 768 0
DWIDTH 32 0
BBX 26 44 3 0
BITMAP
00001800
00003800
00007800
0000F000
0001E000
0003C000
00038000
00030000
00000000
00000000
00000000
000FF000
007FFE00
01FFFF00
03F81FC0
07C003C0
0F8001C0
1E000000
3C000000
38000000
78000000
70000000
F0000000
E0000000
E0000000
E0000000
E0000000
E0000000
E0000000
E0000000
E0000000
E0000000
F0000000
70000000
78000000
78000000
3C000000
1E000000
1F0000C0
0F8003C0
07E00FC0
01FFFF80
00FFFF00
003FFC00
ENDCHAR
STARTCHAR 0107
ENCODING 263
SWIDTH 600 0
DWIDTH 25 0
BBX 19 34 3 0
BITMAP
000700
000F00
001F00
003E00
007C00
007800
007000
002000
000000
000000
000000
01FC00
07FF00
1FFF80
3F03E0
3C01E0
7800E0
700000
E00000
E00000
E00000
E00000
E00000
E00000
E00000
E00000
E00000
F00000
780000
3C00C0
3E01E0
1FFFC0
07FF80
01FE00
ENDCHAR
STARTCHAR 0108
ENCODING 264
SWIDTH 768 0
DWIDTH 32 0
BBX 26 43 3 0
BITMAP
00010000
0003C000
000FE000
001FF800
007E7C00
00783C00
00301800
00000000
00000000
00000000
000FF000
007FFE00
01FFFF00
03F81FC0
07C003C0
0F8001C0
1E000000
3C000000
38000000
78000000
70000000
F0000000
E0000000
E0000000
E0000000
E0000000
E0000000
E0000000
E0000000
E0000000
E0000000
F0000000
70000000
78000000
78000000
3C000000
1E000000
1F0000C0
0F8003C0
07E00FC0
01FFFF80
00FFFF00
003FFC00
ENDCHAR
STARTCHAR 0109
ENCODING 265
SWIDTH 600 0
DWIDTH 25 0
BBX 19 33 3 0
BITMAP
002000
00F800
01FC00
07FF00
0F8F80
0F0780
040100
000000
000000
000000
01FC00
07FF00
1FFF80
3F03E0
3C01E0
7800E0
700000
E00000
E00000
E00000
E00000
E00000
E00000
E00000
E00000
E00000
F00000
780000
3C00C0
3E01E0
1FFFC0
07FF80
01FE00
ENDCHAR
STARTCHAR 010A
ENCODING 266
SWIDTH 768 0
DWIDTH 32 0
BBX 26 41 3 0
BITMAP
00038000
0007C000
0007C000
00038000
00000000
00000000
00000000
00000000
000FF000
007FFE00
01FFFF00
03F81FC0
07C003C0
0F8001C0
1E000000
3C000000
38000000
78000000
70000000
F0000000
E0000000
E0000000
E0000000
E0000000
E0000000
E0000000
E0000000
E0000000
E0000000
F0000000
70000000
78000000
78000000
3C000000
1E000000
1F0000C0
0F8003C0
07E00FC0
01FFFF80
00FFFF00
003FFC00
ENDCHAR
STARTCHAR 010B
ENCODING 267
SWIDTH 600 0
DWIDTH 25 0
BBX 19 32 3 0
BITMAP
002000
00F000
00F800
00F800
007000
000000
000000
000000
000000
01FC00
07FF00
1FFF80
3F03E0
3C01E0
7800E0
700000
E00000
E00000
E00000
E00000
E00000
E00000
E00000
E00000
E00000
F00000
780000
3C00C0
3E01E0
1FFFC0
07FF80
01FE00
ENDCHAR
STARTCHAR 010C
ENCODING 268
SWIDTH 768 0
DWIDTH 32 0
BBX 26 42 3 1
BITMAP
00701C00
007C7C00
003EF800
000FE000
0007C000
00010000
00000000
00000000
00000000
000FF000
007FFE00
01FFFF00
03F81FC0
07C003C0
0F8001C0
1E000000
3C000000
38000000
78000000
70000000
F0000000
E0000000
E0000000
E0000000
E0000000
E0000000
E0000000
E0000000
E0000000
E0000000
F0000000
70000000
78000000
78000000
3C000000
1E000000
1F0000C0
0F8003C0
07E00FC0
01FFFF80
00FFFF00
003FFC00
ENDCHAR
STARTCHAR 010D
ENCODING 269
SWIDTH 600 0
DWIDTH 25 0
BBX 19 33 3 0
BITMAP
040100
0F0780
0F8F80
03FE00
01FC00
007000
000000
000000
000000
000000
01FC00
07FF00
1FFF80
3F03E0
3C01E0
7800E0
700000
E00000
E00000
E00000
E00000
E00000
E00000
E00000
E00000
E00000
F00000
780000
3C00C0
3E01E0
1FFFC0
07FF80
01FE00
ENDCHAR
STARTCHAR 010E
ENCODING 270
SWIDTH 768 0
DWIDTH 32 0
BBX 26 42 4 1
BITMAP
0381E000
03C3C000
01FF8000
00FF0000
003C0000
00080000
00000000
00000000
00000000
7FC00000
FFFE0000
FFFFC000
E01FE000
E001F000
E0007800
E0003C00
E0001E00
E0000F00
E0000F00
E0000700
E0000780
E0000380
E0000380
E0000380
E0000380
E00003C0
E00003C0
E0000380
E0000380
E0000380
E0000380
E0000780
E0000700
E0000F00
E0001E00
E0003E00
E0007C00
E000F800
E007F000
FFFFC000
FFFF8000
7FFC0000
ENDCHAR
STARTCHAR 010F
ENCODING 271
SWIDTH 792 0
DWIDTH 33 0
BBX 30 33 3 0
BITMAP
00000018
00000E3C
00001E3C
00001E3C
00001E1C
00001E1C
00001E1C
00001E38
00001E38
00001E70
01FC1E60
07FF1E00
0FFFDE00
1F03FE00
3C00FE00
78007E00
70003E00
F0001E00
E0001E00
E0001E00
E0001E00
E0000E00
E0001E00
E0001E00
E0001C00
E0001C00
70003C00
78007800
3C00F800
3E01F000
1FFFE000
07FF8000
01FE0000
ENDCHAR
STARTCHAR 0110
ENCODING 272
SWIDTH 768 0
DWIDTH 32 0
BBX 30 33 0 0
BITMAP
07FC0000
0FFFE000
0FFFFC00
0E01FE00
0E001F00
0E000780
0E0003C0
0E0001E0
0E0000F0
0E0000F0
0E000070
0E000078
0E000038
0E000038
0E000038
7FFC0038
FFFE003C
FFFE003C
0E000038
0E000038
0E000038
0E000038
0E000078
0E000070
0E0000F0
0E0001E0
0E0003E0
0E0007C0
0E000F80
0E007F00
0FFFFC00
0FFFF800
07FFC000
ENDCHAR
STARTCHAR 0111
ENCODING 273
SWIDTH 696 0
DWIDTH 29 0
BBX 26 32 3 1
BITMAP
00000E00
00001E00
00001E00
000FFF80
001FFFC0
001FFFC0
00001E00
00001E00
00001E00
01FC1E00
07FF1E00
0FFFDE00
1F03FE00
3C00FE00
78007E00
70003E00
F0001E00
E0001E00
E0001E00
E0001E00
E0000E00
E0001E00
E0001E00
E0001C00
E0001C00
70003C00
78007800
3C00F800
3E01F000
1FFFE000
07FF8000
01FE0000
ENDCHAR
STARTCHAR 0112
ENCODING 274
SWIDTH 696 0
DWIDTH 29 0
BBX 23 40 4 0
BITMAP
07FFE0
07FFE0
07FFC0
000000
000000
000000
000000
7FFFFC
FFFFFE
FFFFFE
FFFFFC
E00000
E00000
E00000
E00000
E00000
E00000
E00000
E00000
E00000
E00000
E00000
FFFFC0
FFFFC0
FFFFC0
E00000
E00000
E00000
E00000
E00000
E00000
E00000
E00000
E00000
E00000
E00000
E00000
FFFFFE
FFFFFE
7FFFFE
ENDCHAR
STARTCHAR 0113
ENCODING 275
SWIDTH 624 0
DWIDTH 26 0
BBX 21 30 3 0
BITMAP
1FFF80
1FFF80
0FFF00
000000
000000
000000
000000
01FC00
07FF00
1FFF80
3E03C0
3C01E0
7800F0
F00070
E00070
E00038
E00038
FFFFF8
FFFFF8
FFFFF0
E00000
E00000
E00000
F00000
780000
3C0060
3E01E0
1FFFE0
07FF80
01FE00
ENDCHAR
STARTCHAR 0114
ENCODING 276
SWIDTH 696 0
DWIDTH 29 0
BBX 23 42 4 1
BITMAP
0701C0
0781C0
0383C0
03FFC0
01FF80
007E00
000000
000000
000000
7FFFFC
FFFFFE
FFFFFE
FFFFFC
E00000
E00000
E00000
E00000
E00000
E00000
E00000
E00000
E00000
E00000
E00000
FFFFC0
FFFFC0
FFFFC0
E00000
E00000
E00000
E00000
E00000
E00000
E00000
E00000
E00000
E00000
E00000
E00000
FFFFFE
FFFFFE
7FFFFE
ENDCHAR
STARTCHAR 0115
ENCODING 277
SWIDTH 624 0
DWIDTH 26 0
BBX 21 33 3 0
BITMAP
040300
0E0380
0E0780
0F0F00
07FF00
03FE00
007000
000000
000000
000000
01FC00
07FF00
1FFF80
3E03C0
3C01E0
7800F0
F00070
E00070
E00038
E00038
FFFFF8
FFFFF8
FFFFF0
E00000
E00000
E00000
F00000
780000
3C0060
3E01E0
1FFFE0
07FF80
01FE00
ENDCHAR
STARTCHAR 0116
ENCODING 278
SWIDTH 696 0
DWIDTH 29 0
BBX 23 41 4 0
BITMAP
003C00
003C00
003C00
003800
000000
000000
000000
000000
7FFFFC
FFFFFE
FFFFFE
FFFFFC
E00000
E00000
E00000
E00000
E00000
E00000
E00000
E00000
E00000
E00000
E00000
FFFFC0
FFFFC0
FFFFC0
E00000
E00000
E00000
E00000
E00000
E00000
E00000
E00000
E00000
E00000
E00000
E00000
FFFFFE
FFFFFE
7FFFFE
ENDCHAR
STARTCHAR 0117
ENCODING 279
SWIDTH 624 0
DWIDTH 26 0
BBX 21 32 3 0
BITMAP
006000
00F000
00F800
00F000
007000
000000
000000
000000
000000
01FC00
07FF00
1FFF80
3E03C0
3C01E0
7800F0
F00070
E00070
E00038
E00038
FFFFF8
FFFFF8
FFFFF0
E00000
E00000
E00000
F00000
780000
3C0060
3E01E0
1FFFE0
07FF80
01FE00
ENDCHAR
STARTCHAR 0118
ENCODING 280
SWIDTH 696 0
DWIDTH 29 0
BBX 27 44 4 -11
BITMAP
7FFFFC00
FFFFFE00
FFFFFE00
FFFFFC00
E0000000
E0000000
E0000000
E0000000
E0000000
E0000000
E0000000
E0000000
E0000000
E0000000
E0000000
FFFFC000
FFFFC000
FFFFC000
E0000000
E0000000
E0000000
E0000000
E0000000
E0000000
E0000000
E0000000
E0000000
E0000000
E0000000
E0000000
FFFFFE00
FFFFFE00
7FFFFE00
00000700
00000F00
00001E00
00003E00
00007800
00007800
000078C0
00007DE0
00003FE0
00001FC0
00000F00
ENDCHAR
STARTCHAR 0119
ENCODING 281
SWIDTH 624 0
DWIDTH 26 0
BBX 21 31 3 -8
BITMAP
01FC00
07FF00
1FFF80
3E03C0
3C01E0
7800F0
F00070
E00070
E00038
E00038
FFFFF8
FFFFF8
FFFFF0
E00000
E00000
E00000
F00000
780000
3C0060
3E01E0
1FFFE0
07FF80
01FE00
003E00
007C00
007800
007000
0079E0
003FE0
003FC0
001F00
ENDCHAR
STARTCHAR 011A
ENCODING 282
SWIDTH 696 0
DWIDTH 29 0
BBX 23 42 4 1
BITMAP
0781C0
03C3C0
01FF80
00FF00
003C00
001000
000000
000000
000000
7FFFFC
FFFFFE
FFFFFE
FFFFFC
E00000
E00000
E00000
E00000
E00000
E00000
E00000
E00000
E00000
E00000
E00000
FFFFC0
FFFFC0
FFFFC0
E00000
E00000
E00000
E00000
E00000
E00000
E00000
E00000
E00000
E00000
E00000
E00000
FFFFFE
FFFFFE
7FFFFE
ENDCHAR
STARTCHAR 011B
ENCODING 283
SWIDTH 624 0
DWIDTH 26 0
BBX 21 33 3 0
BITMAP
0C0100
0E0780
0F8F00
07FE00
01FC00
00F000
000000
000000
000000
000000
01FC00
07FF00
1FFF80
3E03C0
3C01E0
7800F0
F00070
E00070
E00038
E00038
FFFFF8
FFFFF8
FFFFF0
E00000
E00000
E00000
F00000
780000
3C0060
3E01E0
1FFFE0
07FF80
01FE00
ENDCHAR
STARTCHAR 011C
ENCODING 284
SWIDTH 768 0
DWIDTH 32 0
BBX 26 42 3 1
BITMAP
00078000
000FE000
003FF000
007CFC00
00783C00
00601800
00000000
00000000
00000000
000FF000
007FFE00
01FFFF00
03F81FC0
07C003C0
0F8001C0
1E000000
3C000000
38000000
78000000
70000000
F0000000
E0000000
E0000000
E0000000
E0000000
E0000000
E001FFC0
E001FFC0
E000FFC0
E00001C0
F00001C0
700001C0
780001C0
780001C0
3C0001C0
1E0001C0
1F0001C0
0F8003C0
07E00FC0
01FFFF80
00FFFF00
003FFC00
ENDCHAR
STARTCHAR 011D
ENCODING 285
SWIDTH 672 0
DWIDTH 28 0
BBX 23 42 3 -9
BITMAP
003000
007C00
01FE00
03FF80
07CF80
0703C0
020000
000000
000000
000000
01FE00
07FF80
0FFFE0
1F03F0
3C00F0
780078
70003C
F0001C
E0001C
E0001E
E0001E
E0000E
E0001E
E0001E
E0001E
E0001E
F0003E
78007E
7C00EE
3E01EE
1FFFCE
0FFF9E
01FE1C
00001C
00001C
60003C
700078
7C00F0
3F03F0
1FFFC0
07FF80
01FE00
ENDCHAR
STARTCHAR 011E
ENCODING 286
SWIDTH 768 0
DWIDTH 32 0
BBX 26 43 3 0
BITMAP
00200800
00701C00
00701C00
00783C00
003FF800
001FF000
0007C000
00000000
00000000
00000000
000FF000
007FFE00
01FFFF00
03F81FC0
07C003C0
0F8001C0
1E000000
3C000000
38000000
78000000
70000000
F0000000
E0000000
E0000000
E0000000
E0000000
E0000000
E001FFC0
E001FFC0
E000FFC0
E00001C0
F00001C0
700001C0
780001C0
780001C0
3C0001C0
1E0001C0
1F0001C0
0F8003C0
07E00FC0
01FFFF80
00FFFF00
003FFC00
ENDCHAR
STARTCHAR 011F
ENCODING 287
SWIDTH 672 0
DWIDTH 28 0
BBX 23 42 3 -9
BITMAP
060180
0701C0
0703C0
078780
03FF80
01FE00
003800
000000
000000
000000
01FE00
07FF80
0FFFE0
1F03F0
3C00F0
780078
70003C
F0001C
E0001C
E0001E
E0001E
E0000E
E0001E
E0001E
E0001E
E0001E
F0003E
78007E
7C00EE
3E01EE
1FFFCE
0FFF9E
01FE1C
00001C
00001C
60003C
700078
7C00F0
3F03F0
1FFFC0
07FF80
01FE00
ENDCHAR
STARTCHAR 0120
ENCODING 288
SWIDTH 768 0
DWIDTH 32 0
BBX 26 41 3 0
BITMAP
00078000
0007C000
00078000
00038000
00000000
00000000
00000000
00000000
000FF000
007FFE00
01FFFF00
03F81FC0
07C003C0
0F8001C0
1E000000
3C000000
38000000
78000000
70000000
F0000000
E0000000
E0000000
E0000000
E0000000
E0000000
E001FFC0
E001FFC0
E000FFC0
E00001C0
F00001C0
700001C0
780001C0
780001C0
3C0001C0
1E0001C0
1F0001C0
0F8003C0
07E00FC0
01FFFF80
00FFFF00
003FFC00
ENDCHAR
STARTCHAR 0121
ENCODING 289
SWIDTH 672 0
DWIDTH 28 0
BBX 23 41 3 -9
BITMAP
003000
007800
007800
007800
003000
000000
000000
000000
000000
01FE00
07FF80
0FFFE0
1F03F0
3C00F0
780078
70003C
F0001C
E0001C
E0001E
E0001E
E0000E
E0001E
E0001E
E0001E
E0001E
F0003E
78007E
7C00EE
3E01EE
1FFFCE
0FFF9E
01FE1C
00001C
00001C
60003C
700078
7C00F0
3F03F0
1FFFC0
07FF80
01FE00
ENDCHAR
STARTCHAR 0122
ENCODING 290
SWIDTH 768 0
DWIDTH 32 0
BBX 26 43 3 -10
BITMAP
000FF000
007FFE00
01FFFF00
03F81FC0
07C003C0
0F8001C0
1E000000
3C000000
38000000
78000000
70000000
F0000000
E0000000
E0000000
E0000000
E0000000
E0000000
E001FFC0
E001FFC0
E000FFC0
E00001C0
F00001C0
700001C0
780001C0
780001C0
3C0001C0
1E0001C0
1F0001C0
0F8003C0
07E00FC0
01FFFF80
00FFFF00
003FFC00
00000000
00000000
0007C000
0007F000
00007000
00003000
00383000
003EF000
001FE000
0007C000
ENDCHAR
STARTCHAR 0123
ENCODING 291
SWIDTH 672 0
DWIDTH 28 0
BBX 23 47 3 -9
BITMAP
001800
003800
003800
007000
007000
007000
007800
00F800
007C00
007C00
003800
000000
000000
000000
000000
01FE00
07FF80
0FFFE0
1F03F0
3C00F0
780078
70003C
F0001C
E0001C
E0001E
E0001E
E0000E
E0001E
E0001E
E0001E
E0001E
F0003E
78007E
7C00EE
3E01EE
1FFFCE
0FFF9E
01FE1C
00001C
00001C
60003C
700078
7C00F0
3F03F0
1FFFC0
07FF80
01FE00
ENDCHAR
STARTCHAR 0124
ENCODING 292
SWIDTH 840 0
DWIDTH 35 0
BBX 27 43 4 0
BITMAP
00040000
000F0000
003F8000
007FE000
01F9F000
01E0F000
00C06000
00000000
00000000
00000000
40000040
E00000E0
E00000E0
E00000E0
E00000E0
E00000E0
E00000E0
E00000E0
E00000E0
E00000E0
E00000E0
E00000E0
E00000E0
E00000E0
E00000E0
FFFFFFE0
FFFFFFE0
FFFFFFE0
E00000E0
E00000E0
E00000E0
E00000E0
E00000E0
E00000E0
E00000E0
E00000E0
E00000E0
E00000E0
E00000E0
E00000E0
E00000E0
E00000E0
600000E0
ENDCHAR
STARTCHAR 0125
ENCODING 293
SWIDTH 672 0
DWIDTH 28 0
BBX 26 42 -1 1
BITMAP
0F000000
1FC00000
7FE00000
F9F80000
F0780000
E0300000
00000000
00000000
00000000
02000000
07000000
07000000
07000000
07000000
07000000
07000000
07000000
07000000
07000000
070FE000
073FF800
077FFE00
07F03F00
07C00F00
07800780
07800380
070003C0
070003C0
070001C0
070001C0
070001C0
070001C0
070001C0
070001C0
070001C0
070001C0
070001C0
070001C0
070001C0
070001C0
070001C0
07000180
ENDCHAR
STARTCHAR 0126
ENCODING 294
SWIDTH 840 0
DWIDTH 35 0
BBX 33 33 1 0
BITMAP
0800000800
1C00001C00
1C00001C00
1C00001C00
1C00001C00
1C00001C00
FFFFFFFF80
FFFFFFFF80
1C00001C00
1C00001C00
1C00001C00
1C00001C00
1C00001C00
1C00001C00
1C00001C00
1FFFFFFC00
1FFFFFFC00
1FFFFFFC00
1C00001C00
1C00001C00
1C00001C00
1C00001C00
1C00001C00
1C00001C00
1C00001C00
1C00001C00
1C00001C00
1C00001C00
1C00001C00
1C00001C00
1C00001C00
1C00001C00
0C00001C00
ENDCHAR
STARTCHAR 0127
ENCODING 295
SWIDTH 672 0
DWIDTH 28 0
BBX 25 33 0 0
BITMAP
04000000
0E000000
0E000000
0E000000
0E000000
FFFF0000
FFFF0000
0E000000
0E000000
0E000000
0E1FC000
0E7FF000
0EFFFC00
0FE07E00
0F801E00
0F000F00
0F000700
0E000780
0E000780
0E000380
0E000380
0E000380
0E000380
0E000380
0E000380
0E000380
0E000380
0E000380
0E000380
0E000380
0E000380
0E000380
0E000300
ENDCHAR
STARTCHAR 0128
ENCODING 296
SWIDTH 288 0
DWIDTH 12 0
BBX 13 42 -1 0
BITMAP
1C00
7E38
7F38
E3F8
E1F0
0040
0000
0000
0000
0200
0700
0700
0700
0700
0700
0700
0700
0700
0700
0700
0700
0700
0700
0700
0700
0700
0700
0700
0700
0700
0700
0700
0700
0700
0700
0700
0700
0700
0700
0700
0700
0300
ENDCHAR
STARTCHAR 0129
ENCODING 297
SWIDTH 288 0
DWIDTH 12 0
BBX 13 32 -1 0
BITMAP
3C00
7F38
7FF8
E3F8
61F0
0000
0000
0000
0000
0300
0780
0780
0780
0780
0780
0780
0780
0780
0780
0780
0780
0780
0780
0780
0780
0780
0780
0780
0780
0780
0780
0300
ENDCHAR
STARTCHAR 012A
ENCODING 298
SWIDTH 288 0
DWIDTH 12 0
BBX 14 40 -1 0
BITMAP
FFF8
FFFC
FFF8
0000
0000
0000
0000
0200
0700
0700
0700
0700
0700
0700
0700
0700
0700
0700
0700
0700
0700
0700
0700
0700
0700
0700
0700
0700
0700
0700
0700
0700
0700
0700
0700
0700
0700
0700
0700
0300
ENDCHAR
STARTCHAR 012B
ENCODING 299
SWIDTH 288 0
DWIDTH 12 0
BBX 12 30 0 0
BITMAP
FFE0
FFF0
7FE0
0000
0000
0000
0000
0600
0F00
0F00
0F00
0F00
0F00
0F00
0F00
0F00
0F00
0F00
0F00
0F00
0F00
0F00
0F00
0F00
0F00
0F00
0F00
0F00
0F00
0600
ENDCHAR
STARTCHAR 012C
ENCODING 300
SWIDTH 288 0
DWIDTH 12 0
BBX 13 43 -1 0
BITMAP
0010
E038
E038
F078
7FF0
3FE0
0FC0
0000
0000
0000
0200
0700
0700
0700
0700
0700
0700
0700
0700
0700
0700
0700
0700
0700
0700
0700
0700
0700
0700
0700
0700
0700
0700
0700
0700
0700
0700
0700
0700
0700
0700
0700
0300
ENDCHAR
STARTCHAR 012D
ENCODING 301
SWIDTH 288 0
DWIDTH 12 0
BBX 12 33 0 0
BITMAP
4020
E070
E070
F0E0
7FE0
3FC0
0600
0000
0000
0000
0600
0F00
0F00
0F00
0F00
0F00
0F00
0F00
0F00
0F00
0F00
0F00
0F00
0F00
0F00
0F00
0F00
0F00
0F00
0F00
0F00
0F00
0600
ENDCHAR
STARTCHAR 012E
ENCODING 302
SWIDTH 288 0
DWIDTH 12 0
BBX 10 44 1 -11
BITMAP
0800
1C00
1C00
1C00
1C00
1C00
1C00
1C00
1C00
1C00
1C00
1C00
1C00
1C00
1C00
1C00
1C00
1C00
1C00
1C00
1C00
1C00
1C00
1C00
1C00
1C00
1C00
1C00
1C00
1C00
1C00
1C00
0C00
1C00
1C00
7C00
7800
F000
E000
E180
F7C0
7F80
7F00
1E00
ENDCHAR
STARTCHAR 012F
ENCODING 303
SWIDTH 288 0
DWIDTH 12 0
BBX 10 43 1 -11
BITMAP
0C00
1E00
1E00
1E00
0C00
0000
0000
0000
0000
0C00
1E00
1E00
1E00
1E00
1E00
1E00
1E00
1E00
1E00
1E00
1E00
1E00
1E00
1E00
1E00
1E00
1E00
1E00
1E00
1E00
1E00
0C00
0C00
1E00
3C00
7C00
F000
F000
E180
FBC0
7FC0
3F80
1E00
ENDCHAR
STARTCHAR 0130
ENCODING 304
SWIDTH 288 0
DWIDTH 12 0
BBX 4 41 4 0
BITMAP
F0
F0
F0
E0
00
00
00
00
40
E0
E0
E0
E0
E0
E0
E0
E0
E0
E0
E0
E0
E0
E0
E0
E0
E0
E0
E0
E0
E0
E0
E0
E0
E0
E0
E0
E0
E0
E0
E0
60
ENDCHAR
STARTCHAR 0131
ENCODING 305
SWIDTH 288 0
DWIDTH 12 0
BBX 4 23 4 0
BITMAP
60
F0
F0
F0
F0
F0
F0
F0
F0
F0
F0
F0
F0
F0
F0
F0
F0
F0
F0
F0
F0
F0
60
ENDCHAR
STARTCHAR 0132
ENCODING 306
SWIDTH 648 0
DWIDTH 27 0
BBX 18 33 4 0
BITMAP
400000
E001C0
E001C0
E001C0
E001C0
E001C0
E001C0
E001C0
E001C0
E001C0
E001C0
E001C0
E001C0
E001C0
E001C0
E001C0
E001C0
E001C0
E001C0
E001C0
6001C0
0001C0
0001C0
0001C0
6001C0
E001C0
E001C0
F003C0
700780
7C0F80
3FFF00
1FFE00
07F800
ENDCHAR
STARTCHAR 0133
ENCODING 307
SWIDTH 576 0
DWIDTH 24 0
BBX 16 42 4 -10
BITMAP
6006
F00F
F00F
F00F
6006
0000
0000
0000
0000
6006
F00E
F00F
F00F
F00F
F00F
F00F
F00F
F00F
F00F
F00F
F00F
F00F
F00F
F00F
F00F
F00F
F00F
F00F
F00F
F00F
F00F
600F
000E
000E
000E
001E
001E
007C
03F8
0FF0
0FE0
0700
ENDCHAR
STARTCHAR 0134
ENCODING 308
SWIDTH 624 0
DWIDTH 26 0
BBX 24 42 2 1
BITMAP
0000F0
0003F8
0007FE
000F9F
001E0F
000C03
000000
000000
000000
000040
0000E0
0000E0
0000E0
0000E0
0000E0
0000E0
0000E0
0000E0
0000E0
0000E0
0000E0
0000E0
0000E0
0000E0
0000E0
0000E0
0000E0
0000E0
0000E0
0000E0
0000E0
E000E0
E000E0
E000E0
E000E0
F000E0
7001E0
7803C0
3C07C0
1FFF80
0FFF00
07FC00
ENDCHAR
STARTCHAR 0135
ENCODING 309
SWIDTH 288 0
DWIDTH 12 0
BBX 16 43 -4 -10
BITMAP
0060
00F0
03F8
07FE
0F9F
0E0F
0400
0000
0000
0000
0060
00E0
00E0
00E0
00E0
00E0
00E0
00E0
00E0
00E0
00E0
00E0
00E0
00E0
00E0
00E0
00E0
00E0
00E0
00E0
00E0
00E0
00E0
00E0
00E0
00E0
01E0
01C0
07C0
3F80
FF00
FE00
7000
ENDCHAR
STARTCHAR 0136
ENCODING 310
SWIDTH 648 0
DWIDTH 27 0
BBX 21 43 4 -10
BITMAP
400000
E00038
E00078
E000F8
E001F0
E003E0
E007C0
E00F80
E01F00
E03E00
E07C00
E0F800
E1F000
E3E000
E7C000
EFC000
FFE000
FEF000
FCF000
F87800
F03C00
E03C00
E01E00
E00F00
E00780
E00780
E003C0
E001E0
E000F0
E000F0
E00078
E00038
600018
000000
000000
00F800
00FC00
000E00
000E00
070E00
07FE00
03FC00
01F000
ENDCHAR
STARTCHAR 0137
ENCODING 311
SWIDTH 576 0
DWIDTH 24 0
BBX 17 43 4 -10
BITMAP
400000
E00000
E00000
E00000
E00000
E00000
E00000
E00000
E00000
E00000
E00180
E00780
E00F80
E01F00
E03C00
E07800
E0F000
E1E000
E3C000
E78000
FF8000
FF8000
FFC000
F1E000
E0F000
E07800
E03C00
E03C00
E01E00
E00F00
E00780
E00380
E00180
000000
000000
03E000
03F000
003800
001800
1C3800
1FF800
0FF000
03C000
ENDCHAR
STARTCHAR 0138
ENCODING 312
SWIDTH 576 0
DWIDTH 24 0
BBX 17 23 4 0
BITMAP
400180
E00780
E00F80
E01F00
E03C00
E07800
E0F000
E1E000
E3C000
E78000
FF8000
FF8000
FFC000
F1E000
E0F000
E07800
E03C00
E03C00
E01E00
E00F00
E00780
E00380
E00180
ENDCHAR
STARTCHAR 0139
ENCODING 313
SWIDTH 624 0
DWIDTH 26 0
BBX 21 44 4 0
BITMAP
060000
0F0000
1F0000
3E0000
7C0000
F80000
F00000
E00000
000000
000000
000000
400000
E00000
E00000
E00000
E00000
E00000
E00000
E00000
E00000
E00000
E00000
E00000
E00000
E00000
E00000
E00000
E00000
E00000
E00000
E00000
E00000
E00000
E00000
E00000
E00000
E00000
E00000
E00000
E00000
E00000
FFFFF8
FFFFF8
7FFFF8
ENDCHAR
STARTCHAR 013A
ENCODING 314
SWIDTH 288 0
DWIDTH 12 0
BBX 8 39 3 0
BITMAP
0E
1E
3E
7C
F8
F0
E0
00
00
00
00
E0
E0
E0
E0
E0
E0
E0
E0
E0
E0
E0
E0
E0
E0
E0
E0
E0
E0
E0
E0
E0
E0
E0
F0
78
7F
3F
1F
ENDCHAR
STARTCHAR 013B
ENCODING 315
SWIDTH 624 0
DWIDTH 26 0
BBX 21 43 4 -10
BITMAP
400000
E00000
E00000
E00000
E00000
E00000
E00000
E00000
E00000
E00000
E00000
E00000
E00000
E00000
E00000
E00000
E00000
E00000
E00000
E00000
E00000
E00000
E00000
E00000
E00000
E00000
E00000
E00000
E00000
E00000
FFFFF8
FFFFF8
7FFFF8
000000
000000
00F800
00FC00
000E00
000E00
070E00
07FC00
07FC00
01F000
ENDCHAR
STARTCHAR 013C
ENCODING 316
SWIDTH 288 0
DWIDTH 12 0
BBX 11 43 3 -10
BITMAP
4000
E000
E000
E000
E000
E000
E000
E000
E000
E000
E000
E000
E000
E000
E000
E000
E000
E000
E000
E000
E000
E000
E000
E000
E000
E000
E000
E000
F000
7800
7F00
3F00
1F00
0000
0000
0F80
0FC0
00E0
0060
70E0
7FE0
3FC0
0F00
ENDCHAR
STARTCHAR 013D
ENCODING 317
SWIDTH 624 0
DWIDTH 26 0
BBX 21 33 4 0
BITMAP
400200
E00F00
E00F00
E00700
E00700
E00700
E00700
E00E00
E00E00
E01C00
E01800
E00000
E00000
E00000
E00000
E00000
E00000
E00000
E00000
E00000
E00000
E00000
E00000
E00000
E00000
E00000
E00000
E00000
E00000
E00000
FFFFF8
FFFFF8
7FFFF8
ENDCHAR
STARTCHAR 013E
ENCODING 318
SWIDTH 360 0
DWIDTH 15 0
BBX 12 33 3 0
BITMAP
4020
E0F0
E0F0
E070
E070
E070
E070
E0E0
E0E0
E1C0
E180
E000
E000
E000
E000
E000
E000
E000
E000
E000
E000
E000
E000
E000
E000
E000
E000
E000
F000
7800
7F00
3F00
1F00
ENDCHAR
STARTCHAR 013F
ENCODING 319
SWIDTH 576 0
DWIDTH 24 0
BBX 21 33 4 0
BITMAP
400000
E00000
E00000
E00000
E00000
E00000
E00000
E00000
E00000
E00000
E00000
E00000
E00000
E00000
E00000
E00700
E00F80
E00F80
E00F80
E00700
E00000
E00000
E00000
E00000
E00000
E00000
E00000
E00000
E00000
E00000
FFFFF8
FFFFF8
7FFFF8
ENDCHAR
STARTCHAR 0140
ENCODING 320
SWIDTH 360 0
DWIDTH 15 0
BBX 12 33 3 0
BITMAP
4000
E000
E000
E000
E000
E000
E000
E000
E000
E000
E000
E000
E000
E000
E000
E0C0
E1E0
E1F0
E1E0
E0E0
E000
E000
E000
E000
E000
E000
E000
E000
F000
7800
7F00
3F00
1F00
ENDCHAR
STARTCHAR 0141
ENCODING 321
SWIDTH 672 0
DWIDTH 28 0
BBX 25 33 1 0
BITMAP
04000000
0E000000
0E000000
0E000000
0E000000
0E000000
0E000000
0E000000
0E1E0000
0E3E0000
0E7C0000
0EF80000
0FF00000
0FE00000
0FC00000
0F800000
1F000000
3E000000
7E000000
FE000000
FE000000
EE000000
0E000000
0E000000
0E000000
0E000000
0E000000
0E000000
0E000000
0E000000
0FFFFF80
0FFFFF80
0FFFFF80
ENDCHAR
STARTCHAR 0142
ENCODING 322
SWIDTH 360 0
DWIDTH 15 0
BBX 12 33 1 0
BITMAP
0400
0E00
0E00
0E00
0E00
0E00
0E00
0E00
0E00
0E00
0E20
0EF0
0FF0
0FE0
0FC0
0F80
1F00
3E00
7E00
FE00
FE00
EE00
8E00
0E00
0E00
0E00
0E00
0E00
0E00
0E00
0FC0
0FC0
0FC0
ENDCHAR
STARTCHAR 0143
ENCODING 323
SWIDTH 816 0
DWIDTH 34 0
BBX 26 44 4 0
BITMAP
00004000
0001E000
0003E000
0007C000
000F8000
000F0000
001E0000
000C0000
00000000
00000000
00000000
40000080
E00001C0
F00001C0
F80001C0
FC0001C0
FC0001C0
EE0001C0
EF0001C0
E78001C0
E38001C0
E1C001C0
E1E001C0
E0F001C0
E07801C0
E03801C0
E03C01C0
E01E01C0
E00F01C0
E00701C0
E00781C0
E003C1C0
E001E1C0
E000E1C0
E00071C0
E00079C0
E0003DC0
E0001DC0
E0000FC0
E0000FC0
E00007C0
E00003C0
E00001C0
600001C0
ENDCHAR
STARTCHAR 0144
ENCODING 324
SWIDTH 672 0
DWIDTH 28 0
BBX 21 34 4 0
BITMAP
000700
000F00
001F00
003E00
007C00
00F800
00F000
004000
000000
000000
000000
41FC00
E7FF00
EFFFC0
FE07E0
F801E0
F000F0
F00070
E00078
E00078
E00038
E00038
E00038
E00038
E00038
E00038
E00038
E00038
E00038
E00038
E00038
E00038
E00038
E00030
ENDCHAR
STARTCHAR 0145
ENCODING 325
SWIDTH 816 0
DWIDTH 34 0
BBX 26 43 4 -10
BITMAP
40000080
E00001C0
F00001C0
F80001C0
FC0001C0
FC0001C0
EE0001C0
EF0001C0
E78001C0
E38001C0
E1C001C0
E1E001C0
E0F001C0
E07801C0
E03801C0
E03C01C0
E01E01C0
E00F01C0
E00701C0
E00781C0
E003C1C0
E001E1C0
E000E1C0
E00071C0
E00079C0
E0003DC0
E0001DC0
E0000FC0
E0000FC0
E00007C0
E00003C0
E00001C0
600001C0
00000000
00000000
001F8000
000FC000
0001C000
0000C000
00E0C000
00FFC000
007F8000
001F0000
ENDCHAR
STARTCHAR 0146
ENCODING 326
SWIDTH 672 0
DWIDTH 28 0
BBX 21 33 4 -10
BITMAP
41FC00
E7FF00
EFFFC0
FE07E0
F801E0
F000F0
F00070
E00078
E00078
E00038
E00038
E00038
E00038
E00038
E00038
E00038
E00038
E00038
E00038
E00038
E00038
E00038
E00030
000000
000000
00F800
00FE00
000E00
000600
070600
07DE00
03FC00
00F800
ENDCHAR
STARTCHAR 0147
ENCODING 327
SWIDTH 816 0
DWIDTH 34 0
BBX 26 42 4 1
BITMAP
01C0F000
01E1F000
00FFC000
007F8000
001E0000
00040000
00000000
00000000
00000000
40000080
E00001C0
F00001C0
F80001C0
FC0001C0
FC0001C0
EE0001C0
EF0001C0
E78001C0
E38001C0
E1C001C0
E1E001C0
E0F001C0
E07801C0
E03801C0
E03C01C0
E01E01C0
E00F01C0
E00701C0
E00781C0
E003C1C0
E001E1C0
E000E1C0
E00071C0
E00079C0
E0003DC0
E0001DC0
E0000FC0
E0000FC0
E00007C0
E00003C0
E00001C0
600001C0
ENDCHAR
STARTCHAR 0148
ENCODING 328
SWIDTH 672 0
DWIDTH 28 0
BBX 21 33 4 0
BITMAP
0C0100
0E0780
0F9F00
07FE00
01F800
00F000
000000
000000
000000
000000
41FC00
E7FF00
EFFFC0
FE07E0
F801E0
F000F0
F00070
E00078
E00078
E00038
E00038
E00038
E00038
E00038
E00038
E00038
E00038
E00038
E00038
E00038
E00038
E00038
E00030
ENDCHAR
STARTCHAR 014A
ENCODING 330
SWIDTH 720 0
DWIDTH 30 0
BBX 23 33 4 0
BITMAP
401000
E1FF00
E7FFC0
EFFFE0
FE01F0
FC0078
F80038
F0003C
F0001C
E0001E
E0001E
E0000E
E0000E
E0000E
E0000E
E0000E
E0000E
E0000E
E0000E
E0000E
E0000E
E0000E
E0001E
E0001E
E0001C
E0001C
E0001C
E1003C
E38038
E3C0F8
E1FFF0
E0FFE0
603FC0
ENDCHAR
STARTCHAR 014B
ENCODING 331
SWIDTH 672 0
DWIDTH 28 0
BBX 21 31 4 -8
BITMAP
41FC00
E7FF00
EFFFC0
FE07C0
F801E0
F000F0
F00070
E00070
E00078
E00038
E00038
E00038
E00038
E00038
E00038
E00038
E00038
E00038
E00038
E00038
E00038
E00078
E00070
000070
000070
0400F0
0600E0
0701E0
07EFC0
03FF80
00FF00
ENDCHAR
STARTCHAR 014C
ENCODING 332
SWIDTH 912 0
DWIDTH 38 0
BBX 33 40 3 0
BITMAP
007FFE0000
007FFE0000
003FFE0000
0000000000
0000000000
0000000000
0000000000
000FF00000
007FFE0000
01FFFF8000
03F81FE000
07C003F000
0F0000F800
1E00007C00
3C00003C00
3800001E00
7800000E00
7000000F00
F000000700
E000000700
E000000780
E000000780
E000000380
E000000380
E000000380
E000000780
E000000780
E000000700
F000000700
F000000F00
7000000F00
7800001E00
3C00001E00
3E00003C00
1F00007800
0F8001F000
07E007E000
03FFFFC000
00FFFF0000
003FFC0000
ENDCHAR
STARTCHAR 014D
ENCODING 333
SWIDTH 672 0
DWIDTH 28 0
BBX 23 30 3 0
BITMAP
0FFFC0
0FFFC0
07FF80
000000
000000
000000
000000
00FE00
07FF80
0FFFC0
1F03F0
3C00F0
780078
70003C
F0001C
E0001C
E0001E
E0001E
E0000E
E0001E
E0001E
E0001C
E0001C
F0003C
780078
3C00F8
3E01F0
1FFFE0
07FF80
01FE00
ENDCHAR
STARTCHAR 014E
ENCODING 334
SWIDTH 912 0
DWIDTH 38 0
BBX 33 42 3 1
BITMAP
00380E0000
00381E0000
003C1C0000
003FFC0000
001FF80000
0007E00000
0000000000
0000000000
0000000000
000FF00000
007FFE0000
01FFFF8000
03F81FE000
07C003F000
0F0000F800
1E00007C00
3C00003C00
3800001E00
7800000E00
7000000F00
F000000700
E000000700
E000000780
E000000780
E000000380
E000000380
E000000380
E000000780
E000000780
E000000700
F000000700
F000000F00
7000000F00
7800001E00
3C00001E00
3E00003C00
1F00007800
0F8001F000
07E007E000
03FFFFC000
00FFFF0000
003FFC0000
ENDCHAR
STARTCHAR 014F
ENCODING 335
SWIDTH 672 0
DWIDTH 28 0
BBX 23 33 3 0
BITMAP
060180
0701C0
0703C0
078780
03FF80
01FE00
003800
000000
000000
000000
00FE00
07FF80
0FFFC0
1F03F0
3C00F0
780078
70003C
F0001C
E0001C
E0001E
E0001E
E0000E
E0001E
E0001E
E0001C
E0001C
F0003C
780078
3C00F8
3E01F0
1FFFE0
07FF80
01FE00
ENDCHAR
STARTCHAR 0150
ENCODING 336
SWIDTH 912 0
DWIDTH 38 0
BBX 33 44 3 0
BITMAP
00030E0000
00078E0000
00071E0000
00071C0000
00071C0000
000E380000
000E380000
000C300000
0000000000
0000000000
0000000000
000FF00000
007FFE0000
01FFFF8000
03F81FE000
07C003F000
0F0000F800
1E00007C00
3C00003C00
3800001E00
7800000E00
7000000F00
F000000700
E000000700
E000000780
E000000780
E000000380
E000000380
E000000380
E000000780
E000000780
E000000700
F000000700
F000000F00
7000000F00
7800001E00
3C00001E00
3E00003C00
1F00007800
0F8001F000
07E007E000
03FFFFC000
00FFFF0000
003FFC0000
ENDCHAR
STARTCHAR 0151
ENCODING 337
SWIDTH 672 0
DWIDTH 28 0
BBX 23 34 3 0
BITMAP
0071C0
00F1C0
00E3C0
00E380
01C380
01C700
018700
018600
000000
000000
000000
00FE00
07FF80
0FFFC0
1F03F0
3C00F0
780078
70003C
F0001C
E0001C
E0001E
E0001E
E0000E
E0001E
E0001E
E0001C
E0001C
F0003C
780078
3C00F8
3E01F0
1FFFE0
07FF80
01FE00
ENDCHAR
STARTCHAR 0152
ENCODING 338
SWIDTH 1152 0
DWIDTH 48 0
BBX 43 33 3 0
BITMAP
000FFFFFFFC0
007FFFFFFFE0
01FFFFFFFFE0
03F807FFFFC0
07C003800000
0F0003800000
1E0003800000
3C0003800000
380003800000
780003800000
700003800000
F00003800000
E00003800000
E00003800000
E00003800000
E00003FFFC00
E00003FFFC00
E00003FFFC00
E00003800000
E00003800000
E00003800000
F00003800000
F00003800000
700003800000
780003800000
3C0003800000
3E0003800000
1F0003800000
0F8003800000
07E003800000
03FFFFFFFFE0
00FFFFFFFFE0
003FFFFFFFE0
ENDCHAR
STARTCHAR 0153
ENCODING 339
SWIDTH 1104 0
DWIDTH 46 0
BBX 41 23 3 0
BITMAP
01FE001FC000
07FF807FF000
0FFFC0FFF800
1F03E1E03C00
3C00F3C01E00
78007F800F00
70003F000700
F0001E000700
E0001E000380
E0001E000380
E0001FFFFF80
E0000FFFFF80
E0001FFFFF00
E0001E000000
E0001E000000
E0001E000000
F0003F000000
78007F800000
3C00F3C00600
3E01F1E01E00
1FFFE0FFFE00
07FF807FF800
01FE001FE000
ENDCHAR
STARTCHAR 0154
ENCODING 340
SWIDTH 624 0
DWIDTH 26 0
BBX 21 44 4 0
BITMAP
000600
000E00
001E00
003C00
007800
00F000
01E000
00C000
000000
000000
000000
7FC000
FFFC00
FFFF00
FFFF80
E007C0
E001E0
E000E0
E000F0
E00070
E00070
E00070
E00070
E00070
E000F0
E000E0
E001E0
E007C0
FFFF80
FFFF00
FFFC00
E03C00
E01E00
E00F00
E00F00
E00780
E00380
E003C0
E001E0
E001E0
E000F0
E00078
E00078
600038
ENDCHAR
STARTCHAR 0155
ENCODING 341
SWIDTH 456 0
DWIDTH 19 0
BBX 14 34 4 0
BITMAP
0030
0078
00F0
01E0
03C0
0780
0700
0600
0000
0000
0000
41F8
E7FC
EFFC
FE00
F800
F000
E000
E000
E000
E000
E000
E000
E000
E000
E000
E000
E000
E000
E000
E000
E000
E000
E000
ENDCHAR
STARTCHAR 0156
ENCODING 342
SWIDTH 624 0
DWIDTH 26 0
BBX 21 43 4 -10
BITMAP
7FC000
FFFC00
FFFF00
FFFF80
E007C0
E001E0
E000E0
E000F0
E00070
E00070
E00070
E00070
E00070
E000F0
E000E0
E001E0
E007C0
FFFF80
FFFF00
FFFC00
E03C00
E01E00
E00F00
E00F00
E00780
E00380
E003C0
E001E0
E001E0
E000F0
E00078
E00078
600038
000000
000000
00F800
00FC00
000E00
000E00
060E00
07FC00
07FC00
01F000
ENDCHAR
STARTCHAR 0157
ENCODING 343
SWIDTH 456 0
DWIDTH 19 0
BBX 17 33 1 -10
BITMAP
083F00
1CFF80
1DFF80
1FC000
1F0000
1E0000
1C0000
1C0000
1C0000
1C0000
1C0000
1C0000
1C0000
1C0000
1C0000
1C0000
1C0000
1C0000
1C0000
1C0000
1C0000
1C0000
1C0000
000000
000000
3F0000
1F8000
018000
01C000
C1C000
FF8000
FF8000
3E0000
ENDCHAR
STARTCHAR 0158
ENCODING 344
SWIDTH 624 0
DWIDTH 26 0
BBX 21 42 4 1
BITMAP
1C0700
1F1F00
0FBE00
03F800
01F000
004000
000000
000000
000000
7FC000
FFFC00
FFFF00
FFFF80
E007C0
E001E0
E000E0
E000F0
E00070
E00070
E00070
E00070
E00070
E000F0
E000E0
E001E0
E007C0
FFFF80
FFFF00
FFFC00
E03C00
E01E00
E00F00
E00F00
E00780
E00380
E003C0
E001E0
E001E0
E000F0
E00078
E00078
600038
ENDCHAR
STARTCHAR 0159
ENCODING 345
SWIDTH 456 0
DWIDTH 19 0
BBX 14 33 4 0
BITMAP
4018
F038
78F8
3FF0
1FC0
0780
0000
0000
0000
0000
41F8
E7FC
EFFC
FE00
F800
F000
E000
E000
E000
E000
E000
E000
E000
E000
E000
E000
E000
E000
E000
E000
E000
E000
E000
ENDCHAR
STARTCHAR 015A
ENCODING 346
SWIDTH 672 0
DWIDTH 28 0
BBX 22 44 3 0
BITMAP
000300
000780
000F80
001F00
003E00
007C00
007800
007000
000000
000000
000000
01FC00
07FF80
1FFFC0
3F03F0
3C00F0
780078
700038
700010
700000
700000
700000
780000
3C0000
3F0000
0FF000
07FF00
01FFC0
000FE0
0001F0
000078
000038
00003C
00001C
00001C
00001C
C0001C
E0003C
F00038
F80078
7E01F0
3FFFE0
0FFFC0
03FF00
ENDCHAR
STARTCHAR 015B
ENCODING 347
SWIDTH 528 0
DWIDTH 22 0
BBX 18 34 3 0
BITMAP
000C00
001E00
003C00
007800
00F000
01E000
01C000
008000
000000
000000
000000
07F000
1FFC00
3FFF00
780F80
700780
F00380
F00000
F00000
780000
7E0000
1FF000
0FFC00
01FF00
000F80
000380
0003C0
0001C0
4003C0
E00380
F80780
7FFF00
3FFE00
0FF800
ENDCHAR
STARTCHAR 015C
ENCODING 348
SWIDTH 672 0
DWIDTH 28 0
BBX 22 42 3 1
BITMAP
007800
01FC00
03FF00
07CF80
0F0780
060180
000000
000000
000000
01FC00
07FF80
1FFFC0
3F03F0
3C00F0
780078
700038
700010
700000
700000
700000
780000
3C0000
3F0000
0FF000
07FF00
01FFC0
000FE0
0001F0
000078
000038
00003C
00001C
00001C
00001C
C0001C
E0003C
F00038
F80078
7E01F0
3FFFE0
0FFFC0
03FF00
ENDCHAR
STARTCHAR 015D
ENCODING 349
SWIDTH 528 0
DWIDTH 22 0
BBX 18 33 3 0
BITMAP
008000
03E000
07F000
1FFC00
3E3E00
3C1E00
100400
000000
000000
000000
07F000
1FFC00
3FFF00
780F80
700780
F00380
F00000
F00000
780000
7E0000
1FF000
0FFC00
01FF00
000F80
000380
0003C0
0001C0
4003C0
E00380
F80780
7FFF00
3FFE00
0FF800
ENDCHAR
STARTCHAR 015E
ENCODING 350
SWIDTH 672 0
DWIDTH 28 0
BBX 22 43 3 -10
BITMAP
01FC00
07FF80
1FFFC0
3F03F0
3C00F0
780078
700038
700010
700000
700000
700000
780000
3C0000
3F0000
0FF000
07FF00
01FFC0
000FE0
0001F0
000078
000038
00003C
00001C
00001C
00001C
C0001C
E0003C
F00038
F80078
7E01F0
3FFFE0
0FFFC0
03FF00
003800
007000
007E00
001F00
000700
030700
038F00
03FF00
01FE00
007800
ENDCHAR
STARTCHAR 015F
ENCODING 351
SWIDTH 528 0
DWIDTH 22 0
BBX 18 33 3 -10
BITMAP
07F000
1FFC00
3FFF00
780F80
700780
F00380
F00000
F00000
780000
7E0000
1FF000
0FFC00
01FF00
000F80
000380
0003C0
0001C0
4003C0
E00380
F80780
7FFF00
3FFE00
0FF800
01E000
01C000
01F800
007C00
003C00
0C1C00
1E3C00
0FF800
0FF000
03C000
ENDCHAR
STARTCHAR 0160
ENCODING 352
SWIDTH 672 0
DWIDTH 28 0
BBX 22 42 3 1
BITMAP
0F0380
0F8780
03FF00
01FE00
007800
002000
000000
000000
000000
01FC00
07FF80
1FFFC0
3F03F0
3C00F0
780078
700038
700010
700000
700000
700000
780000
3C0000
3F0000
0FF000
07FF00
01FFC0
000FE0
0001F0
000078
000038
00003C
00001C
00001C
00001C
C0001C
E0003C
F00038
F80078
7E01F0
3FFFE0
0FFFC0
03FF00
ENDCHAR
STARTCHAR 0161
ENCODING 353
SWIDTH 528 0
DWIDTH 22 0
BBX 18 33 3 0
BITMAP
100400
3C1E00
3E3E00
0FF800
07F000
01C000
000000
000000
000000
000000
07F000
1FFC00
3FFF00
780F80
700780
F00380
F00000
F00000
780000
7E0000
1FF000
0FFC00
01FF00
000F80
000380
0003C0
0001C0
4003C0
E00380
F80780
7FFF00
3FFE00
0FF800
ENDCHAR
STARTCHAR 0162
ENCODING 354
SWIDTH 648 0
DWIDTH 27 0
BBX 26 43 1 -10
BITMAP
7FFFFF00
FFFFFFC0
FFFFFFC0
001C0000
001C0000
001C0000
001C0000
001C0000
001C0000
001C0000
001C0000
001C0000
001C0000
001C0000
001C0000
001C0000
001C0000
001C0000
001C0000
001C0000
001C0000
001C0000
001C0000
001C0000
001C0000
001C0000
001C0000
001C0000
001C0000
001C0000
001C0000
001E0000
001E0000
001E0000
001C0000
001F8000
0007C000
0001C000
00C1C000
01E3C000
00FF8000
00FF0000
001C0000
ENDCHAR
STARTCHAR 0163
ENCODING 355
SWIDTH 408 0
DWIDTH 17 0
BBX 14 40 1 -10
BITMAP
0E00
0E00
0E00
0E00
0E00
0E00
0E00
0E00
FFF8
FFF8
FFF8
0E00
0E00
0E00
0E00
0E00
0E00
0E00
0E00
0E00
0E00
0E00
0E00
0E00
0F00
0780
07C0
03FC
01FC
01FC
01C0
01C0
01F0
00F8
003C
0C3C
1E3C
1FF8
0FF0
0380
ENDCHAR
STARTCHAR 0164
ENCODING 356
SWIDTH 648 0
DWIDTH 27 0
BBX 26 42 1 1
BITMAP
0380E000
03E3E000
01F7C000
007F0000
003E0000
00080000
00000000
00000000
00000000
7FFFFF00
FFFFFFC0
FFFFFFC0
001C0000
001C0000
001C0000
001C0000
001C0000
001C0000
001C0000
001C0000
001C0000
001C0000
001C0000
001C0000
001C0000
001C0000
001C0000
001C0000
001C0000
001C0000
001C0000
001C0000
001C0000
001C0000
001C0000
001C0000
001C0000
001C0000
001C0000
001C0000
001C0000
001C0000
ENDCHAR
STARTCHAR 0165
ENCODING 357
SWIDTH 408 0
DWIDTH 17 0
BBX 14 36 1 0
BITMAP
001C
003C
003C
001C
001C
001C
0E1C
0E38
0E30
0E70
0E00
0E00
0E00
0E00
FFF8
FFF8
FFF8
0E00
0E00
0E00
0E00
0E00
0E00
0E00
0E00
0E00
0E00
0E00
0E00
0E00
0F00
0780
07C0
03FC
01FC
007C
ENDCHAR
STARTCHAR 0166
ENCODING 358
SWIDTH 648 0
DWIDTH 27 0
BBX 26 33 1 0
BITMAP
7FFFFF00
FFFFFFC0
FFFFFFC0
001C0000
001C0000
001C0000
001C0000
001C0000
001C0000
001C0000
001C0000
001C0000
001C0000
001C0000
001C0000
07FFF000
07FFF800
07FFF800
001C0000
001C0000
001C0000
001C0000
001C0000
001C0000
001C0000
001C0000
001C0000
001C0000
001C0000
001C0000
001C0000
001C0000
001C0000
ENDCHAR
STARTCHAR 0167
ENCODING 359
SWIDTH 408 0
DWIDTH 17 0
BBX 14 30 1 0
BITMAP
0E00
0E00
0E00
0E00
0E00
0E00
0E00
0E00
FFF8
FFF8
FFF8
0E00
0E00
0E00
0E00
7FF0
FFF8
FFF8
0E00
0E00
0E00
0E00
0E00
0E00
0F00
0780
07C0
03FC
01FC
007C
ENDCHAR
STARTCHAR 0168
ENCODING 360
SWIDTH 816 0
DWIDTH 34 0
BBX 26 42 4 -1
BITMAP
00780000
01FE1C00
03FFFC00
0787F800
0301F000
00000000
00000000
00000000
40000080
E00001C0
E00001C0
E00001C0
E00001C0
E00001C0
E00001C0
E00001C0
E00001C0
E00001C0
E00001C0
E00001C0
E00001C0
E00001C0
E00001C0
E00001C0
E00001C0
E00001C0
E00001C0
E00001C0
E00001C0
E00001C0
E00001C0
E00001C0
F00003C0
70000380
78000780
78000780
3C000F00
1F003E00
0FF3FC00
07FFF800
01FFE000
001E0000
ENDCHAR
STARTCHAR 0169
ENCODING 361
SWIDTH 672 0
DWIDTH 28 0
BBX 21 31 3 0
BITMAP
03F000
07FC70
0FFFF0
1E1FE0
0C03C0
000000
000000
000000
600018
F00038
F00038
F00038
F00038
F00038
F00038
F00038
F00038
F00038
F00038
F00038
F00038
F00038
F00038
700038
700038
780078
3C00F8
3E03F8
1FFFF8
07FFB8
03FE18
ENDCHAR
STARTCHAR 016A
ENCODING 362
SWIDTH 816 0
DWIDTH 34 0
BBX 26 41 4 -1
BITMAP
03FFF000
03FFF000
03FFF000
00000000
00000000
00000000
00000000
40000080
E00001C0
E00001C0
E00001C0
E00001C0
E00001C0
E00001C0
E00001C0
E00001C0
E00001C0
E00001C0
E00001C0
E00001C0
E00001C0
E00001C0
E00001C0
E00001C0
E00001C0
E00001C0
E00001C0
E00001C0
E00001C0
E00001C0
E00001C0
F00003C0
70000380
78000780
78000780
3C000F00
1F003E00
0FF3FC00
07FFF800
01FFE000
001E0000
ENDCHAR
STARTCHAR 016B
ENCODING 363
SWIDTH 672 0
DWIDTH 28 0
BBX 21 30 3 0
BITMAP
0FFFC0
0FFFC0
07FF80
000000
000000
000000
000000
600018
F00038
F00038
F00038
F00038
F00038
F00038
F00038
F00038
F00038
F00038
F00038
F00038
F00038
F00038
700038
700038
780078
3C00F8
3E03F8
1FFFF8
07FFB8
03FE18
ENDCHAR
STARTCHAR 016C
ENCODING 364
SWIDTH 816 0
DWIDTH 34 0
BBX 26 43 4 0
BITMAP
01C06000
01C0F000
01E0E000
01FFE000
00FFC000
003F0000
00000000
00000000
00000000
40000080
E00001C0
E00001C0
E00001C0
E00001C0
E00001C0
E00001C0
E00001C0
E00001C0
E00001C0
E00001C0
E00001C0
E00001C0
E00001C0
E00001C0
E00001C0
E00001C0
E00001C0
E00001C0
E00001C0
E00001C0
E00001C0
E00001C0
E00001C0
F00003C0
70000380
78000780
78000780
3C000F00
1F003E00
0FF3FC00
07FFF800
01FFE000
001E0000
ENDCHAR
STARTCHAR 016D
ENCODING 365
SWIDTH 672 0
DWIDTH 28 0
BBX 21 33 3 0
BITMAP
060180
0701C0
0703C0
078780
03FF80
01FE00
003800
000000
000000
000000
600018
F00038
F00038
F00038
F00038
F00038
F00038
F00038
F00038
F00038
F00038
F00038
F00038
F00038
F00038
700038
700038
780078
3C00F8
3E03F8
1FFFF8
07FFB8
03FE18
ENDCHAR
STARTCHAR 016E
ENCODING 366
SWIDTH 816 0
DWIDTH 34 0
BBX 26 44 4 -1
BITMAP
000C0000
003F0000
00738000
00618000
00618000
00618000
00738000
003F0000
00080000
00000000
40000080
E00001C0
E00001C0
E00001C0
E00001C0
E00001C0
E00001C0
E00001C0
E00001C0
E00001C0
E00001C0
E00001C0
E00001C0
E00001C0
E00001C0
E00001C0
E00001C0
E00001C0
E00001C0
E00001C0
E00001C0
E00001C0
E00001C0
E00001C0
F00003C0
70000380
78000780
78000780
3C000F00
1F003E00
0FF3FC00
07FFF800
01FFE000
001E0000
ENDCHAR
STARTCHAR 016F
ENCODING 367
SWIDTH 672 0
DWIDTH 28 0
BBX 21 33 3 0
BITMAP
007800
00FC00
01CE00
018600
018600
018600
00FC00
007C00
000000
000000
600018
F00038
F00038
F00038
F00038
F00038
F00038
F00038
F00038
F00038
F00038
F00038
F00038
F00038
F00038
700038
700038
780078
3C00F8
3E03F8
1FFFF8
07FFB8
03FE18
ENDCHAR
STARTCHAR 0170
ENCODING 368
SWIDTH 816 0
DWIDTH 34 0
BBX 26 45 4 -1
BITMAP
00187000
003C7000
0038F000
0038E000
0070E000
0071C000
0061C000
00618000
00000000
00000000
00000000
40000080
E00001C0
E00001C0
E00001C0
E00001C0
E00001C0
E00001C0
E00001C0
E00001C0
E00001C0
E00001C0
E00001C0
E00001C0
E00001C0
E00001C0
E00001C0
E00001C0
E00001C0
E00001C0
E00001C0
E00001C0
E00001C0
E00001C0
E00001C0
F00003C0
70000380
78000780
78000780
3C000F00
1F003E00
0FF3FC00
07FFF800
01FFE000
001E0000
ENDCHAR
STARTCHAR 0171
ENCODING 369
SWIDTH 672 0
DWIDTH 28 0
BBX 21 34 3 0
BITMAP
0061C0
00F1C0
00E3C0
00E380
01C380
01C700
018700
018600
000000
000000
000000
600018
F00038
F00038
F00038
F00038
F00038
F00038
F00038
F00038
F00038
F00038
F00038
F00038
F00038
F00038
700038
700038
780078
3C00F8
3E03F8
1FFFF8
07FFB8
03FE18
ENDCHAR
STARTCHAR 0172
ENCODING 370
SWIDTH 816 0
DWIDTH 34 0
BBX 26 42 4 -9
BITMAP
40000080
E00001C0
E00001C0
E00001C0
E00001C0
E00001C0
E00001C0
E00001C0
E00001C0
E00001C0
E00001C0
E00001C0
E00001C0
E00001C0
E00001C0
E00001C0
E00001C0
E00001C0
E00001C0
E00001C0
E00001C0
E00001C0
E00001C0
E00001C0
F00003C0
70000380
78000780
78000780
3C000F00
1F003E00
0FF3FC00
07FFF800
01FFE000
001FC000
0007C000
00078000
000F0000
000F1C00
0007BC00
0007FC00
0003F800
0001E000
ENDCHAR
STARTCHAR 0173
ENCODING 371
SWIDTH 672 0
DWIDTH 28 0
BBX 25 34 3 -11
BITMAP
60001800
F0003800
F0003800
F0003800
F0003800
F0003800
F0003800
F0003800
F0003800
F0003800
F0003800
F0003800
F0003800
F0003800
F0003800
70003800
70003800
78007800
3C00F800
3E03F800
1FFFF800
07FFB800
03FE1800
00003800
00003800
0000F800
0000F000
0001E000
0001C000
0001C300
0001EF80
0000FF00
0000FE00
00003C00
ENDCHAR
STARTCHAR 0174
ENCODING 372
SWIDTH 936 0
DWIDTH 39 0
BBX 37 43 1 0
BITMAP
0000200000
0000780000
0001FC0000
0003FF0000
000FDF8000
000F078000
0006038000
0000000000
0000000000
0000000000
4000000000
E000200038
E000700038
E000700038
F000F80078
7000F80070
7000F80070
7800D800F0
3801DC00E0
3801DC00E0
3801DC00E0
1C038E01C0
1C038E01C0
1C038E01C0
1E030603C0
0E07070380
0E07070380
0E07070380
070E038700
070E038700
070E038700
078E038F00
039C01CE00
039C01CE00
039C01CE00
01F800FC00
01F800FC00
01F800FC00
00F800F800
00F0007800
00F0007800
00F0007800
0060003000
ENDCHAR
STARTCHAR 0175
ENCODING 373
SWIDTH 744 0
DWIDTH 31 0
BBX 29 33 1 0
BITMAP
00020000
000F8000
001FC000
007FF000
00F8F800
00F07800
00401000
00000000
00000000
00000000
C0020018
E0070038
E0070038
E00F8078
700F8070
700F8070
701DC0F0
381DC0E0
3819C0E0
3838C0E0
1C38E1C0
1C38E1C0
1C3061C0
0E707380
0E707380
0E607380
07E03F00
07E03F00
07C03F00
03C01E00
03C01E00
03C01E00
01800C00
ENDCHAR
STARTCHAR 0176
ENCODING 374
SWIDTH 648 0
DWIDTH 27 0
BBX 27 43 0 0
BITMAP
00040000
000F0000
003F8000
00FFE000
01FBF000
01E0F000
00C06000
00000000
00000000
00000000
00000040
E00000E0
F00001E0
780001C0
780003C0
3C000780
1C000700
1E000F00
0F001E00
07001C00
07803C00
03C03800
01C07000
01E0F000
00E0E000
00F1E000
007BC000
003B8000
003F8000
001F0000
000E0000
000E0000
000E0000
000E0000
000E0000
000E0000
000E0000
000E0000
000E0000
000E0000
000E0000
000E0000
000E0000
ENDCHAR
STARTCHAR 0177
ENCODING 375
SWIDTH 552 0
DWIDTH 23 0
BBX 22 43 1 -10
BITMAP
003000
00F800
01FE00
07FF00
0F8F80
0F0780
000100
000000
000000
000000
C00018
E0003C
E00038
F00078
700070
780070
3800E0
3C00E0
1C01E0
1E01C0
0E03C0
0F0380
070780
078700
038F00
03CE00
01CE00
01FC00
00FC00
00FC00
007800
007800
007000
00F000
00E000
00E000
01C000
01C000
038000
038000
078000
070000
070000
ENDCHAR
STARTCHAR 0178
ENCODING 376
SWIDTH 648 0
DWIDTH 27 0
BBX 27 41 0 0
BITMAP
01E0F000
01E0F000
01E0F000
01E0F000
00000000
00000000
00000000
00000000
00000040
E00000E0
F00001E0
780001C0
780003C0
3C000780
1C000700
1E000F00
0F001E00
07001C00
07803C00
03C03800
01C07000
01E0F000
00E0E000
00F1E000
007BC000
003B8000
003F8000
001F0000
000E0000
000E0000
000E0000
000E0000
000E0000
000E0000
000E0000
000E0000
000E0000
000E0000
000E0000
000E0000
000E0000
ENDCHAR
STARTCHAR 0179
ENCODING 377
SWIDTH 720 0
DWIDTH 30 0
BBX 26 44 2 0
BITMAP
0000C000
0001E000
0003E000
0007C000
000F8000
001F0000
001E0000
000C0000
00000000
00000000
00000000
3FFFFF80
FFFFFFC0
FFFFFFC0
00000380
00000780
00000F00
00001E00
00001C00
00003800
00007800
0000F000
0001E000
0001C000
00038000
00078000
000F0000
001E0000
001C0000
00380000
00780000
00F00000
01E00000
01C00000
03800000
07800000
0F000000
1E000000
1C000000
38000000
78000000
FFFFFFC0
FFFFFFC0
FFFFFFC0
ENDCHAR
STARTCHAR 017A
ENCODING 378
SWIDTH 552 0
DWIDTH 23 0
BBX 18 34 3 0
BITMAP
000C00
001E00
003C00
007800
00F000
01E000
01C000
008000
000000
000000
000000
FFFF80
FFFFC0
FFFFC0
000780
000700
000E00
001E00
003C00
007800
007000
00F000
01E000
03C000
038000
070000
0F0000
1E0000
3C0000
380000
780000
FFFFC0
FFFFC0
FFFFC0
ENDCHAR
STARTCHAR 017B
ENCODING 379
SWIDTH 720 0
DWIDTH 30 0
BBX 26 41 2 0
BITMAP
001E0000
001E0000
001E0000
001E0000
00000000
00000000
00000000
00000000
3FFFFF80
FFFFFFC0
FFFFFFC0
00000380
00000780
00000F00
00001E00
00001C00
00003800
00007800
0000F000
0001E000
0001C000
00038000
00078000
000F0000
001E0000
001C0000
00380000
00780000
00F00000
01E00000
01C00000
03800000
07800000
0F000000
1E000000
1C000000
38000000
78000000
FFFFFFC0
FFFFFFC0
FFFFFFC0
ENDCHAR
STARTCHAR 017C
ENCODING 380
SWIDTH 552 0
DWIDTH 23 0
BBX 18 32 3 0
BITMAP
00C000
01E000
01E000
01E000
00C000
000000
000000
000000
000000
FFFF80
FFFFC0
FFFFC0
000780
000700
000E00
001E00
003C00
007800
007000
00F000
01E000
03C000
038000
070000
0F0000
1E0000
3C0000
380000
780000
FFFFC0
FFFFC0
FFFFC0
ENDCHAR
STARTCHAR 017D
ENCODING 381
SWIDTH 720 0
DWIDTH 30 0
BBX 26 42 2 1
BITMAP
01C0F000
01E1E000
00FFC000
007F8000
001E0000
00040000
00000000
00000000
00000000
3FFFFF80
FFFFFFC0
FFFFFFC0
00000380
00000780
00000F00
00001E00
00001C00
00003800
00007800
0000F000
0001E000
0001C000
00038000
00078000
000F0000
001E0000
001C0000
00380000
00780000
00F00000
01E00000
01C00000
03800000
07800000
0F000000
1E000000
1C000000
38000000
78000000
FFFFFFC0
FFFFFFC0
FFFFFFC0
ENDCHAR
STARTCHAR 017E
ENCODING 382
SWIDTH 552 0
DWIDTH 23 0
BBX 18 33 3 0
BITMAP
100600
3C0E00
1E3E00
0FFC00
07F000
01E000
000000
000000
000000
000000
FFFF80
FFFFC0
FFFFC0
000780
000700
000E00
001E00
003C00
007800
007000
00F000
01E000
03C000
038000
070000
0F0000
1E0000
3C0000
380000
780000
FFFFC0
FFFFC0
FFFFC0
ENDCHAR
STARTCHAR 017F
ENCODING 383
SWIDTH 312 0
DWIDTH 13 0
BBX 11 33 2 0
BITMAP
00C0
07E0
1FE0
3F00
3C00
7800
7000
7000
7000
F000
F000
F000
F000
F000
F000
F000
F000
F000
F000
F000
F000
F000
F000
F000
F000
F000
F000
F000
F000
F000
F000
F000
6000
ENDCHAR
STARTCHAR 018F
ENCODING 399
SWIDTH 840 0
DWIDTH 35 0
BBX 29 33 3 0
BITMAP
007F8000
03FFF000
0FFFFC00
1FC0FE00
3E001F00
18000780
000003C0
000001E0
000000E0
000000F0
00000070
00000078
00000038
00000038
00000038
7FFFFFF8
FFFFFFF8
FFFFFFF8
E0000038
E0000038
E0000038
E0000038
F0000078
70000070
700000F0
780000E0
3C0001E0
1E0003C0
1F000780
0FC01F00
03FFFE00
01FFFC00
007FF000
ENDCHAR
STARTCHAR 0192
ENCODING 402
SWIDTH 480 0
DWIDTH 20 0
BBX 19 43 0 -10
BITMAP
000040
0007E0
001FE0
003FC0
007C00
007800
007000
00F000
00E000
00E000
00E000
03FF80
07FFC0
07FFC0
03FF80
00E000
00E000
00E000
00E000
00E000
00E000
00E000
00E000
00E000
00E000
00E000
00E000
00E000
00E000
00E000
00E000
00E000
00E000
00E000
00E000
00E000
01E000
01E000
03C000
3FC000
FF8000
FE0000
700000
ENDCHAR
STARTCHAR 01A0
ENCODING 416
SWIDTH 912 0
DWIDTH 38 0
BBX 33 36 3 0
BITMAP
0000000C00
0000000E00
0000000E00
000FF00E00
007FFE1C00
01FFFFFC00
03F81FF800
07C003F000
0F0000F800
1E00007C00
3C00003C00
3800001E00
7800000E00
7000000F00
F000000700
E000000700
E000000780
E000000780
E000000380
E000000380
E000000380
E000000780
E000000780
E000000700
F000000700
F000000F00
7000000F00
7800001E00
3C00001E00
3E00003C00
1F00007800
0F8001F000
07E007E000
03FFFFC000
00FFFF0000
003FFC0000
ENDCHAR
STARTCHAR 01A1
ENCODING 417
SWIDTH 672 0
DWIDTH 28 0
BBX 23 27 3 0
BITMAP
000004
00000E
00000E
00000E
00FE1E
07FFFC
0FFFFC
1F03F0
3C00F0
780078
70003C
F0001C
E0001C
E0001C
E0001E
E0000E
E0001E
E0001E
E0001C
E0001C
F0003C
780078
3C00F8
3E01F0
1FFFE0
07FF80
01FE00
ENDCHAR
STARTCHAR 01AF
ENCODING 431
SWIDTH 816 0
DWIDTH 34 0
BBX 31 38 4 -1
BITMAP
0000000E
0000000E
0000000E
0000000E
400000FC
E00001FC
E00001F8
E00001C0
E00001C0
E00001C0
E00001C0
E00001C0
E00001C0
E00001C0
E00001C0
E00001C0
E00001C0
E00001C0
E00001C0
E00001C0
E00001C0
E00001C0
E00001C0
E00001C0
E00001C0
E00001C0
E00001C0
E00001C0
F00003C0
70000380
78000780
78000780
3C000F00
1F003E00
0FF3FC00
07FFF800
01FFE000
001E0000
ENDCHAR
STARTCHAR 01B0
ENCODING 432
SWIDTH 672 0
DWIDTH 28 0
BBX 26 27 3 1
BITMAP
000001C0
000001C0
000001C0
000001C0
60001FC0
F0003F80
F0003F00
F0003800
F0003800
F0003800
F0003800
F0003800
F0003800
F0003800
F0003800
F0003800
F0003800
F0003800
F0003800
70003800
70003800
78007800
3C00F800
3E03F800
1FFFF800
07FFB800
03FE1800
ENDCHAR
STARTCHAR 01CE
ENCODING 462
SWIDTH 672 0
DWIDTH 28 0
BBX 23 33 3 0
BITMAP
060080
0703C0
07CF80
03FF00
00FC00
007800
000000
000000
000000
000000
00FE00
07FF80
0FFFC0
1F03F0
3C00F0
780078
70003C
F0001C
E0001C
E0001E
E0001E
E0000E
E0001E
E0001E
E0001E
F0001E
F0003E
78007E
3C00FE
3E01FE
1FFFDE
07FF9E
01FE0C
ENDCHAR
STARTCHAR 01D4
ENCODING 468
SWIDTH 672 0
DWIDTH 28 0
BBX 21 33 3 0
BITMAP
060080
0703C0
07CF80
03FF00
00FC00
007800
000000
000000
000000
000000
600018
F00038
F00038
F00038
F00038
F00038
F00038
F00038
F00038
F00038
F00038
F00038
F00038
F00038
F00038
700038
700038
780078
3C00F8
3E03F8
1FFFF8
07FFB8
03FE18
ENDCHAR
STARTCHAR 01E6
ENCODING 486
SWIDTH 768 0
DWIDTH 32 0
BBX 26 42 3 1
BITMAP
00701C00
007C7C00
003EF800
000FE000
0007C000
00010000
00000000
00000000
00000000
000FF000
007FFE00
01FFFF00
03F81FC0
07C003C0
0F8001C0
1E000000
3C000000
38000000
78000000
70000000
F0000000
E0000000
E0000000
E0000000
E0000000
E0000000
E001FFC0
E001FFC0
E000FFC0
E00001C0
F00001C0
700001C0
780001C0
780001C0
3C0001C0
1E0001C0
1F0001C0
0F8003C0
07E00FC0
01FFFF80
00FFFF00
003FFC00
ENDCHAR
STARTCHAR 01E7
ENCODING 487
SWIDTH 672 0
DWIDTH 28 0
BBX 23 42 3 -9
BITMAP
060080
0703C0
07CF80
03FF00
00FC00
007800
000000
000000
000000
000000
01FE00
07FF80
0FFFE0
1F03F0
3C00F0
780078
70003C
F0001C
E0001C
E0001E
E0001E
E0000E
E0001E
E0001E
E0001E
E0001E
F0003E
78007E
7C00EE
3E01EE
1FFFCE
0FFF9E
01FE1C
00001C
00001C
60003C
700078
7C00F0
3F03F0
1FFFC0
07FF80
01FE00
ENDCHAR
STARTCHAR 01EA
ENCODING 490
SWIDTH 912 0
DWIDTH 38 0
BBX 33 44 3 -11
BITMAP
000FF00000
007FFE0000
01FFFF8000
03F81FE000
07C003F000
0F0000F800
1E00007C00
3C00003C00
3800001E00
7800000E00
7000000F00
F000000700
E000000700
E000000780
E000000780
E000000380
E000000380
E000000380
E000000780
E000000780
E000000700
F000000700
F000000F00
7000000F00
7800001E00
3C00001E00
3E00003C00
1F00007800
0F8001F000
07E007E000
03FFFFC000
00FFFF0000
003FFC0000
0001C00000
0003C00000
0007800000
000F800000
000F000000
001E000000
001E380000
001F780000
000FF80000
0007F00000
0003C00000
ENDCHAR
STARTCHAR 01EB
ENCODING 491
SWIDTH 672 0
DWIDTH 28 0
BBX 23 33 3 -10
BITMAP
00FE00
07FF80
0FFFC0
1F03F0
3C00F0
780078
70003C
F0001C
E0001C
E0001E
E0001E
E0000E
E0001E
E0001E
E0001C
E0001C
F0003C
780078
3C00F8
3E01F0
1FFFE0
07FF80
01FF80
000F00
001F00
001E00
003C00
003800
003C70
003FF0
001FE0
000FC0
000300
ENDCHAR
STARTCHAR 01FA
ENCODING 506
SWIDTH 696 0
DWIDTH 29 0
BBX 28 52 1 0
BITMAP
00006000
0000F000
0001E000
0003C000
00078000
000F0000
000E0000
00040000
00000000
00040000
001F8000
00398000
0030C000
0030C000
0030C000
003B8000
001F0000
00040000
00000000
00000000
000E0000
000F0000
001F0000
001F8000
001F8000
003B8000
003BC000
0079C000
0071E000
00F0E000
00E0E000
00E07000
01E07000
01C07800
03C03800
03803C00
07801C00
07001C00
07001E00
0F000E00
0E000F00
1FFFFF00
1FFFFF80
1FFFFF80
3C000380
380003C0
780001C0
700001E0
F00000E0
E00000E0
E00000F0
E0000060
ENDCHAR
STARTCHAR 01FB
ENCODING 507
SWIDTH 672 0
DWIDTH 28 0
BBX 23 42 3 0
BITMAP
000380
000780
000F00
001E00
003C00
007C00
007800
000000
000000
007800
00FC00
01CE00
018600
018600
018600
00FE00
007C00
000000
000000
00FE00
07FF80
0FFFC0
1F03F0
3C00F0
780078
70003C
F0001C
E0001C
E0001E
E0001E
E0000E
E0001E
E0001E
E0001E
F0001E
F0003E
78007E
3C00FE
3E01FE
1FFFDE
07FF9E
01FE0C
ENDCHAR
STARTCHAR 01FC
ENCODING 508
SWIDTH 960 0
DWIDTH 40 0
BBX 37 44 1 0
BITMAP
0000001800
0000003C00
0000007C00
000000F800
000001F000
000003E000
000003C000
0000038000
0000000000
0000000000
0000000000
00000FFFF0
00003FFFF8
00007FFFF8
0000FFFFF0
0000F80000
0001F80000
0001F80000
0003F80000
0007F80000
0007780000
000F780000
000E780000
001E780000
003C780000
0038780000
00787FFF00
00707FFF00
00F07FFF00
01E0780000
01C0780000
03C0780000
0380780000
07FFF80000
0FFFF80000
0FFFF80000
1E00780000
1C00780000
3C00780000
7800780000
7000780000
F0007FFFF8
E0007FFFF8
E0003FFFF8
ENDCHAR
STARTCHAR 01FD
ENCODING 509
SWIDTH 1104 0
DWIDTH 46 0
BBX 41 34 3 0
BITMAP
000001C00000
000003C00000
000007C00000
00000F800000
00001F000000
00003E000000
00003C000000
000018000000
000000000000
000000000000
000000000000
00FE001FC000
07FF807FF000
0FFFC0FFF800
1F03F1E03C00
3C00F3C01E00
78007F800F00
70003F000700
F0001E000700
E0001E000380
E0001E000380
E0001FFFFF80
E0000FFFFF80
E0001FFFFF00
E0001E000000
E0001E000000
F0001E000000
F0003F000000
78007F800000
3C00FFC00600
3E01FFE01E00
1FFFDEFFFE00
07FF9E7FF800
01FE0C1FE000
ENDCHAR
STARTCHAR 01FE
ENCODING 510
SWIDTH 888 0
DWIDTH 37 0
BBX 34 44 2 0
BITMAP
0000040000
00001E0000
00003E0000
00007C0000
0000F80000
0000F00000
0001E00000
0000C00000
0000000000
0000000000
0000000000
0007F80080
003FFF01C0
00FFFFC380
01FC0FF700
03E001FE00
0780007C00
0F00007E00
1E0000FE00
1C0001EF00
3C0003C700
3800078780
78000F0380
70001E0380
70003C03C0
70007803C0
7000F001C0
7001E001C0
7003C001C0
70078003C0
700F0003C0
701E000380
783C000380
7878000780
38F0000780
3DE0000F00
1FC0000F00
1F80001E00
0F80003C00
1FC000F800
3FF003F000
79FFFFE000
F07FFF8000
601FFE0000
ENDCHAR
STARTCHAR 01FF
ENCODING 511
SWIDTH 696 0
DWIDTH 29 0
BBX 24 35 3 -1
BITMAP
000180
0003C0
000780
000F80
001F00
003E00
003C00
001000
000000
000000
000000
007E02
03FFCF
0FFFFE
1F81FC
1E0078
3C00FC
7801FC
7003DE
70078E
F00F0E
E01E0E
E03C0E
E0780E
F0F00E
71E00E
73C01E
7F801C
3F003C
3E0078
3F00F8
7FFFF0
F7FFC0
E1FF00
C00000
ENDCHAR
STARTCHAR 0200
ENCODING 512
SWIDTH 696 0
DWIDTH 29 0
BBX 28 44 1 0
BITMAP
00E18000
00E3C000
00F1C000
0071C000
0070E000
0038E000
0038E000
00186000
00000000
00000000
00000000
00000000
000E0000
000F0000
001F0000
001F8000
001F8000
003B8000
003BC000
0079C000
0071E000
00F0E000
00E0E000
00E07000
01E07000
01C07800
03C03800
03803C00
07801C00
07001C00
07001E00
0F000E00
0E000F00
1FFFFF00
1FFFFF80
1FFFFF80
3C000380
380003C0
780001C0
700001E0
F00000E0
E00000E0
E00000F0
E0000060
ENDCHAR
STARTCHAR 0201
ENCODING 513
SWIDTH 672 0
DWIDTH 28 0
BBX 23 34 3 0
BITMAP
030E00
078E00
038E00
038700
01C700
01C300
00C380
00C180
000000
000000
000000
00FE00
07FF80
0FFFC0
1F03F0
3C00F0
780078
70003C
F0001C
E0001C
E0001E
E0001E
E0000E
E0001E
E0001E
E0001E
F0001E
F0003E
78007E
3C00FE
3E01FE
1FFFDE
07FF9E
01FE0C
ENDCHAR
STARTCHAR 0202
ENCODING 514
SWIDTH 696 0
DWIDTH 29 0
BBX 28 43 1 0
BITMAP
00040000
003FC000
00FFE000
00F1F000
01E07000
01C07000
00C07000
00000000
00000000
00000000
00000000
000E0000
000F0000
001F0000
001F8000
001F8000
003B8000
003BC000
0079C000
0071E000
00F0E000
00E0E000
00E07000
01E07000
01C07800
03C03800
03803C00
07801C00
07001C00
07001E00
0F000E00
0E000F00
1FFFFF00
1FFFFF80
1FFFFF80
3C000380
380003C0
780001C0
700001E0
F00000E0
E00000E0
E00000F0
E0000060
ENDCHAR
STARTCHAR 0203
ENCODING 515
SWIDTH 672 0
DWIDTH 28 0
BBX 23 33 3 0
BITMAP
007800
01FE00
03FF80
078780
0703C0
0703C0
060180
000000
000000
000000
00FE00
07FF80
0FFFC0
1F03F0
3C00F0
780078
70003C
F0001C
E0001C
E0001E
E0001E
E0000E
E0001E
E0001E
E0001E
F0001E
F0003E
78007E
3C00FE
3E01FE
1FFFDE
07FF9E
01FE0C
ENDCHAR
STARTCHAR 0204
ENCODING 516
SWIDTH 696 0
DWIDTH 29 0
BBX 23 44 4 0
BITMAP
018600
038F00
01C700
01C700
01C380
00E380
00E180
006180
000000
000000
000000
7FFFFC
FFFFFE
FFFFFE
FFFFFC
E00000
E00000
E00000
E00000
E00000
E00000
E00000
E00000
E00000
E00000
E00000
FFFFC0
FFFFC0
FFFFC0
E00000
E00000
E00000
E00000
E00000
E00000
E00000
E00000
E00000
E00000
E00000
E00000
FFFFFE
FFFFFE
7FFFFE
ENDCHAR
STARTCHAR 0205
ENCODING 517
SWIDTH 624 0
DWIDTH 26 0
BBX 21 34 3 0
BITMAP
071C00
071C00
071E00
078E00
038E00
038700
01C700
018300
000000
000000
000000
01FC00
07FF00
1FFF80
3E03C0
3C01E0
7800F0
F00070
E00070
E00038
E00038
FFFFF8
FFFFF8
FFFFF0
E00000
E00000
E00000
F00000
780000
3C0060
3E01E0
1FFFE0
07FF80
01FE00
ENDCHAR
STARTCHAR 0206
ENCODING 518
SWIDTH 696 0
DWIDTH 29 0
BBX 23 42 4 1
BITMAP
00FF00
03FF80
03C7C0
0781C0
0701C0
0300C0
000000
000000
000000
7FFFFC
FFFFFE
FFFFFE
FFFFFC
E00000
E00000
E00000
E00000
E00000
E00000
E00000
E00000
E00000
E00000
E00000
FFFFC0
FFFFC0
FFFFC0
E00000
E00000
E00000
E00000
E00000
E00000
E00000
E00000
E00000
E00000
E00000
E00000
FFFFFE
FFFFFE
7FFFFE
ENDCHAR
STARTCHAR 0207
ENCODING 519
SWIDTH 624 0
DWIDTH 26 0
BBX 21 33 3 0
BITMAP
00F000
03FE00
07FF00
0F0F00
0E0780
0E0380
0C0100
000000
000000
000000
01FC00
07FF00
1FFF80
3E03C0
3C01E0
7800F0
F00070
E00070
E00038
E00038
FFFFF8
FFFFF8
FFFFF0
E00000
E00000
E00000
F00000
780000
3C0060
3E01E0
1FFFE0
07FF80
01FE00
ENDCHAR
STARTCHAR 0208
ENCODING 520
SWIDTH 288 0
DWIDTH 12 0
BBX 11 44 0 0
BITMAP
E180
E3C0
F1C0
71C0
70E0
38E0
3860
1860
0000
0000
0000
0400
0E00
0E00
0E00
0E00
0E00
0E00
0E00
0E00
0E00
0E00
0E00
0E00
0E00
0E00
0E00
0E00
0E00
0E00
0E00
0E00
0E00
0E00
0E00
0E00
0E00
0E00
0E00
0E00
0E00
0E00
0E00
0600
ENDCHAR
STARTCHAR 0209
ENCODING 521
SWIDTH 288 0
DWIDTH 12 0
BBX 12 34 0 0
BITMAP
61C0
F1C0
71C0
70E0
38E0
38E0
1870
1860
0000
0000
0000
0600
0F00
0F00
0F00
0F00
0F00
0F00
0F00
0F00
0F00
0F00
0F00
0F00
0F00
0F00
0F00
0F00
0F00
0F00
0F00
0F00
0F00
0600
ENDCHAR
STARTCHAR 020A
ENCODING 522
SWIDTH 288 0
DWIDTH 12 0
BBX 13 43 -1 0
BITMAP
0200
1FE0
7FF0
78F8
F038
E038
6018
0000
0000
0000
0200
0700
0700
0700
0700
0700
0700
0700
0700
0700
0700
0700
0700
0700
0700
0700
0700
0700
0700
0700
0700
0700
0700
0700
0700
0700
0700
0700
0700
0700
0700
0700
0300
ENDCHAR
STARTCHAR 020B
ENCODING 523
SWIDTH 288 0
DWIDTH 12 0
BBX 12 33 0 0
BITMAP
0F00
3FC0
7FE0
F0E0
E070
E070
4020
0000
0000
0000
0600
0F00
0F00
0F00
0F00
0F00
0F00
0F00
0F00
0F00
0F00
0F00
0F00
0F00
0F00
0F00
0F00
0F00
0F00
0F00
0F00
0F00
0600
ENDCHAR
STARTCHAR 020C
ENCODING 524
SWIDTH 912 0
DWIDTH 38 0
BBX 33 44 3 0
BITMAP
0018700000
001C700000
001C780000
001C380000
000E380000
000E180000
00061C0000
00060C0000
0000000000
0000000000
0000000000
000FF00000
007FFE0000
01FFFF8000
03F81FE000
07C003F000
0F0000F800
1E00007C00
3C00003C00
3800001E00
7800000E00
7000000F00
F000000700
E000000700
E000000780
E000000780
E000000380
E000000380
E000000380
E000000780
E000000780
E000000700
F000000700
F000000F00
7000000F00
7800001E00
3C00001E00
3E00003C00
1F00007800
0F8001F000
07E007E000
03FFFFC000
00FFFF0000
003FFC0000
ENDCHAR
STARTCHAR 020D
ENCODING 525
SWIDTH 672 0
DWIDTH 28 0
BBX 23 34 3 0
BITMAP
030E00
078E00
038E00
038700
01C700
01C300
00C380
00C180
000000
000000
000000
00FE00
07FF80
0FFFC0
1F03F0
3C00F0
780078
70003C
F0001C
E0001C
E0001E
E0001E
E0000E
E0001E
E0001E
E0001C
E0001C
F0003C
780078
3C00F8
3E01F0
1FFFE0
07FF80
01FE00
ENDCHAR
STARTCHAR 020E
ENCODING 526
SWIDTH 912 0
DWIDTH 38 0
BBX 33 42 3 1
BITMAP
000FF00000
001FF80000
003E3C0000
00381E0000
00380E0000
00300C0000
0000000000
0000000000
0000000000
000FF00000
007FFE0000
01FFFF8000
03F81FE000
07C003F000
0F0000F800
1E00007C00
3C00003C00
3800001E00
7800000E00
7000000F00
F000000700
E000000700
E000000780
E000000780
E000000380
E000000380
E000000380
E000000780
E000000780
E000000700
F000000700
F000000F00
7000000F00
7800001E00
3C00001E00
3E00003C00
1F00007800
0F8001F000
07E007E000
03FFFFC000
00FFFF0000
003FFC0000
ENDCHAR
STARTCHAR 020F
ENCODING 527
SWIDTH 672 0
DWIDTH 28 0
BBX 23 33 3 0
BITMAP
007800
01FE00
03FF80
078780
0703C0
0703C0
060180
000000
000000
000000
00FE00
07FF80
0FFFC0
1F03F0
3C00F0
780078
70003C
F0001C
E0001C
E0001E
E0001E
E0000E
E0001E
E0001E
E0001C
E0001C
F0003C
780078
3C00F8
3E01F0
1FFFE0
07FF80
01FE00
ENDCHAR
STARTCHAR 0210
ENCODING 528
SWIDTH 624 0
DWIDTH 26 0
BBX 21 44 4 0
BITMAP
0E3800
0E3800
0E3C00
071C00
071C00
070E00
038E00
038600
000000
000000
000000
7FC000
FFFC00
FFFF00
FFFF80
E007C0
E001E0
E000E0
E000F0
E00070
E00070
E00070
E00070
E00070
E000F0
E000E0
E001E0
E007C0
FFFF80
FFFF00
FFFC00
E03C00
E01E00
E00F00
E00F00
E00780
E00380
E003C0
E001E0
E001E0
E000F0
E00078
E00078
600038
ENDCHAR
STARTCHAR 0211
ENCODING 529
SWIDTH 456 0
DWIDTH 19 0
BBX 14 34 4 0
BITMAP
71C0
71E0
78E0
38E0
3870
1C70
1C30
0C30
0000
0000
0000
41F8
E7FC
EFFC
FE00
F800
F000
E000
E000
E000
E000
E000
E000
E000
E000
E000
E000
E000
E000
E000
E000
E000
E000
E000
ENDCHAR
STARTCHAR 0212
ENCODING 530
SWIDTH 624 0
DWIDTH 26 0
BBX 21 42 4 1
BITMAP
07F800
0FFE00
1F1E00
1C0F00
1C0700
1C0600
000000
000000
000000
7FC000
FFFC00
FFFF00
FFFF80
E007C0
E001E0
E000E0
E000F0
E00070
E00070
E00070
E00070
E00070
E000F0
E000E0
E001E0
E007C0
FFFF80
FFFF00
FFFC00
E03C00
E01E00
E00F00
E00F00
E00780
E00380
E003C0
E001E0
E001E0
E000F0
E00078
E00078
600038
ENDCHAR
STARTCHAR 0213
ENCODING 531
SWIDTH 456 0
DWIDTH 19 0
BBX 14 33 4 0
BITMAP
0700
3FE0
7FF0
F878
E038
E038
4010
0000
0000
0000
41F8
E7FC
EFFC
FE00
F800
F000
E000
E000
E000
E000
E000
E000
E000
E000
E000
E000
E000
E000
E000
E000
E000
E000
E000
ENDCHAR
STARTCHAR 0214
ENCODING 532
SWIDTH 816 0
DWIDTH 34 0
BBX 26 45 4 -1
BITMAP
00C38000
01E38000
00E38000
00E3C000
0071C000
0071C000
0030E000
0030E000
00000000
00000000
00000000
40000080
E00001C0
E00001C0
E00001C0
E00001C0
E00001C0
E00001C0
E00001C0
E00001C0
E00001C0
E00001C0
E00001C0
E00001C0
E00001C0
E00001C0
E00001C0
E00001C0
E00001C0
E00001C0
E00001C0
E00001C0
E00001C0
E00001C0
E00001C0
F00003C0
70000380
78000780
78000780
3C000F00
1F003E00
0FF3FC00
07FFF800
01FFE000
001E0000
ENDCHAR
STARTCHAR 0215
ENCODING 533
SWIDTH 672 0
DWIDTH 28 0
BBX 21 34 3 0
BITMAP
030E00
078E00
038E00
038700
01C700
01C300
00C380
00C180
000000
000000
000000
600018
F00038
F00038
F00038
F00038
F00038
F00038
F00038
F00038
F00038
F00038
F00038
F00038
F00038
F00038
700038
700038
780078
3C00F8
3E03F8
1FFFF8
07FFB8
03FE18
ENDCHAR
STARTCHAR 0216
ENCODING 534
SWIDTH 816 0
DWIDTH 34 0
BBX 26 43 4 0
BITMAP
007F8000
00FFC000
01E1E000
01C0E000
01C0F000
01806000
00000000
00000000
00000000
40000080
E00001C0
E00001C0
E00001C0
E00001C0
E00001C0
E00001C0
E00001C0
E00001C0
E00001C0
E00001C0
E00001C0
E00001C0
E00001C0
E00001C0
E00001C0
E00001C0
E00001C0
E00001C0
E00001C0
E00001C0
E00001C0
E00001C0
E00001C0
F00003C0
70000380
78000780
78000780
3C000F00
1F003E00
0FF3FC00
07FFF800
01FFE000
001E0000
ENDCHAR
STARTCHAR 0217
ENCODING 535
SWIDTH 672 0
DWIDTH 28 0
BBX 21 33 3 0
BITMAP
007800
01FE00
03FF80
078780
0703C0
0703C0
060180
000000
000000
000000
600018
F00038
F00038
F00038
F00038
F00038
F00038
F00038
F00038
F00038
F00038
F00038
F00038
F00038
F00038
700038
700038
780078
3C00F8
3E03F8
1FFFF8
07FFB8
03FE18
ENDCHAR
STARTCHAR 0218
ENCODING 536
SWIDTH 672 0
DWIDTH 28 0
BBX 22 43 3 -10
BITMAP
01FC00
07FF80
1FFFC0
3F03F0
3C00F0
780078
700038
700010
700000
700000
700000
780000
3C0000
3F0000
0FF000
07FF00
01FFC0
000FE0
0001F0
000078
000038
00003C
00001C
00001C
00001C
C0001C
E0003C
F00038
F80078
7E01F0
3FFFE0
0FFFC0
03FF00
000000
000000
007C00
007E00
000700
000300
038700
03FF00
01FE00
00F800
ENDCHAR
STARTCHAR 0219
ENCODING 537
SWIDTH 528 0
DWIDTH 22 0
BBX 18 33 3 -10
BITMAP
07F000
1FFC00
3FFF00
780F80
700780
F00380
F00000
F00000
780000
7E0000
1FF000
0FFC00
01FF00
000F80
000380
0003C0
0001C0
4003C0
E00380
F80780
7FFF00
3FFE00
0FF800
000000
000000
01F000
01F800
001C00
001C00
0C1C00
0FF800
07F800
03E000
ENDCHAR
STARTCHAR 021A
ENCODING 538
SWIDTH 648 0
DWIDTH 27 0
BBX 26 43 1 -10
BITMAP
7FFFFF00
FFFFFFC0
FFFFFFC0
001C0000
001C0000
001C0000
001C0000
001C0000
001C0000
001C0000
001C0000
001C0000
001C0000
001C0000
001C0000
001C0000
001C0000
001C0000
001C0000
001C0000
001C0000
001C0000
001C0000
001C0000
001C0000
001C0000
001C0000
001C0000
001C0000
001C0000
001C0000
001C0000
001C0000
00000000
00000000
001F0000
001F8000
0001C000
0001C000
00E1C000
00FFC000
007F8000
003E0000
ENDCHAR
STARTCHAR 021B
ENCODING 539
SWIDTH 408 0
DWIDTH 17 0
BBX 14 40 1 -10
BITMAP
0E00
0E00
0E00
0E00
0E00
0E00
0E00
0E00
FFF8
FFF8
FFF8
0E00
0E00
0E00
0E00
0E00
0E00
0E00
0E00
0E00
0E00
0E00
0E00
0E00
0F00
0780
07C0
03FC
01FC
007C
0000
0000
03F0
01F8
0038
001C
1C18
1FF8
0FF0
03E0
ENDCHAR
STARTCHAR 022A
ENCODING 554
SWIDTH 912 0
DWIDTH 38 0
BBX 33 48 3 0
BITMAP
007FFE0000
007FFE0000
003FFE0000
0000000000
0000000000
0000000000
0000000000
003C1C0000
003C3E0000
003C3E0000
003C1C0000
0000000000
0000000000
0000000000
0000000000
000FF00000
007FFE0000
01FFFF8000
03F81FE000
07C003F000
0F0000F800
1E00007C00
3C00003C00
3800001E00
7800000E00
7000000F00
F000000700
E000000700
E000000780
E000000780
E000000380
E000000380
E000000380
E000000780
E000000780
E000000700
F000000700
F000000F00
7000000F00
7800001E00
3C00001E00
3E00003C00
1F00007800
0F8001F000
07E007E000
03FFFFC000
00FFFF0000
003FFC0000
ENDCHAR
STARTCHAR 022B
ENCODING 555
SWIDTH 672 0
DWIDTH 28 0
BBX 23 38 3 0
BITMAP
0FFFC0
0FFFC0
07FF80
000000
000000
000000
020100
078380
0787C0
0787C0
070380
000000
000000
000000
000000
00FE00
07FF80
0FFFC0
1F03F0
3C00F0
780078
70003C
F0001C
E0001C
E0001E
E0001E
E0000E
E0001E
E0001E
E0001C
E0001C
F0003C
780078
3C00F8
3E01F0
1FFFE0
07FF80
01FE00
ENDCHAR
STARTCHAR 022C
ENCODING 556
SWIDTH 912 0
DWIDTH 38 0
BBX 33 47 3 0
BITMAP
003FFE0000
003FFF0000
003FFE0000
0000000000
0000000000
0000000000
000F000000
003FC18000
007FFF8000
0070FF8000
00603E0000
0000000000
0000000000
0000000000
000FF00000
007FFE0000
01FFFF8000
03F81FE000
07C003F000
0F0000F800
1E00007C00
3C00003C00
3800001E00
7800000E00
7000000F00
F000000700
E000000700
E000000780
E000000780
E000000380
E000000380
E000000380
E000000780
E000000780
E000000700
F000000700
F000000F00
7000000F00
7800001E00
3C00001E00
3E00003C00
1F00007800
0F8001F000
07E007E000
03FFFFC000
00FFFF0000
003FFC0000
ENDCHAR
STARTCHAR 022D
ENCODING 557
SWIDTH 672 0
DWIDTH 28 0
BBX 23 37 3 0
BITMAP
07FFC0
0FFFE0
07FFC0
000000
000000
000000
03F000
07FC70
0FFFF0
1E1FE0
0C03C0
000000
000000
000000
00FE00
07FF80
0FFFC0
1F03F0
3C00F0
780078
70003C
F0001C
E0001C
E0001E
E0001E
E0000E
E0001E
E0001E
E0001C
E0001C
F0003C
780078
3C00F8
3E01F0
1FFFE0
07FF80
01FE00
ENDCHAR
STARTCHAR 0230
ENCODING 560
SWIDTH 912 0
DWIDTH 38 0
BBX 33 47 3 0
BITMAP
007FFE0000
007FFE0000
003FFE0000
0000000000
0000000000
0000000000
0003C00000
0003C00000
0003C00000
0001C00000
0000000000
0000000000
0000000000
0000000000
000FF00000
007FFE0000
01FFFF8000
03F81FE000
07C003F000
0F0000F800
1E00007C00
3C00003C00
3800001E00
7800000E00
7000000F00
F000000700
E000000700
E000000780
E000000780
E000000380
E000000380
E000000380
E000000780
E000000780
E000000700
F000000700
F000000F00
7000000F00
7800001E00
3C00001E00
3E00003C00
1F00007800
0F8001F000
07E007E000
03FFFFC000
00FFFF0000
003FFC0000
ENDCHAR
STARTCHAR 0231
ENCODING 561
SWIDTH 672 0
DWIDTH 28 0
BBX 23 37 3 0
BITMAP
0FFFC0
0FFFC0
07FF80
000000
000000
003000
007800
007800
007800
003000
000000
000000
000000
000000
00FE00
07FF80
0FFFC0
1F03F0
3C00F0
780078
70003C
F0001C
E0001C
E0001E
E0001E
E0000E
E0001E
E0001E
E0001C
E0001C
F0003C
780078
3C00F8
3E01F0
1FFFE0
07FF80
01FE00
ENDCHAR
STARTCHAR 0232
ENCODING 562
SWIDTH 648 0
DWIDTH 27 0
BBX 27 40 0 0
BITMAP
01FFF000
03FFF800
01FFF000
00000000
00000000
00000000
00000000
00000040
E00000E0
F00001E0
780001C0
780003C0
3C000780
1C000700
1E000F00
0F001E00
07001C00
07803C00
03C03800
01C07000
01E0F000
00E0E000
00F1E000
007BC000
003B8000
003F8000
001F0000
000E0000
000E0000
000E0000
000E0000
000E0000
000E0000
000E0000
000E0000
000E0000
000E0000
000E0000
000E0000
000E0000
ENDCHAR
STARTCHAR 0233
ENCODING 563
SWIDTH 552 0
DWIDTH 23 0
BBX 22 40 1 -10
BITMAP
0FFFC0
0FFFC0
07FF80
000000
000000
000000
000000
C00018
E0003C
E00038
F00078
700070
780070
3800E0
3C00E0
1C01E0
1E01C0
0E03C0
0F0380
070780
078700
038F00
03CE00
01CE00
01FC00
00FC00
00FC00
007800
007800
007000
00F000
00E000
00E000
01C000
01C000
038000
038000
078000
070000
070000
ENDCHAR
STARTCHAR 0237
ENCODING 567
SWIDTH 288 0
DWIDTH 12 0
BBX 11 33 -4 -10
BITMAP
0060
00E0
00E0
00E0
00E0
00E0
00E0
00E0
00E0
00E0
00E0
00E0
00E0
00E0
00E0
00E0
00E0
00E0
00E0
00E0
00E0
00E0
00E0
00E0
00E0
00E0
01E0
01C0
07C0
3F80
FF00
FE00
7000
ENDCHAR
STARTCHAR 0259
ENCODING 601
SWIDTH 624 0
DWIDTH 26 0
BBX 21 23 2 0
BITMAP
03F800
0FFE00
3FFF80
7C07C0
3001E0
0000E0
000070
000070
000038
000038
000038
FFFFF8
FFFFF8
E00038
E00038
E00070
F00070
7000F0
7801E0
3E03C0
1FFF80
0FFF00
03FC00
ENDCHAR
STARTCHAR 02BB
ENCODING 699
SWIDTH 216 0
DWIDTH 9 0
BBX 4 11 3 23
BITMAP
30
30
70
70
F0
F0
F0
F0
F0
F0
60
ENDCHAR
STARTCHAR 02BC
ENCODING 700
SWIDTH 168 0
DWIDTH 7 0
BBX 4 11 -2 22
BITMAP
60
F0
F0
F0
F0
F0
F0
E0
E0
C0
80
ENDCHAR
STARTCHAR 02C6
ENCODING 710
SWIDTH 384 0
DWIDTH 16 0
BBX 12 6 2 25
BITMAP
0600
0F00
3FC0
7FE0
F9F0
E070
ENDCHAR
STARTCHAR 02C7
ENCODING 711
SWIDTH 384 0
DWIDTH 16 0
BBX 13 6 2 26
BITMAP
C030
E078
F9F0
7FE0
1F80
0F00
ENDCHAR
STARTCHAR 02C9
ENCODING 713
SWIDTH 384 0
DWIDTH 16 0
BBX 13 3 2 26
BITMAP
FFF0
FFF8
FFF0
ENDCHAR
STARTCHAR 02D8
ENCODING 728
SWIDTH 384 0
DWIDTH 16 0
BBX 13 6 2 26
BITMAP
C030
E078
E070
FFF0
7FE0
1FC0
ENDCHAR
STARTCHAR 02D9
ENCODING 729
SWIDTH 192 0
DWIDTH 8 0
BBX 4 5 2 26
BITMAP
60
F0
F0
F0
F0
ENDCHAR
STARTCHAR 02DA
ENCODING 730
SWIDTH 264 0
DWIDTH 11 0
BBX 8 8 2 25
BITMAP
38
7E
C6
C3
83
C7
FE
7C
ENDCHAR
STARTCHAR 02DB
ENCODING 731
SWIDTH 312 0
DWIDTH 13 0
BBX 9 12 2 -10
BITMAP
0800
1C00
3C00
7C00
F800
E000
E000
E380
FF80
FF80
7F00
0C00
ENDCHAR
STARTCHAR 02DC
ENCODING 732
SWIDTH 480 0
DWIDTH 20 0
BBX 16 5 2 26
BITMAP
3F00
7FC7
FFFF
E0FE
C07C
ENDCHAR
STARTCHAR 02DD
ENCODING 733
SWIDTH 360 0
DWIDTH 15 0
BBX 11 9 2 24
BITMAP
0040
38E0
78E0
71C0
71C0
E1C0
E380
C380
C300
ENDCHAR
STARTCHAR 0300
ENCODING 768
SWIDTH 0 0
DWIDTH 0 0
BBX 8 7 2 26
BITMAP
E0
F0
F8
7C
3E
1F
0E
ENDCHAR
STARTCHAR 0301
ENCODING 769
SWIDTH 0 0
DWIDTH 0 0
BBX 8 8 2 26
BITMAP
06
0F
1E
3C
78
F0
E0
40
ENDCHAR
STARTCHAR 0302
ENCODING 770
SWIDTH 0 0
DWIDTH 0 0
BBX 12 6 2 26
BITMAP
0600
0F00
3FC0
7FE0
F9F0
E070
ENDCHAR
STARTCHAR 0303
ENCODING 771
SWIDTH 0 0
DWIDTH 0 0
BBX 16 5 2 26
BITMAP
3F00
7FC7
FFFF
E0FE
C07C
ENDCHAR
STARTCHAR 0304
ENCODING 772
SWIDTH 0 0
DWIDTH 0 0
BBX 14 3 4 27
BITMAP
7FFC
FFFC
7FF8
ENDCHAR
STARTCHAR 0306
ENCODING 774
SWIDTH 0 0
DWIDTH 0 0
BBX 13 7 2 26
BITMAP
C030
E078
E070
F0F0
7FF0
3FC0
0700
ENDCHAR
STARTCHAR 0307
ENCODING 775
SWIDTH 0 0
DWIDTH 0 0
BBX 4 5 4 27
BITMAP
60
F0
F0
F0
60
ENDCHAR
STARTCHAR 0308
ENCODING 776
SWIDTH 0 0
DWIDTH 0 0
BBX 13 5 4 27
BITMAP
0020
F070
F0F8
F0F8
E070
ENDCHAR
STARTCHAR 0309
ENCODING 777
SWIDTH 0 0
DWIDTH 0 0
BBX 9 11 2 25
BITMAP
3C00
7F00
FF80
C380
0380
0380
0780
1F00
3C00
3800
1800
ENDCHAR
STARTCHAR 030A
ENCODING 778
SWIDTH 0 0
DWIDTH 0 0
BBX 8 8 2 25
BITMAP
38
7E
C6
C3
83
C7
FE
7C
ENDCHAR
STARTCHAR 030B
ENCODING 779
SWIDTH 0 0
DWIDTH 0 0
BBX 11 8 2 26
BITMAP
38E0
78E0
71E0
71C0
E1C0
E380
C380
C300
ENDCHAR
STARTCHAR 030C
ENCODING 780
SWIDTH 0 0
DWIDTH 0 0
BBX 13 6 2 27
BITMAP
8010
E078
F9F0
7FE0
1F80
0F00
ENDCHAR
STARTCHAR 030F
ENCODING 783
SWIDTH 0 0
DWIDTH 0 0
BBX 12 8 1 26
BITMAP
61C0
F1C0
71C0
70E0
38E0
3860
1870
1830
ENDCHAR
STARTCHAR 0311
ENCODING 785
SWIDTH 0 0
DWIDTH 0 0
BBX 13 7 2 26
BITMAP
0700
3FE0
7FF0
F078
E038
E038
4010
ENDCHAR
STARTCHAR 0312
ENCODING 786
SWIDTH 0 0
DWIDTH 0 0
BBX 5 11 2 27
BITMAP
18
38
70
70
E0
F0
F0
F8
F8
78
78
ENDCHAR
STARTCHAR 031B
ENCODING 795
SWIDTH 0 0
DWIDTH 0 0
BBX 7 7 0 21
BITMAP
0C
0E
0E
1C
FC
F8
F0
ENDCHAR
STARTCHAR 0323
ENCODING 803
SWIDTH 0 0
DWIDTH 0 0
BBX 5 5 2 -9
BITMAP
60
F0
F8
F0
60
ENDCHAR
STARTCHAR 0324
ENCODING 804
SWIDTH 0 0
DWIDTH 0 0
BBX 13 4 2 -8
BITMAP
7038
F878
F878
7078
ENDCHAR
STARTCHAR 0326
ENCODING 806
SWIDTH 0 0
DWIDTH 0 0
BBX 10 8 2 -10
BITMAP
1F00
1F80
01C0
01C0
C1C0
FF80
FF80
3E00
ENDCHAR
STARTCHAR 0327
ENCODING 807
SWIDTH 0 0
DWIDTH 0 0
BBX 11 12 1 -10
BITMAP
0600
0700
0F00
0E00
0FC0
03E0
01E0
60E0
F1E0
FFC0
7F80
0E00
ENDCHAR
STARTCHAR 0328
ENCODING 808
SWIDTH 0 0
DWIDTH 0 0
BBX 9 12 2 -10
BITMAP
0800
1C00
3C00
7C00
F800
F000
E000
E380
FF80
FF80
7F00
0C00
ENDCHAR
STARTCHAR 032E
ENCODING 814
SWIDTH 0 0
DWIDTH 0 0
BBX 13 6 2 -9
BITMAP
E030
E078
F070
FFF0
7FE0
1F80
ENDCHAR
STARTCHAR 0331
ENCODING 817
SWIDTH 0 0
DWIDTH 0 0
BBX 14 3 2 -7
BITMAP
FFFC
FFFC
7FFC
ENDCHAR
STARTCHAR 0335
ENCODING 821
SWIDTH 0 0
DWIDTH 0 0
BBX 16 3 3 12
BITMAP
7FFE
FFFF
FFFF
ENDCHAR
STARTCHAR 0336
ENCODING 822
SWIDTH 0 0
DWIDTH 0 0
BBX 33 2 2 12
BITMAP
FFFFFFFF80
FFFFFFFF80
ENDCHAR
STARTCHAR 0344
ENCODING 836
SWIDTH 0 0
DWIDTH 0 0
BBX 17 9 -8 27
BITMAP
00E000
00E000
00E000
01E000
01E000
F1C780
F1C780
F3C780
F18780
ENDCHAR
STARTCHAR 0374
ENCODING 884
SWIDTH 264 0
DWIDTH 11 0
BBX 7 12 2 23
BITMAP
0E
0E
1E
1C
3C
38
78
78
70
F0
E0
E0
ENDCHAR
STARTCHAR 0375
ENCODING 885
SWIDTH 264 0
DWIDTH 11 0
BBX 7 13 2 -12
BITMAP
0C
0E
1E
1C
3C
38
78
78
70
F0
E0
E0
C0
ENDCHAR
STARTCHAR 037E
ENCODING 894
SWIDTH 192 0
DWIDTH 8 0
BBX 6 30 1 -7
BITMAP
20
78
F8
F8
78
00
00
00
00
00
00
00
00
00
00
00
00
00
00
38
7C
7C
3C
3C
1C
1C
18
38
30
20
ENDCHAR
STARTCHAR 0384
ENCODING 900
SWIDTH 240 0
DWIDTH 10 0
BBX 6 8 2 27
BITMAP
1C
3C
38
78
70
F0
F0
E0
ENDCHAR
STARTCHAR 0385
ENCODING 901
SWIDTH 576 0
DWIDTH 24 0
BBX 17 9 4 27
BITMAP
00E000
00E000
01E000
01E000
01C000
F1C780
F3C780
F3C780
E18700
ENDCHAR
STARTCHAR 0386
ENCODING 902
SWIDTH 696 0
DWIDTH 29 0
BBX 28 32 1 1
BITMAP
0E0E0000
0E0F0000
1E1F0000
1E1F8000
3C1F8000
3C3B8000
383BC000
3879C000
0071E000
00F0E000
00E0E000
00E07000
01E07000
01C07800
03C03800
03803C00
07801C00
07001C00
07001E00
0F000E00
0E000F00
1FFFFF00
1FFFFF80
1FFFFF80
3C000380
380003C0
780001C0
700001E0
F00000E0
E00000E0
E00000F0
E0000060
ENDCHAR
STARTCHAR 0387
ENCODING 903
SWIDTH 192 0
DWIDTH 8 0
BBX 4 5 2 18
BITMAP
60
F0
F0
F0
F0
ENDCHAR
STARTCHAR 0388
ENCODING 904
SWIDTH 696 0
DWIDTH 29 0
BBX 33 33 -6 0
BITMAP
081FFFFF00
1C3FFFFF80
3C3FFFFF80
383FFFFF00
7838000000
7838000000
F038000000
F038000000
E038000000
0038000000
0038000000
0038000000
0038000000
0038000000
0038000000
003FFFF000
003FFFF000
003FFFF000
0038000000
0038000000
0038000000
0038000000
0038000000
0038000000
0038000000
0038000000
0038000000
0038000000
0038000000
0038000000
003FFFFF80
003FFFFF80
001FFFFF80
ENDCHAR
STARTCHAR 0389
ENCODING 905
SWIDTH 840 0
DWIDTH 35 0
BBX 37 33 -6 0
BITMAP
0810000010
1C38000038
3C38000038
3838000038
7838000038
7838000038
F038000038
F038000038
E038000038
0038000038
0038000038
0038000038
0038000038
0038000038
0038000038
003FFFFFF8
003FFFFFF8
003FFFFFF8
0038000038
0038000038
0038000038
0038000038
0038000038
0038000038
0038000038
0038000038
0038000038
0038000038
0038000038
0038000038
0038000038
0038000038
0018000038
ENDCHAR
STARTCHAR 038A
ENCODING 906
SWIDTH 288 0
DWIDTH 12 0
BBX 13 33 -6 0
BITMAP
0810
1C38
3C38
3838
7838
7838
F038
F038
E038
0038
0038
0038
0038
0038
0038
0038
0038
0038
0038
0038
0038
0038
0038
0038
0038
0038
0038
0038
0038
0038
0038
0038
0018
ENDCHAR
STARTCHAR 038C
ENCODING 908
SWIDTH 912 0
DWIDTH 38 0
BBX 39 33 -3 0
BITMAP
00003FC000
1C01FFF800
3C07FFFE00
380FE07F80
781F000FC0
703C0003E0
F0780001F0
E0F00000F0
E0E0000078
01E0000038
01C000003C
03C000001C
038000001C
038000001E
038000001E
038000000E
038000000E
038000000E
038000001E
038000001E
038000001C
03C000001C
03C000003C
01C000003C
01E0000078
00F0000078
00F80000F0
007C0001E0
003E0007C0
001F801F80
000FFFFF00
0003FFFC00
0000FFF000
ENDCHAR
STARTCHAR 038E
ENCODING 910
SWIDTH 648 0
DWIDTH 27 0
BBX 36 33 -9 0
BITMAP
0800000020
1C70000070
3C780000F0
3C3C0000E0
783C0001E0
781E0003C0
700E000380
F00F000780
E007800F00
0003800E00
0003C01E00
0001E01C00
0000E03800
0000F07800
0000707000
000078F000
00003DE000
00001DC000
00001FC000
00000F8000
0000070000
0000070000
0000070000
0000070000
0000070000
0000070000
0000070000
0000070000
0000070000
0000070000
0000070000
0000070000
0000070000
ENDCHAR
STARTCHAR 038F
ENCODING 911
SWIDTH 864 0
DWIDTH 36 0
BBX 37 33 -3 0
BITMAP
00007F8000
3C07FFF800
3C0FFFFE00
783FC07F00
787E000F80
70F80007C0
F0F00003E0
E1E00001E0
E1C00000F0
03C00000F0
0380000070
0380000070
0380000078
0380000078
0380000078
0380000078
0380000070
0380000070
0380000070
03C00000F0
01C00000E0
01E00001E0
00F00003C0
00F80007C0
007C000F80
003F003F00
000FC0FC00
0007E0F800
0000E0E000
0000E0E000
03FFE0FFF0
03FFC0FFF8
03FFC0FFF0
ENDCHAR
STARTCHAR 0390
ENCODING 912
SWIDTH 384 0
DWIDTH 16 0
BBX 17 36 -3 0
BITMAP
00E000
00E000
00E000
00E000
01E000
F1C780
F1C780
F1C780
718380
000000
000000
000000
000000
018000
038000
03C000
03C000
03C000
03C000
03C000
03C000
03C000
03C000
03C000
03C000
03C000
03C000
03C000
03C000
03C000
01C000
01E000
00F000
00FF00
007F80
001F00
ENDCHAR
STARTCHAR 0391
ENCODING 913
SWIDTH 696 0
DWIDTH 29 0
BBX 28 32 1 1
BITMAP
000E0000
000F0000
001F0000
001F8000
001F8000
003B8000
003BC000
0079C000
0071E000
00F0E000
00E0E000
00E07000
01E07000
01C07800
03C03800
03803C00
07801C00
07001C00
07001E00
0F000E00
0E000F00
1FFFFF00
1FFFFF80
1FFFFF80
3C000380
380003C0
780001C0
700001E0
F00000E0
E00000E0
E00000F0
E0000060
ENDCHAR
STARTCHAR 0392
ENCODING 914
SWIDTH 696 0
DWIDTH 29 0
BBX 23 33 4 0
BITMAP
7FF800
FFFF00
FFFFC0
FFFFE0
E001F0
E00070
E00078
E00038
E00038
E00078
E00078
E00070
E000F0
E001E0
FFFFC0
FFFF80
FFFFE0
E001F0
E00078
E0003C
E0001C
E0001C
E0001E
E0001E
E0001E
E0001C
E0001C
E0003C
E00078
E001F8
FFFFF0
FFFFC0
7FFF00
ENDCHAR
STARTCHAR 0393
ENCODING 915
SWIDTH 600 0
DWIDTH 25 0
BBX 22 33 2 0
BITMAP
7FFFF8
FFFFFC
FFFFFC
FFFFF8
E00000
E00000
E00000
E00000
E00000
E00000
E00000
E00000
E00000
E00000
E00000
E00000
E00000
E00000
E00000
E00000
E00000
E00000
E00000
E00000
E00000
E00000
E00000
E00000
E00000
E00000
E00000
E00000
C00000
ENDCHAR
STARTCHAR 0394
ENCODING 916
SWIDTH 696 0
DWIDTH 29 0
BBX 28 33 1 0
BITMAP
00060000
000E0000
000F0000
001F0000
001F8000
003F8000
003F8000
003BC000
0079C000
0071E000
00F1E000
00F0F000
00E0F000
01E07000
01C07800
03C03800
03803C00
07803C00
07801C00
07001E00
0F000E00
0E000F00
1E000700
1C000780
3C000780
3C000380
380003C0
780001C0
700001E0
F00000E0
FFFFFFE0
FFFFFFF0
FFFFFFE0
ENDCHAR
STARTCHAR 0395
ENCODING 917
SWIDTH 696 0
DWIDTH 29 0
BBX 23 33 4 0
BITMAP
7FFFFC
FFFFFE
FFFFFE
FFFFFC
E00000
E00000
E00000
E00000
E00000
E00000
E00000
E00000
E00000
E00000
E00000
FFFFC0
FFFFC0
FFFFC0
E00000
E00000
E00000
E00000
E00000
E00000
E00000
E00000
E00000
E00000
E00000
E00000
FFFFFE
FFFFFE
7FFFFE
ENDCHAR
STARTCHAR 0396
ENCODING 918
SWIDTH 720 0
DWIDTH 30 0
BBX 26 33 2 0
BITMAP
3FFFFF80
FFFFFFC0
FFFFFFC0
00000380
00000780
00000F00
00001E00
00001C00
00003800
00007800
0000F000
0001E000
0001C000
00038000
00078000
000F0000
001E0000
001C0000
00380000
00780000
00F00000
01E00000
01C00000
03800000
07800000
0F000000
1E000000
1C000000
38000000
78000000
FFFFFFC0
FFFFFFC0
FFFFFFC0
ENDCHAR
STARTCHAR 0397
ENCODING 919
SWIDTH 840 0
DWIDTH 35 0
BBX 27 33 4 0
BITMAP
40000040
E00000E0
E00000E0
E00000E0
E00000E0
E00000E0
E00000E0
E00000E0
E00000E0
E00000E0
E00000E0
E00000E0
E00000E0
E00000E0
E00000E0
FFFFFFE0
FFFFFFE0
FFFFFFE0
E00000E0
E00000E0
E00000E0
E00000E0
E00000E0
E00000E0
E00000E0
E00000E0
E00000E0
E00000E0
E00000E0
E00000E0
E00000E0
E00000E0
600000E0
ENDCHAR
STARTCHAR 0398
ENCODING 920
SWIDTH 912 0
DWIDTH 38 0
BBX 33 33 3 0
BITMAP
000FF00000
007FFE0000
01FFFF8000
03F81FE000
07C003F000
0F0000F800
1E00007C00
3C00003C00
3800001E00
7800000E00
7000000F00
F000000700
E000000700
E000000780
E000000780
E07FFF0380
E0FFFF8380
E0FFFF0380
E000000780
E000000780
E000000700
F000000700
F000000F00
7000000F00
7800001E00
3C00001E00
3E00003C00
1F00007800
0F8001F000
07E007E000
03FFFFC000
00FFFF0000
003FFC0000
ENDCHAR
STARTCHAR 0399
ENCODING 921
SWIDTH 288 0
DWIDTH 12 0
BBX 3 33 4 0
BITMAP
40
E0
E0
E0
E0
E0
E0
E0
E0
E0
E0
E0
E0
E0
E0
E0
E0
E0
E0
E0
E0
E0
E0
E0
E0
E0
E0
E0
E0
E0
E0
E0
60
ENDCHAR
STARTCHAR 039A
ENCODING 922
SWIDTH 648 0
DWIDTH 27 0
BBX 21 33 4 0
BITMAP
400000
E00038
E00078
E000F8
E001F0
E003E0
E007C0
E00F80
E01F00
E03E00
E07C00
E0F800
E1F000
E3E000
E7C000
EFC000
FFE000
FEF000
FCF000
F87800
F03C00
E03C00
E01E00
E00F00
E00780
E00780
E003C0
E001E0
E000F0
E000F0
E00078
E00038
600018
ENDCHAR
STARTCHAR 039B
ENCODING 923
SWIDTH 672 0
DWIDTH 28 0
BBX 27 33 1 0
BITMAP
00040000
000E0000
001E0000
001F0000
001F0000
003F0000
003B8000
007B8000
0073C000
0071C000
00E1C000
00E0E000
01E0E000
01C0F000
03C07000
03807800
03803800
07803800
07003C00
0F001C00
0E001E00
0E000E00
1E000E00
1C000F00
3C000700
38000780
38000380
78000380
700003C0
F00001C0
E00001E0
E00000E0
E00000C0
ENDCHAR
STARTCHAR 039C
ENCODING 924
SWIDTH 984 0
DWIDTH 41 0
BBX 33 33 4 0
BITMAP
4000000000
E000000380
F000000780
F000000780
F800000F80
F800000F80
FC00001F80
FC00001F80
EE00003F80
EE00003F80
E700007780
E700007780
E38000E780
E38000E780
E1C001C780
E1C001C780
E0E0038780
E0E0038780
E070070780
E070070780
E0380E0780
E0380E0780
E01C1C0780
E01C1C0780
E00E380780
E00E380780
E007700780
E007700780
E003E00780
E003E00780
E001C00780
E001C00780
6000000300
ENDCHAR
STARTCHAR 039D
ENCODING 925
SWIDTH 816 0
DWIDTH 34 0
BBX 26 33 4 0
BITMAP
40000080
E00001C0
F00001C0
F80001C0
FC0001C0
FC0001C0
EE0001C0
EF0001C0
E78001C0
E38001C0
E1C001C0
E1E001C0
E0F001C0
E07801C0
E03801C0
E03C01C0
E01E01C0
E00F01C0
E00701C0
E00781C0
E003C1C0
E001E1C0
E000E1C0
E00071C0
E00079C0
E0003DC0
E0001DC0
E0000FC0
E0000FC0
E00007C0
E00003C0
E00001C0
600001C0
ENDCHAR
STARTCHAR 039E
ENCODING 926
SWIDTH 768 0
DWIDTH 32 0
BBX 28 33 2 0
BITMAP
3FFFFFC0
FFFFFFF0
FFFFFFF0
7FFFFFE0
00000000
00000000
00000000
00000000
00000000
00000000
00000000
00000000
00000000
00000000
00000000
0FFFFF00
0FFFFF00
0FFFFF00
00000000
00000000
00000000
00000000
00000000
00000000
00000000
00000000
00000000
00000000
00000000
00000000
FFFFFFE0
FFFFFFF0
FFFFFFE0
ENDCHAR
STARTCHAR 039F
ENCODING 927
SWIDTH 912 0
DWIDTH 38 0
BBX 33 33 3 0
BITMAP
000FF00000
007FFE0000
01FFFF8000
03F81FE000
07C003F000
0F0000F800
1E00007C00
3C00003C00
3800001E00
7800000E00
7000000F00
F000000700
E000000700
E000000780
E000000780
E000000380
E000000380
E000000380
E000000780
E000000780
E000000700
F000000700
F000000F00
7000000F00
7800001E00
3C00001E00
3E00003C00
1F00007800
0F8001F000
07E007E000
03FFFFC000
00FFFF0000
003FFC0000
ENDCHAR
STARTCHAR 03A0
ENCODING 928
SWIDTH 816 0
DWIDTH 34 0
BBX 26 33 4 0
BITMAP
7FFFFF80
FFFFFFC0
FFFFFFC0
E00001C0
E00001C0
E00001C0
E00001C0
E00001C0
E00001C0
E00001C0
E00001C0
E00001C0
E00001C0
E00001C0
E00001C0
E00001C0
E00001C0
E00001C0
E00001C0
E00001C0
E00001C0
E00001C0
E00001C0
E00001C0
E00001C0
E00001C0
E00001C0
E00001C0
E00001C0
E00001C0
E00001C0
E00001C0
600001C0
ENDCHAR
STARTCHAR 03A1
ENCODING 929
SWIDTH 624 0
DWIDTH 26 0
BBX 21 33 4 0
BITMAP
7FE000
FFFE00
FFFF80
FFFFC0
E003E0
E001E0
E000F0
E00070
E00070
E00078
E00078
E00078
E00078
E00070
E00070
E000F0
E001E0
E003E0
FFFFC0
FFFF80
FFFE00
FFE000
E00000
E00000
E00000
E00000
E00000
E00000
E00000
E00000
E00000
E00000
600000
ENDCHAR
STARTCHAR 03A3
ENCODING 931
SWIDTH 696 0
DWIDTH 29 0
BBX 26 33 2 0
BITMAP
3FFFFF00
7FFFFFC0
7FFFFFC0
78000000
3C000000
1E000000
0F000000
0F000000
07800000
03C00000
01E00000
00F00000
00F00000
00780000
003C0000
001E0000
000E0000
001C0000
003C0000
00780000
00700000
00E00000
01E00000
03C00000
07800000
07000000
0E000000
1E000000
3C000000
78000000
7FFFFF80
FFFFFFC0
7FFFFF80
ENDCHAR
STARTCHAR 03A4
ENCODING 932
SWIDTH 648 0
DWIDTH 27 0
BBX 26 33 1 0
BITMAP
7FFFFF00
FFFFFFC0
FFFFFFC0
001C0000
001C0000
001C0000
001C0000
001C0000
001C0000
001C0000
001C0000
001C0000
001C0000
001C0000
001C0000
001C0000
001C0000
001C0000
001C0000
001C0000
001C0000
001C0000
001C0000
001C0000
001C0000
001C0000
001C0000
001C0000
001C0000
001C0000
001C0000
001C0000
001C0000
ENDCHAR
STARTCHAR 03A5
ENCODING 933
SWIDTH 648 0
DWIDTH 27 0
BBX 27 33 0 0
BITMAP
00000040
E00000E0
F00001E0
780001C0
780003C0
3C000780
1C000700
1E000F00
0F001E00
07001C00
07803C00
03C03800
01C07000
01E0F000
00E0E000
00F1E000
007BC000
003B8000
003F8000
001F0000
000E0000
000E0000
000E0000
000E0000
000E0000
000E0000
000E0000
000E0000
000E0000
000E0000
000E0000
000E0000
000E0000
ENDCHAR
STARTCHAR 03A6
ENCODING 934
SWIDTH 912 0
DWIDTH 38 0
BBX 34 35 2 -1
BITMAP
0000C00000
0001E00000
0001E00000
0001E00000
003FFF0000
01FFFFE000
03FFEFF000
0FC1E0FC00
1F01E03C00
1E01E01E00
3C01E00F00
3801E00700
7801E00780
7001E00380
7001E00380
7001E003C0
F001E003C0
F001E003C0
F001E003C0
F001E003C0
7001E00380
7001E00380
7001E00380
7801E00780
3C01E00F00
1C01E00F00
1F01E03E00
0F81E07C00
07F1E3F800
01FFFFE000
007FFF8000
0001E00000
0001E00000
0001E00000
0000C00000
ENDCHAR
STARTCHAR 03A7
ENCODING 935
SWIDTH 696 0
DWIDTH 29 0
BBX 26 32 2 1
BITMAP
70000380
70000780
78000780
3C000F00
1E001E00
0E003C00
0F003C00
07807800
03C0F000
03C0E000
01E1E000
00F3C000
00778000
007F0000
003F0000
001E0000
003F0000
007F8000
00F78000
00E3C000
01E1E000
03C0F000
0780F000
07807800
0F003C00
1E003C00
3C001E00
3C000F00
78000780
F0000780
E00003C0
E0000180
ENDCHAR
STARTCHAR 03A8
ENCODING 936
SWIDTH 912 0
DWIDTH 38 0
BBX 30 33 4 0
BITMAP
40000000
E0070038
E007803C
E007803C
E007803C
E007803C
E007803C
E007803C
E007803C
E007803C
E007803C
E007803C
E007803C
E007803C
F0078038
F0078038
70078078
78078078
380780F0
3E0781F0
1F0787E0
0FFFFFC0
07FFFF00
00FFFC00
00078000
00078000
00078000
00078000
00078000
00078000
00078000
00070000
00030000
ENDCHAR
STARTCHAR 03A9
ENCODING 937
SWIDTH 864 0
DWIDTH 36 0
BBX 31 33 3 0
BITMAP
001FE000
01FFFE00
03FFFF80
0FF01FC0
1F8003E0
3E0001F0
3C0000F8
78000078
7000003C
F000003C
E000001C
E000001C
E000001E
E000001E
E000001E
E000001E
E000001C
E000001C
E000001C
F000003C
70000038
78000078
3C0000F0
3E0001F0
1F0003E0
0FC00FC0
03F03F00
01F83E00
00383800
00383800
FFF83FFC
FFF03FFE
FFF03FFC
ENDCHAR
STARTCHAR 03AA
ENCODING 938
SWIDTH 288 0
DWIDTH 12 0
BBX 13 41 -1 0
BITMAP
7078
F878
F878
7078
0000
0000
0000
0000
0200
0700
0700
0700
0700
0700
0700
0700
0700
0700
0700
0700
0700
0700
0700
0700
0700
0700
0700
0700
0700
0700
0700
0700
0700
0700
0700
0700
0700
0700
0700
0700
0300
ENDCHAR
STARTCHAR 03AB
ENCODING 939
SWIDTH 648 0
DWIDTH 27 0
BBX 27 41 0 0
BITMAP
01E0F000
01E0F000
01E0F000
01E0F000
00000000
00000000
00000000
00000000
00000040
E00000E0
F00001E0
780001C0
780003C0
3C000780
1C000700
1E000F00
0F001E00
07001C00
07803C00
03C03800
01C07000
01E0F000
00E0E000
00F1E000
007BC000
003B8000
003F8000
001F0000
000E0000
000E0000
000E0000
000E0000
000E0000
000E0000
000E0000
000E0000
000E0000
000E0000
000E0000
000E0000
000E0000
ENDCHAR
STARTCHAR 03AC
ENCODING 940
SWIDTH 768 0
DWIDTH 32 0
BBX 26 35 3 1
BITMAP
000E0000
000E0000
001E0000
001C0000
003C0000
00380000
00780000
00700000
00000000
00000000
00000000
00000000
01FC0180
07FF01C0
1FFFC3C0
3E03E380
3C01E380
7800F700
F0007700
F0003F00
E0003E00
E0003E00
E0001C00
E0001C00
E0001E00
E0001E00
E0003F00
E0003700
F0007700
7800E380
7C01E380
3E03C3C0
1FFF81C0
07FF01C0
03FC00C0
ENDCHAR
STARTCHAR 03AD
ENCODING 941
SWIDTH 600 0
DWIDTH 25 0
BBX 20 35 3 0
BITMAP
000E00
001E00
001C00
003C00
003800
007800
007000
007000
000000
000000
000000
000000
03FC00
1FFF80
3FFFE0
7C03F0
7800F0
700030
F00000
F00000
700000
780000
3FFE00
0FFE00
3FFE00
780000
F00000
E00000
E00000
E00000
F00020
7801F0
7FFFF0
1FFFC0
07FF00
ENDCHAR
STARTCHAR 03AE
ENCODING 942
SWIDTH 672 0
DWIDTH 28 0
BBX 21 45 4 -10
BITMAP
001C00
001C00
003C00
003C00
007800
007800
00F000
007000
000000
000000
000000
000000
41FC00
E7FF00
EFFFC0
FE07E0
F801E0
F000F0
F00070
E00078
E00078
E00038
E00038
E00038
E00038
E00038
E00038
E00038
E00038
E00038
E00038
E00038
E00038
E00038
E00038
000038
000038
000038
000038
000038
000038
000038
000038
000038
000010
ENDCHAR
STARTCHAR 03AF
ENCODING 943
SWIDTH 384 0
DWIDTH 16 0
BBX 11 35 3 0
BITMAP
0E00
1E00
1C00
3C00
3800
7800
7000
7000
0000
0000
0000
0000
6000
E000
F000
F000
F000
F000
F000
F000
F000
F000
F000
F000
F000
F000
F000
F000
F000
7000
7800
3C00
3FC0
1FE0
07C0
ENDCHAR
STARTCHAR 03B0
ENCODING 944
SWIDTH 672 0
DWIDTH 28 0
BBX 20 36 4 0
BITMAP
003800
003800
003800
007800
007000
3C71E0
3CF1E0
3CF1E0
3861C0
000000
000000
000000
000000
400020
E00070
E00070
E00070
E00070
E00070
E00070
E00070
E00070
E00070
E00070
E00070
E00070
E00070
E00070
E00070
F000F0
7000E0
7801E0
3E07C0
3FFF80
0FFF00
03FC00
ENDCHAR
STARTCHAR 03B1
ENCODING 945
SWIDTH 768 0
DWIDTH 32 0
BBX 26 23 3 0
BITMAP
01FC0180
07FF01C0
1FFFC3C0
3E03E380
3C01E380
7800F700
F0007700
F0003F00
E0003E00
E0003E00
E0001C00
E0001C00
E0001E00
E0001E00
E0003F00
E0003700
F0007700
7800E380
7C01E380
3E03C3C0
1FFF81C0
07FF01C0
03FC00C0
ENDCHAR
STARTCHAR 03B2
ENCODING 946
SWIDTH 696 0
DWIDTH 29 0
BBX 22 43 4 -10
BITMAP
002000
07FE00
1FFF00
3F0FC0
3C03C0
7801E0
7000E0
E000E0
E000E0
E000E0
E000E0
E000E0
E001C0
E00780
E1FF00
E1FF80
E1FFE0
E001F0
E00078
E0003C
E0001C
E0001C
E0001C
E0001C
E0001C
F0001C
F0003C
F80038
FC0078
FF01F0
EFFFE0
E3FFC0
E0FF00
E00000
E00000
E00000
E00000
E00000
E00000
E00000
E00000
E00000
400000
ENDCHAR
STARTCHAR 03B3
ENCODING 947
SWIDTH 528 0
DWIDTH 22 0
BBX 21 32 1 -9
BITMAP
C00030
E00078
E00070
F00070
7000E0
7800E0
3801E0
3801C0
1C03C0
1C0380
1E0380
0E0700
0F0700
070E00
070E00
039E00
039C00
01FC00
01F800
01F800
00F000
00F000
007000
007000
007000
007000
007000
007000
007000
007000
007000
006000
ENDCHAR
STARTCHAR 03B4
ENCODING 948
SWIDTH 672 0
DWIDTH 28 0
BBX 22 33 3 0
BITMAP
1FFFF0
3FFFF8
3FFFF8
3E0000
0F0000
07C000
03E000
01F000
00F800
007C00
003F00
03FF80
0FFFC0
1F87E0
3E01F0
780078
700038
F0003C
E0001C
E0001C
E0001C
E0001C
E0001C
E0001C
E0001C
E0003C
F00038
780078
3C00F0
3E03E0
1FFFC0
07FF80
01FE00
ENDCHAR
STARTCHAR 03B5
ENCODING 949
SWIDTH 600 0
DWIDTH 25 0
BBX 20 23 3 0
BITMAP
03FC00
1FFF80
3FFFE0
7C03F0
7800F0
700030
F00000
F00000
700000
780000
3FFE00
0FFE00
3FFE00
780000
F00000
E00000
E00000
E00000
F00020
7801F0
7FFFF0
1FFFC0
07FF00
ENDCHAR
STARTCHAR 03B6
ENCODING 950
SWIDTH 528 0
DWIDTH 22 0
BBX 19 43 2 -10
BITMAP
3FFFC0
FFFFE0
7FFFE0
0003C0
000780
000F00
001E00
003C00
007800
01F000
03C000
078000
070000
0F0000
1E0000
1C0000
380000
780000
700000
700000
F00000
E00000
E00000
E00000
E00000
F00000
700000
780000
7C0000
3E0000
1FFC00
07FF00
01FF80
0003C0
0001C0
0001E0
0001E0
0001E0
0001C0
0007C0
003F80
003F00
001C00
ENDCHAR
STARTCHAR 03B7
ENCODING 951
SWIDTH 672 0
DWIDTH 28 0
BBX 21 33 4 -10
BITMAP
41FC00
E7FF00
EFFFC0
FE07E0
F801E0
F000F0
F00070
E00078
E00078
E00038
E00038
E00038
E00038
E00038
E00038
E00038
E00038
E00038
E00038
E00038
E00038
E00038
E00038
000038
000038
000038
000038
000038
000038
000038
000038
000038
000010
ENDCHAR
STARTCHAR 03B8
ENCODING 952
SWIDTH 672 0
DWIDTH 28 0
BBX 23 33 3 0
BITMAP
00F800
03FF00
0FFFC0
1F87E0
1E01E0
3C00F0
780078
700038
700038
F0003C
E0001C
E0001C
E0001C
E0001C
E0001C
FFFFFE
FFFFFE
FFFFFE
E0001C
E0001C
E0001C
E0001C
E0001C
E0001C
700038
700038
780078
380070
3C00F0
1F03E0
0FFFC0
07FF80
01FE00
ENDCHAR
STARTCHAR 03B9
ENCODING 953
SWIDTH 384 0
DWIDTH 16 0
BBX 11 23 3 0
BITMAP
6000
E000
F000
F000
F000
F000
F000
F000
F000
F000
F000
F000
F000
F000
F000
F000
F000
7000
7800
3C00
3FC0
1FE0
07C0
ENDCHAR
STARTCHAR 03BA
ENCODING 954
SWIDTH 576 0
DWIDTH 24 0
BBX 17 23 4 0
BITMAP
400180
E00780
E00F80
E01F00
E03C00
E07800
E0F000
E1E000
E3C000
E78000
FF8000
FF8000
FFC000
F1E000
E0F000
E07800
E03C00
E03C00
E01E00
E00F00
E00780
E00380
E00180
ENDCHAR
STARTCHAR 03BB
ENCODING 955
SWIDTH 528 0
DWIDTH 22 0
BBX 20 33 1 0
BITMAP
040000
0E0000
0E0000
0F0000
070000
078000
038000
03C000
01C000
01E000
00E000
00F000
01F000
01F000
03F800
03F800
03BC00
079C00
071E00
0F0E00
0E0F00
0E0F00
1E0780
1C0780
3C0380
3803C0
7801C0
7001E0
7000E0
F000F0
E00070
E00070
C00030
ENDCHAR
STARTCHAR 03BC
ENCODING 956
SWIDTH 672 0
DWIDTH 28 0
BBX 20 33 4 -10
BITMAP
400030
E00070
E00070
E00070
E00070
E00070
E00070
E00070
E00070
E00070
E00070
E00070
E00070
E00070
E00070
E00070
F000F0
F000F0
F801F0
FE07F0
FFFFF0
EFFF70
E3FC30
E00000
E00000
E00000
E00000
E00000
E00000
E00000
E00000
E00000
400000
ENDCHAR
STARTCHAR 03BD
ENCODING 957
SWIDTH 528 0
DWIDTH 22 0
BBX 21 23 1 0
BITMAP
C00030
E00078
E00070
F00070
7000E0
7000E0
3801E0
3801C0
1C03C0
1C0380
1E0380
0E0700
0E0700
070E00
070E00
038E00
039C00
01DC00
01F800
00F800
00F000
00F000
006000
ENDCHAR
STARTCHAR 03BE
ENCODING 958
SWIDTH 576 0
DWIDTH 24 0
BBX 19 43 3 -10
BITMAP
7FFF80
FFFFE0
FFFFE0
00FFC0
07E000
1F0000
3C0000
380000
380000
700000
700000
700000
780000
380000
3E0000
1FFE00
07FF00
07FF00
1FFE00
3E0000
780000
700000
700000
F00000
E00000
F00000
700000
700000
780000
3E0000
1FFC00
0FFF80
01FFC0
0003E0
0000E0
0000E0
0000E0
0000E0
0001E0
0007C0
001FC0
001F80
001C00
ENDCHAR
STARTCHAR 03BF
ENCODING 959
SWIDTH 672 0
DWIDTH 28 0
BBX 23 23 3 0
BITMAP
00FE00
07FF80
0FFFC0
1F03F0
3C00F0
780078
70003C
F0001C
E0001C
E0001E
E0001E
E0000E
E0001E
E0001E
E0001C
E0001C
F0003C
780078
3C00F8
3E01F0
1FFFE0
07FF80
01FE00
ENDCHAR
STARTCHAR 03C0
ENCODING 960
SWIDTH 768 0
DWIDTH 32 0
BBX 29 23 1 0
BITMAP
7FFFFFF8
FFFFFFF8
FFFFFFF8
01C00E00
01C00E00
01C00E00
01C00E00
01C00E00
01C00E00
01C00E00
01C00E00
01C00E00
01C00E00
01C00E00
01C00E00
01C00E00
01C00E00
01C00E00
01C00F00
01C00780
01C007F0
01C003F8
01C000F0
ENDCHAR
STARTCHAR 03C1
ENCODING 961
SWIDTH 696 0
DWIDTH 29 0
BBX 23 33 4 -10
BITMAP
00FE00
07FF80
0FFFE0
1F03F0
3C00F8
780078
70003C
F0001C
E0001C
E0001E
E0000E
E0000E
E0000E
E0000E
E0001E
F0001C
F0003C
F80038
FC0078
FF01F0
EFFFE0
E3FFC0
E0FF00
E00000
E00000
E00000
E00000
E00000
E00000
E00000
E00000
E00000
400000
ENDCHAR
STARTCHAR 03C2
ENCODING 962
SWIDTH 600 0
DWIDTH 25 0
BBX 19 33 3 -10
BITMAP
01FC00
07FF00
1FFFC0
3E03E0
3C01E0
780060
700000
E00000
E00000
E00000
E00000
E00000
E00000
E00000
E00000
E00000
F00000
700000
780000
3E0000
1FF800
0FFF00
01FF80
0007C0
0001C0
0001C0
0001C0
0001C0
0003C0
000F80
003F80
003E00
003800
ENDCHAR
STARTCHAR 03C3
ENCODING 963
SWIDTH 744 0
DWIDTH 31 0
BBX 26 23 3 0
BITMAP
00FFFF80
07FFFFC0
0FFFFFC0
1F87E000
3C00F000
78007800
70003C00
F0001C00
E0001C00
E0001C00
E0001E00
E0000E00
E0001E00
E0001E00
E0001C00
E0001C00
F0003C00
78007800
3C00F800
3E01F000
1FFFE000
07FF8000
01FE0000
ENDCHAR
STARTCHAR 03C4
ENCODING 964
SWIDTH 552 0
DWIDTH 23 0
BBX 20 23 1 0
BITMAP
7FFFE0
FFFFF0
FFFFF0
00E000
00E000
00E000
00E000
00E000
00E000
00E000
00E000
00E000
00E000
00E000
00E000
00E000
00E000
00F000
007000
007C00
003FC0
001FC0
0007C0
ENDCHAR
STARTCHAR 03C5
ENCODING 965
SWIDTH 672 0
DWIDTH 28 0
BBX 20 23 4 0
BITMAP
400020
E00070
E00070
E00070
E00070
E00070
E00070
E00070
E00070
E00070
E00070
E00070
E00070
E00070
E00070
E00070
F000F0
7000E0
7801E0
3E07C0
3FFF80
0FFF00
03FC00
ENDCHAR
STARTCHAR 03C6
ENCODING 966
SWIDTH 792 0
DWIDTH 33 0
BBX 28 40 3 -10
BITMAP
000E0000
000E0000
000E0000
000E0000
000E0000
000E0000
000E0000
00FFE000
07FFFC00
0FFFFF00
1F0E0F80
3C0E07C0
780E03C0
700E01E0
F00E00E0
E00E00E0
E00E00F0
E00E0070
E00E0070
E00E0070
E00E0070
E00E00F0
E00E00E0
F00E01E0
780E01C0
3C0E03C0
3E0E0F80
1FFFFF00
07FFFE00
01FFF000
000E0000
000E0000
000E0000
000E0000
000E0000
000E0000
000E0000
000E0000
000E0000
00040000
ENDCHAR
STARTCHAR 03C7
ENCODING 967
SWIDTH 552 0
DWIDTH 23 0
BBX 19 33 2 -10
BITMAP
400040
E000E0
E001E0
F001E0
7803C0
780380
3C0780
3C0700
1E0F00
0E1E00
0F1E00
073C00
07B800
03F800
03F000
01F000
00F000
01F000
03F800
03F800
07BC00
071C00
0F1E00
0E0E00
1E0F00
3C0780
3C0780
7803C0
7803C0
F001E0
E000E0
E000E0
400040
ENDCHAR
STARTCHAR 03C8
ENCODING 968
SWIDTH 792 0
DWIDTH 33 0
BBX 25 40 4 -10
BITMAP
001C0000
001C0000
001C0000
001C0000
001C0000
001C0000
001C0000
401C0180
E01C0380
E01C0380
E01C0380
E01C0380
E01C0380
E01C0380
E01C0380
E01C0380
E01C0380
E01C0380
E01C0380
E01C0380
E01C0380
E01C0380
E01C0380
F01C0780
781C0F00
7C1C1F00
3E1C3E00
1FFFFC00
0FFFF800
03FFE000
001C0000
001C0000
001C0000
001C0000
001C0000
001C0000
001C0000
001C0000
001C0000
000C0000
ENDCHAR
STARTCHAR 03C9
ENCODING 969
SWIDTH 888 0
DWIDTH 37 0
BBX 31 23 3 0
BITMAP
06000040
0F0000E0
1E0000F0
1E000078
3C000038
7801803C
7803801C
7003801E
F003800E
F003800E
E003800E
E003800E
E003800E
E003800E
E003800E
E003800E
F003C00E
7007C00E
7807E01C
3C0EF03C
3FFE7FF8
1FFC3FF0
07F01FE0
ENDCHAR
STARTCHAR 03CA
ENCODING 970
SWIDTH 384 0
DWIDTH 16 0
BBX 15 32 -1 0
BITMAP
4020
F070
F0F8
F0F8
E070
0000
0000
0000
0000
0600
0E00
0F00
0F00
0F00
0F00
0F00
0F00
0F00
0F00
0F00
0F00
0F00
0F00
0F00
0F00
0F00
0700
0780
03C0
03FC
01FE
007C
ENDCHAR
STARTCHAR 03CB
ENCODING 971
SWIDTH 672 0
DWIDTH 28 0
BBX 20 32 4 0
BITMAP
040000
0E0F00
1F0F00
1F0F00
0E0700
000000
000000
000000
000000
400020
E00070
E00070
E00070
E00070
E00070
E00070
E00070
E00070
E00070
E00070
E00070
E00070
E00070
E00070
E00070
F000F0
7000E0
7801E0
3E07C0
3FFF80
0FFF00
03FC00
ENDCHAR
STARTCHAR 03CC
ENCODING 972
SWIDTH 672 0
DWIDTH 28 0
BBX 23 35 3 0
BITMAP
000700
000F00
000E00
001E00
001C00
003C00
003800
003800
000000
000000
000000
000000
00FE00
07FF80
0FFFC0
1F03F0
3C00F0
780078
70003C
F0001C
E0001C
E0001E
E0001E
E0000E
E0001E
E0001E
E0001C
E0001C
F0003C
780078
3C00F8
3E01F0
1FFFE0
07FF80
01FE00
ENDCHAR
STARTCHAR 03CD
ENCODING 973
SWIDTH 672 0
DWIDTH 28 0
BBX 20 35 4 0
BITMAP
001C00
001E00
003C00
003C00
007800
007800
007000
007000
000000
000000
000000
000000
400020
E00070
E00070
E00070
E00070
E00070
E00070
E00070
E00070
E00070
E00070
E00070
E00070
E00070
E00070
E00070
F000F0
7000E0
7801E0
3E07C0
3FFF80
0FFF00
03FC00
ENDCHAR
STARTCHAR 03CE
ENCODING 974
SWIDTH 888 0
DWIDTH 37 0
BBX 31 35 3 0
BITMAP
00007000
00007800
0000F000
0000F000
0001E000
0001E000
0001C000
0001C000
00000000
00000000
00000000
00000000
06000040
0F0000E0
1E0000F0
1E000078
3C000038
7801803C
7803801C
7003801E
F003800E
F003800E
E003800E
E003800E
E003800E
E003800E
E003800E
E003800E
F003C00E
7007C00E
7807E01C
3C0EF03C
3FFE7FF8
1FFC3FF0
07F01FE0
ENDCHAR
STARTCHAR 03CF
ENCODING 975
SWIDTH 672 0
DWIDTH 28 0
BBX 22 41 4 -8
BITMAP
400000
E00038
E00078
E000F8
E001F0
E003E0
E007C0
E00F80
E01F00
E03E00
E07C00
E0F800
E1F000
E3E000
E7C000
EFC000
FFE000
FEF000
FCF000
F87800
F03C00
E01E00
E01E00
E00F00
E00780
E003C0
E003E0
E001E0
E000F0
E00078
E0003C
E0003C
600078
0001F0
0003E0
0007C0
000F80
001F00
01FE00
03FC00
03F000
ENDCHAR
STARTCHAR 03D7
ENCODING 983
SWIDTH 624 0
DWIDTH 26 0
BBX 20 33 4 -10
BITMAP
400180
E00780
E00F80
E01F00
E03C00
E07800
E0F000
E1E000
E3C000
E78000
FF8000
FFC000
FDE000
F9E000
E0F000
E07800
E03C00
E01E00
E00F00
E00780
E003C0
E003C0
E001E0
0000E0
0000E0
0000F0
0000F0
0000E0
0001E0
001FC0
003FC0
003F00
001000
ENDCHAR
STARTCHAR 0400
ENCODING 1024
SWIDTH 696 0
DWIDTH 29 0
BBX 23 44 4 0
BITMAP
038000
038000
03C000
01E000
00F000
007800
003800
001000
000000
000000
000000
7FFFFC
FFFFFE
FFFFFE
FFFFFC
E00000
E00000
E00000
E00000
E00000
E00000
E00000
E00000
E00000
E00000
E00000
FFFFC0
FFFFC0
FFFFC0
E00000
E00000
E00000
E00000
E00000
E00000
E00000
E00000
E00000
E00000
E00000
E00000
FFFFFE
FFFFFE
7FFFFE
ENDCHAR
STARTCHAR 0401
ENCODING 1025
SWIDTH 696 0
DWIDTH 29 0
BBX 23 41 4 0
BITMAP
0383C0
07C3C0
07C3C0
0383C0
000000
000000
000000
000000
7FFFFC
FFFFFE
FFFFFE
FFFFFC
E00000
E00000
E00000
E00000
E00000
E00000
E00000
E00000
E00000
E00000
E00000
FFFFC0
FFFFC0
FFFFC0
E00000
E00000
E00000
E00000
E00000
E00000
E00000
E00000
E00000
E00000
E00000
E00000
FFFFFE
FFFFFE
7FFFFE
ENDCHAR
STARTCHAR 0402
ENCODING 1026
SWIDTH 792 0
DWIDTH 33 0
BBX 29 34 1 -1
BITMAP
7FFFFE00
FFFFFF00
FFFFFF00
00E00000
00E00000
00E00000
00E00000
00E00000
00E00000
00E00000
00E1FC00
00E7FF00
00FFFFC0
00FE07E0
00F801E0
00E000F0
00E00078
00E00078
00E00038
00E00038
00E00038
00E00038
00E00038
00E00038
00E00038
00E00078
00E00070
00E000F0
00E001E0
00E003E0
00E03FC0
00E07F00
00C07E00
00006000
ENDCHAR
STARTCHAR 0403
ENCODING 1027
SWIDTH 624 0
DWIDTH 26 0
BBX 21 44 4 0
BITMAP
000300
000700
000F00
001E00
003C00
007800
007000
006000
000000
000000
000000
7FFFE0
FFFFF8
FFFFF8
FFFFE0
E00000
E00000
E00000
E00000
E00000
E00000
E00000
E00000
E00000
E00000
E00000
E00000
E00000
E00000
E00000
E00000
E00000
E00000
E00000
E00000
E00000
E00000
E00000
E00000
E00000
E00000
E00000
E00000
600000
ENDCHAR
STARTCHAR 0404
ENCODING 1028
SWIDTH 768 0
DWIDTH 32 0
BBX 26 33 3 0
BITMAP
000FF000
007FFE00
01FFFF00
03F81FC0
07C003C0
0F8001C0
1E000000
3C000000
38000000
78000000
70000000
F0000000
E0000000
E0000000
E0000000
FFFFE000
FFFFE000
FFFFE000
E0000000
E0000000
E0000000
F0000000
70000000
70000000
78000000
3C000000
1E000000
1F0000C0
0F8003C0
07E00FC0
01FFFF80
00FFFF00
003FFC00
ENDCHAR
STARTCHAR 0405
ENCODING 1029
SWIDTH 672 0
DWIDTH 28 0
BBX 22 33 3 0
BITMAP
01FC00
07FF80
1FFFC0
3F03F0
3C00F0
780078
700038
700010
700000
700000
700000
780000
3C0000
3F0000
0FF000
07FF00
01FFC0
000FE0
0001F0
000078
000038
00003C
00001C
00001C
00001C
C0001C
E0003C
F00038
F80078
7E01F0
3FFFE0
0FFFC0
03FF00
ENDCHAR
STARTCHAR 0406
ENCODING 1030
SWIDTH 288 0
DWIDTH 12 0
BBX 3 33 4 0
BITMAP
40
E0
E0
E0
E0
E0
E0
E0
E0
E0
E0
E0
E0
E0
E0
E0
E0
E0
E0
E0
E0
E0
E0
E0
E0
E0
E0
E0
E0
E0
E0
E0
60
ENDCHAR
STARTCHAR 0407
ENCODING 1031
SWIDTH 288 0
DWIDTH 12 0
BBX 13 41 -1 0
BITMAP
7078
F878
F878
7078
0000
0000
0000
0000
0200
0700
0700
0700
0700
0700
0700
0700
0700
0700
0700
0700
0700
0700
0700
0700
0700
0700
0700
0700
0700
0700
0700
0700
0700
0700
0700
0700
0700
0700
0700
0700
0300
ENDCHAR
STARTCHAR 0408
ENCODING 1032
SWIDTH 624 0
DWIDTH 26 0
BBX 19 33 2 0
BITMAP
000040
0000E0
0000E0
0000E0
0000E0
0000E0
0000E0
0000E0
0000E0
0000E0
0000E0
0000E0
0000E0
0000E0
0000E0
0000E0
0000E0
0000E0
0000E0
0000E0
0000E0
0000E0
E000E0
E000E0
E000E0
E000E0
F000E0
7001E0
7803C0
3C07C0
1FFF80
0FFF00
07FC00
ENDCHAR
STARTCHAR 0409
ENCODING 1033
SWIDTH 1032 0
DWIDTH 43 0
BBX 40 33 1 0
BITMAP
0004000000
000E000000
000F000000
001F000000
001F800000
001F800000
003F800000
003BC00000
0079C00000
0071E00000
00F0E00000
00E0F00000
00E0700000
01E07FFC00
01C07FFFC0
03C03FFFF0
03803C01F8
07801C003C
07801C001E
07001E000E
0F000E000E
0E000F000F
1E0007000F
1C00078007
1C0003800F
3C0003800E
380003C00E
780001C01E
700001E03C
F00000E0FC
F00000FFF8
E00000FFE0
E000007F80
ENDCHAR
STARTCHAR 040A
ENCODING 1034
SWIDTH 1176 0
DWIDTH 49 0
BBX 43 33 4 0
BITMAP
400000000000
E00003800000
E00003800000
E00003800000
E00003800000
E00003800000
E00003800000
E00003800000
E00003800000
E00003800000
E00003800000
E00003800000
E00003800000
E00003FF8000
E00003FFFC00
FFFFFFFFFE00
FFFFFF803F00
FFFFFF800780
E000038003C0
E000038001C0
E000038001C0
E000038001E0
E000038000E0
E000038000E0
E000038001E0
E000038001E0
E000038001C0
E000038003C0
E00003800780
E00003800F80
E00003FFFF00
E00003FFFC00
600003FFF000
ENDCHAR
STARTCHAR 040B
ENCODING 1035
SWIDTH 864 0
DWIDTH 36 0
BBX 32 33 1 0
BITMAP
7FFFFF00
FFFFFF80
FFFFFF80
00700000
00700000
00700000
00700000
00700000
00700000
00700000
00700000
00700000
0071FF80
0073FFE0
007FFFF0
007E0078
007C003C
0078001C
0070001E
0070000E
0070000E
0070000F
0070000F
00700007
00700007
00700007
00700007
00700007
00700007
00700007
00700007
00700007
00700006
ENDCHAR
STARTCHAR 040C
ENCODING 1036
SWIDTH 696 0
DWIDTH 29 0
BBX 23 44 4 0
BITMAP
000200
000700
000F00
001E00
003C00
007800
00F000
006000
000000
000000
000000
400008
E0001C
E0003C
E00078
E00078
E000F0
E001E0
E003C0
E00780
E00700
E00F00
E01E00
E03C00
E07800
E07000
FFF000
FFE000
FFF000
E07800
E03C00
E03E00
E01E00
E00F00
E00780
E003C0
E001E0
E001F0
E000F0
E00078
E0003C
E0001E
E0000E
600006
ENDCHAR
STARTCHAR 040D
ENCODING 1037
SWIDTH 840 0
DWIDTH 35 0
BBX 27 44 4 0
BITMAP
00C00000
01E00000
00F00000
00780000
003C0000
001E0000
000E0000
00040000
00000000
00000000
00000000
00000040
E00000E0
E00001E0
E00003E0
E00007E0
E00007E0
E0000EE0
E0001EE0
E0003CE0
E00038E0
E00070E0
E000E0E0
E001E0E0
E003C0E0
E00380E0
E00700E0
E00E00E0
E01E00E0
E01C00E0
E03800E0
E07000E0
E0F000E0
E1E000E0
E1C000E0
E38000E0
E70000E0
EF0000E0
EE0000E0
FC0000E0
F80000E0
F80000E0
F00000E0
600000E0
ENDCHAR
STARTCHAR 040E
ENCODING 1038
SWIDTH 696 0
DWIDTH 29 0
BBX 27 42 0 0
BITMAP
00C01C00
01E01C00
00E03C00
00F07800
007FF000
003FE000
00020000
00000000
00000000
40000040
E00000E0
F00000E0
700001E0
780001C0
380003C0
3C000380
1C000780
0E000700
0F000700
07000E00
07800E00
03801E00
03C01C00
01C03C00
00E03800
00F07800
00707000
0078F000
0038E000
001DE000
001DC000
000FC000
000F8000
00078000
00070000
000F0000
000E0000
001E0000
0C3C0000
0FFC0000
0FF80000
07E00000
ENDCHAR
STARTCHAR 040F
ENCODING 1039
SWIDTH 816 0
DWIDTH 34 0
BBX 26 40 4 -7
BITMAP
40000000
E0000380
E00003C0
E00003C0
E00003C0
E00003C0
E00003C0
E00003C0
E00003C0
E00003C0
E00003C0
E00003C0
E00003C0
E00003C0
E00003C0
E00003C0
E00003C0
E00003C0
E00003C0
E00003C0
E00003C0
E00003C0
E00003C0
E00003C0
E00003C0
E00003C0
E00003C0
E00003C0
E00003C0
E00003C0
FFFFFFC0
FFFFFFC0
7FFFFF80
001E0000
001E0000
001E0000
001E0000
001E0000
001E0000
000C0000
ENDCHAR
STARTCHAR 0410
ENCODING 1040
SWIDTH 696 0
DWIDTH 29 0
BBX 28 32 1 1
BITMAP
000E0000
000F0000
001F0000
001F8000
001F8000
003B8000
003BC000
0079C000
0071E000
00F0E000
00E0E000
00E07000
01E07000
01C07800
03C03800
03803C00
07801C00
07001C00
07001E00
0F000E00
0E000F00
1FFFFF00
1FFFFF80
1FFFFF80
3C000380
380003C0
780001C0
700001E0
F00000E0
E00000E0
E00000F0
E0000060
ENDCHAR
STARTCHAR 0411
ENCODING 1041
SWIDTH 720 0
DWIDTH 30 0
BBX 24 33 4 0
BITMAP
7FFFF0
FFFFF8
FFFFF8
FFFFF0
E00000
E00000
E00000
E00000
E00000
E00000
E00000
E00000
E00000
E00000
FFFFC0
FFFFF0
FFFFF8
E0007C
E0001C
E0001E
E0000E
E0000F
E0000F
E00007
E0000F
E0000F
E0000E
E0001E
E0003C
E000FC
FFFFF8
FFFFE0
7FFF80
ENDCHAR
STARTCHAR 0412
ENCODING 1042
SWIDTH 696 0
DWIDTH 29 0
BBX 23 33 4 0
BITMAP
7FF800
FFFF00
FFFFC0
FFFFE0
E001F0
E00070
E00078
E00038
E00038
E00078
E00078
E00070
E000F0
E001E0
FFFFC0
FFFF80
FFFFE0
E001F0
E00078
E0003C
E0001C
E0001C
E0001E
E0001E
E0001E
E0001C
E0001C
E0003C
E00078
E001F8
FFFFF0
FFFFC0
7FFF00
ENDCHAR
STARTCHAR 0413
ENCODING 1043
SWIDTH 624 0
DWIDTH 26 0
BBX 21 33 4 0
BITMAP
7FFFE0
FFFFF8
FFFFF8
FFFFE0
E00000
E00000
E00000
E00000
E00000
E00000
E00000
E00000
E00000
E00000
E00000
E00000
E00000
E00000
E00000
E00000
E00000
E00000
E00000
E00000
E00000
E00000
E00000
E00000
E00000
E00000
E00000
E00000
600000
ENDCHAR
STARTCHAR 0414
ENCODING 1044
SWIDTH 840 0
DWIDTH 35 0
BBX 33 40 1 -7
BITMAP
0000800000
0001C00000
0003C00000
0003E00000
0003E00000
0007F00000
0007700000
000E700000
000E380000
000E380000
001C3C0000
001C1C0000
00381C0000
00380E0000
00780E0000
00700F0000
0070070000
00E0070000
00E0038000
01E0038000
01C003C000
01C001C000
038001E000
038000E000
078000E000
0700007000
0700007000
0E00007800
0E00003800
1E00003800
FFFFFFFF00
FFFFFFFF80
FFFFFFFF80
E000000380
E000000380
E000000380
E000000380
E000000380
E000000380
E000000380
ENDCHAR
STARTCHAR 0415
ENCODING 1045
SWIDTH 696 0
DWIDTH 29 0
BBX 23 33 4 0
BITMAP
7FFFFC
FFFFFE
FFFFFE
FFFFFC
E00000
E00000
E00000
E00000
E00000
E00000
E00000
E00000
E00000
E00000
E00000
FFFFC0
FFFFC0
FFFFC0
E00000
E00000
E00000
E00000
E00000
E00000
E00000
E00000
E00000
E00000
E00000
E00000
FFFFFE
FFFFFE
7FFFFE
ENDCHAR
STARTCHAR 0416
ENCODING 1046
SWIDTH 1032 0
DWIDTH 43 0
BBX 41 32 1 1
BITMAP
70001C000E00
38001C000E00
3C001C001E00
1E001C003C00
0E001C007800
0F001C007000
07801C00F000
03C01C01E000
01C01C03C000
01E01C038000
00F01C078000
00701C0F0000
00781C1E0000
003C1C1C0000
001FFFFC0000
001FFFF80000
001FFFFC0000
003C1C1E0000
00781C0F0000
00F01C0F0000
00E01C078000
01E01C03C000
03C01C01E000
07801C00E000
0F001C00F000
0F001C007800
1E001C003C00
3C001C001E00
78001C001E00
78001C000F00
F0001C000780
600018000300
ENDCHAR
STARTCHAR 0417
ENCODING 1047
SWIDTH 648 0
DWIDTH 27 0
BBX 22 33 2 0
BITMAP
01FC00
07FF00
1FFFC0
3F03E0
7C00F0
700070
700070
000078
000078
000078
000070
000070
0000E0
0001E0
007FC0
00FF00
00FFC0
0003E0
0000F0
000078
000038
00003C
00001C
00001C
00001C
00001C
00003C
E00038
F00078
7C01F0
3FFFE0
1FFFC0
07FF00
ENDCHAR
STARTCHAR 0418
ENCODING 1048
SWIDTH 840 0
DWIDTH 35 0
BBX 27 33 4 0
BITMAP
00000040
E00000E0
E00001E0
E00003E0
E00007E0
E00007E0
E0000EE0
E0001EE0
E0003CE0
E00038E0
E00070E0
E000E0E0
E001E0E0
E003C0E0
E00380E0
E00700E0
E00E00E0
E01E00E0
E01C00E0
E03800E0
E07000E0
E0F000E0
E1E000E0
E1C000E0
E38000E0
E70000E0
EF0000E0
EE0000E0
FC0000E0
F80000E0
F80000E0
F00000E0
600000E0
ENDCHAR
STARTCHAR 0419
ENCODING 1049
SWIDTH 840 0
DWIDTH 35 0
BBX 27 42 4 0
BITMAP
01803800
03C03800
01C07800
01E0F000
00FFE000
007FC000
00040000
00000000
00000000
00000040
E00000E0
E00001E0
E00003E0
E00007E0
E00007E0
E0000EE0
E0001EE0
E0003CE0
E00038E0
E00070E0
E000E0E0
E001E0E0
E003C0E0
E00380E0
E00700E0
E00E00E0
E01E00E0
E01C00E0
E03800E0
E07000E0
E0F000E0
E1E000E0
E1C000E0
E38000E0
E70000E0
EF0000E0
EE0000E0
FC0000E0
F80000E0
F80000E0
F00000E0
600000E0
ENDCHAR
STARTCHAR 041A
ENCODING 1050
SWIDTH 696 0
DWIDTH 29 0
BBX 23 33 4 0
BITMAP
400008
E0001C
E0003C
E00078
E00078
E000F0
E001E0
E003C0
E00780
E00700
E00F00
E01E00
E03C00
E07800
E07000
FFF000
FFE000
FFF000
E07800
E03C00
E03E00
E01E00
E00F00
E00780
E003C0
E001E0
E001F0
E000F0
E00078
E0003C
E0001E
E0000E
600006
ENDCHAR
STARTCHAR 041B
ENCODING 1051
SWIDTH 696 0
DWIDTH 29 0
BBX 28 33 1 0
BITMAP
00040000
000E0000
000F0000
001F0000
001F8000
001F8000
003F8000
003BC000
0079C000
0071E000
00F0E000
00E0F000
00E07000
01E07000
01C07800
03C03800
03803C00
07801C00
07801C00
07001E00
0F000E00
0E000F00
1E000700
1C000780
1C000380
3C000380
380003C0
780001C0
700001E0
F00000E0
F00000F0
E00000F0
E0000060
ENDCHAR
STARTCHAR 041C
ENCODING 1052
SWIDTH 984 0
DWIDTH 41 0
BBX 33 33 4 0
BITMAP
4000000000
E000000380
F000000780
F000000780
F800000F80
F800000F80
FC00001F80
FC00001F80
EE00003F80
EE00003F80
E700007780
E700007780
E38000E780
E38000E780
E1C001C780
E1C001C780
E0E0038780
E0E0038780
E070070780
E070070780
E0380E0780
E0380E0780
E01C1C0780
E01C1C0780
E00E380780
E00E380780
E007700780
E007700780
E003E00780
E003E00780
E001C00780
E001C00780
6000000300
ENDCHAR
STARTCHAR 041D
ENCODING 1053
SWIDTH 840 0
DWIDTH 35 0
BBX 27 33 4 0
BITMAP
40000040
E00000E0
E00000E0
E00000E0
E00000E0
E00000E0
E00000E0
E00000E0
E00000E0
E00000E0
E00000E0
E00000E0
E00000E0
E00000E0
E00000E0
FFFFFFE0
FFFFFFE0
FFFFFFE0
E00000E0
E00000E0
E00000E0
E00000E0
E00000E0
E00000E0
E00000E0
E00000E0
E00000E0
E00000E0
E00000E0
E00000E0
E00000E0
E00000E0
600000E0
ENDCHAR
STARTCHAR 041E
ENCODING 1054
SWIDTH 912 0
DWIDTH 38 0
BBX 33 33 3 0
BITMAP
000FF00000
007FFE0000
01FFFF8000
03F81FE000
07C003F000
0F0000F800
1E00007C00
3C00003C00
3800001E00
7800000E00
7000000F00
F000000700
E000000700
E000000780
E000000780
E000000380
E000000380
E000000380
E000000780
E000000780
E000000700
F000000700
F000000F00
7000000F00
7800001E00
3C00001E00
3E00003C00
1F00007800
0F8001F000
07E007E000
03FFFFC000
00FFFF0000
003FFC0000
ENDCHAR
STARTCHAR 041F
ENCODING 1055
SWIDTH 816 0
DWIDTH 34 0
BBX 26 33 4 0
BITMAP
7FFFFF00
FFFFFF80
FFFFFFC0
FFFFFFC0
E00003C0
E00003C0
E00003C0
E00003C0
E00003C0
E00003C0
E00003C0
E00003C0
E00003C0
E00003C0
E00003C0
E00003C0
E00003C0
E00003C0
E00003C0
E00003C0
E00003C0
E00003C0
E00003C0
E00003C0
E00003C0
E00003C0
E00003C0
E00003C0
E00003C0
E00003C0
E00003C0
E00003C0
60000180
ENDCHAR
STARTCHAR 0420
ENCODING 1056
SWIDTH 624 0
DWIDTH 26 0
BBX 21 33 4 0
BITMAP
7FE000
FFFE00
FFFF80
FFFFC0
E003E0
E001E0
E000F0
E00070
E00070
E00078
E00078
E00078
E00078
E00070
E00070
E000F0
E001E0
E003E0
FFFFC0
FFFF80
FFFE00
FFE000
E00000
E00000
E00000
E00000
E00000
E00000
E00000
E00000
E00000
E00000
600000
ENDCHAR
STARTCHAR 0421
ENCODING 1057
SWIDTH 768 0
DWIDTH 32 0
BBX 26 33 3 0
BITMAP
000FF000
007FFE00
01FFFF00
03F81FC0
07C003C0
0F8001C0
1E000000
3C000000
38000000
78000000
70000000
F0000000
E0000000
E0000000
E0000000
E0000000
E0000000
E0000000
E0000000
E0000000
E0000000
F0000000
70000000
78000000
78000000
3C000000
1E000000
1F0000C0
0F8003C0
07E00FC0
01FFFF80
00FFFF00
003FFC00
ENDCHAR
STARTCHAR 0422
ENCODING 1058
SWIDTH 648 0
DWIDTH 27 0
BBX 26 33 1 0
BITMAP
7FFFFF00
FFFFFFC0
FFFFFFC0
001C0000
001C0000
001C0000
001C0000
001C0000
001C0000
001C0000
001C0000
001C0000
001C0000
001C0000
001C0000
001C0000
001C0000
001C0000
001C0000
001C0000
001C0000
001C0000
001C0000
001C0000
001C0000
001C0000
001C0000
001C0000
001C0000
001C0000
001C0000
001C0000
001C0000
ENDCHAR
STARTCHAR 0423
ENCODING 1059
SWIDTH 696 0
DWIDTH 29 0
BBX 27 33 0 0
BITMAP
40000040
E00000E0
F00000E0
700001E0
780001C0
380003C0
3C000380
1C000780
0E000700
0F000700
07000E00
07800E00
03801E00
03C01C00
01C03C00
00E03800
00F07800
00707000
0078F000
0038E000
001DE000
001DC000
000FC000
000F8000
00078000
00070000
000F0000
000E0000
001E0000
0C3C0000
0FFC0000
0FF80000
07E00000
ENDCHAR
STARTCHAR 0424
ENCODING 1060
SWIDTH 864 0
DWIDTH 36 0
BBX 30 33 3 0
BITMAP
00020000
00070000
00070000
00070000
003FF000
01FFFE00
07FFFF00
0FE71FC0
1F0703E0
3C0700F0
78070078
70070078
F007003C
E007001C
E007001C
E007001C
E007001C
E007001C
E007001C
E007001C
F007003C
70070038
78070078
3C0700F0
3E0701E0
1F8707C0
07FF7F80
03FFFF00
007FF800
00070000
00070000
00070000
00030000
ENDCHAR
STARTCHAR 0425
ENCODING 1061
SWIDTH 696 0
DWIDTH 29 0
BBX 26 32 2 1
BITMAP
70000380
70000780
78000780
3C000F00
1E001E00
0E003C00
0F003C00
07807800
03C0F000
03C0E000
01E1E000
00F3C000
00778000
007F0000
003F0000
001E0000
003F0000
007F8000
00F78000
00E3C000
01E1E000
03C0F000
0780F000
07807800
0F003C00
1E003C00
3C001E00
3C000F00
78000780
F0000780
E00003C0
E0000180
ENDCHAR
STARTCHAR 0426
ENCODING 1062
SWIDTH 840 0
DWIDTH 35 0
BBX 30 40 4 -7
BITMAP
40000000
E0000380
E00003C0
E00003C0
E00003C0
E00003C0
E00003C0
E00003C0
E00003C0
E00003C0
E00003C0
E00003C0
E00003C0
E00003C0
E00003C0
E00003C0
E00003C0
E00003C0
E00003C0
E00003C0
E00003C0
E00003C0
E00003C0
E00003C0
E00003C0
E00003C0
E00003C0
E00003C0
E00003C0
E00003C0
FFFFFFF8
FFFFFFFC
7FFFFFFC
0000001C
0000001C
0000001C
0000001C
0000001C
0000001C
0000001C
ENDCHAR
STARTCHAR 0427
ENCODING 1063
SWIDTH 768 0
DWIDTH 32 0
BBX 24 32 3 1
BITMAP
E00007
E00007
E00007
E00007
E00007
E00007
E00007
E00007
E00007
F00007
F00007
700007
700007
780007
780007
3C000F
1E001F
1F80FF
07FFF7
03FFE7
007F07
000007
000007
000007
000007
000007
000007
000007
000007
000007
000007
000003
ENDCHAR
STARTCHAR 0428
ENCODING 1064
SWIDTH 1080 0
DWIDTH 45 0
BBX 36 33 4 0
BITMAP
4000200020
E000700070
E000700070
E000700070
E000700070
E000700070
E000700070
E000700070
E000700070
E000700070
E000700070
E000700070
E000700070
E000700070
E000700070
E000700070
E000700070
E000700070
E000700070
E000700070
E000700070
E000700070
E000700070
E000700070
E000700070
E000700070
E000700070
E000700070
E000700070
E000700070
FFFFFFFFF0
FFFFFFFFF0
7FFFFFFFF0
ENDCHAR
STARTCHAR 0429
ENCODING 1065
SWIDTH 1104 0
DWIDTH 46 0
BBX 41 40 4 -7
BITMAP
400020002000
E00070007000
E00070007000
E00070007000
E00070007000
E00070007000
E00070007000
E00070007000
E00070007000
E00070007000
E00070007000
E00070007000
E00070007000
E00070007000
E00070007000
E00070007000
E00070007000
E00070007000
E00070007000
E00070007000
E00070007000
E00070007000
E00070007000
E00070007000
E00070007000
E00070007000
E00070007000
E00070007000
E00070007000
E00070007000
FFFFFFFFFF00
FFFFFFFFFF80
7FFFFFFFFF80
000000000780
000000000780
000000000780
000000000780
000000000780
000000000780
000000000300
ENDCHAR
STARTCHAR 042A
ENCODING 1066
SWIDTH 840 0
DWIDTH 35 0
BBX 32 33 1 0
BITMAP
7FE00000
FFF80000
FFF80000
00780000
00780000
00780000
00780000
00780000
00780000
00780000
00780000
00780000
00780000
007FFE00
007FFFE0
007FFFF8
007801FC
0078003C
0078001E
0078000F
00780007
00780007
00780007
00780007
00780007
00780007
0078000F
0078001E
0078003E
007800FC
007FFFF8
007FFFF0
003FFFC0
ENDCHAR
STARTCHAR 042B
ENCODING 1067
SWIDTH 912 0
DWIDTH 38 0
BBX 30 33 4 0
BITMAP
00000008
E000001C
E000001C
E000001C
E000001C
E000001C
E000001C
E000001C
E000001C
E000001C
E000001C
E000001C
E000001C
FFF0001C
FFFF001C
FFFFC01C
E00FE01C
E000F01C
E000701C
E000781C
E000381C
E000381C
E000381C
E000381C
E000381C
E000381C
E000781C
E000781C
E000F01C
E003E01C
FFFFC01C
FFFF801C
7FFE001C
ENDCHAR
STARTCHAR 042C
ENCODING 1068
SWIDTH 696 0
DWIDTH 29 0
BBX 23 32 4 1
BITMAP
E00000
E00000
E00000
E00000
E00000
E00000
E00000
E00000
E00000
E00000
E00000
E00000
FFF800
FFFFC0
FFFFE0
E003F0
E00078
E0003C
E0001C
E0001E
E0000E
E0000E
E0000E
E0000E
E0001E
E0001C
E0003C
E00078
E000F8
FFFFF0
FFFFE0
7FFF00
ENDCHAR
STARTCHAR 042D
ENCODING 1069
SWIDTH 768 0
DWIDTH 32 0
BBX 27 33 3 0
BITMAP
03FC0000
1FFF8000
3FFFE000
FE07F000
F000F800
E0003C00
00001E00
00000F00
00000700
00000780
00000380
000003C0
000001C0
000001C0
000001C0
01FFFFC0
01FFFFE0
01FFFFE0
000001C0
000001C0
000001C0
000001C0
000003C0
00000380
00000780
00000F00
00001E00
C0003E00
F0007C00
FC01F800
7FFFF000
3FFFC000
07FF0000
ENDCHAR
STARTCHAR 042E
ENCODING 1070
SWIDTH 1176 0
DWIDTH 49 0
BBX 42 33 4 0
BITMAP
400003FC0000
E0001FFF8000
E0007FFFE000
E000FE07F000
E001F000F800
E003E0003C00
E00780001E00
E00780000F00
E00F00000700
E01E00000780
E01E00000380
E01C000003C0
E01C000001C0
E03C000001C0
E038000001C0
FFF8000001C0
FFF8000001C0
FFF8000001C0
E038000001C0
E03C000001C0
E03C000001C0
E01C000003C0
E01C00000380
E01E00000380
E00E00000780
E00F00000F00
E00780001E00
E003C0003E00
E003E0007C00
E001FC01F800
E0007FFFF000
E0003FFFC000
60000FFF0000
ENDCHAR
STARTCHAR 042F
ENCODING 1071
SWIDTH 696 0
DWIDTH 29 0
BBX 22 33 3 0
BITMAP
003FF0
03FFFC
0FFFFC
1FFFFC
3E001C
78001C
78001C
70001C
F0001C
E0001C
E0001C
E0001C
F0001C
70001C
78001C
3C001C
3E001C
0FFFFC
07FFFC
00FFFC
01E01C
03C01C
03801C
07801C
0F001C
0F001C
1E001C
3C001C
3C001C
78001C
70001C
F0001C
E00018
ENDCHAR
STARTCHAR 0430
ENCODING 1072
SWIDTH 672 0
DWIDTH 28 0
BBX 23 23 3 0
BITMAP
00FE00
07FF80
0FFFC0
1F03F0
3C00F0
780078
70003C
F0001C
E0001C
E0001E
E0001E
E0000E
E0001E
E0001E
E0001E
F0001E
F0003E
78007E
3C00FE
3E01FE
1FFFDE
07FF9E
01FE0C
ENDCHAR
STARTCHAR 0431
ENCODING 1073
SWIDTH 672 0
DWIDTH 28 0
BBX 22 34 3 0
BITMAP
000070
0003F0
000FE0
007F80
00FE00
03F000
07C000
0F0000
1E0000
3C0000
380000
700000
701800
61FF00
E7FFC0
EF87E0
DE01F0
D80078
F00078
F00038
E0003C
E0001C
E0001C
E0001C
E0001C
E0001C
E0003C
700038
780078
3C00F0
3E01F0
1FFFE0
07FF80
01FE00
ENDCHAR
STARTCHAR 0432
ENCODING 1074
SWIDTH 600 0
DWIDTH 25 0
BBX 19 23 4 0
BITMAP
7FF800
FFFF00
FFFF80
E007C0
E003C0
E001C0
E001C0
E001C0
E003C0
E00780
FFFF00
FFFF00
FFFFC0
E001C0
E000E0
E000E0
E000E0
E000E0
E001E0
E003C0
FFFFC0
FFFF80
FFFE00
ENDCHAR
STARTCHAR 0433
ENCODING 1075
SWIDTH 528 0
DWIDTH 22 0
BBX 18 23 2 0
BITMAP
07F000
1FFC00
3FFE00
7C0F00
F00700
600780
000380
000780
000700
001F00
00FE00
07F800
1FE000
7E0000
780000
F00000
E00000
E00080
F001C0
7807C0
7FFF80
3FFE00
0FF800
ENDCHAR
STARTCHAR 0434
ENCODING 1076
SWIDTH 672 0
DWIDTH 28 0
BBX 23 32 3 -9
BITMAP
01FE00
07FF80
0FFFE0
1F03F0
3C00F0
780078
70003C
F0001C
E0001C
E0001E
E0001E
E0000E
E0001E
E0001E
E0001E
E0001E
F0003E
78007E
7C00EE
3E01EE
1FFFCE
0FFF9E
01FE1C
00001C
00001C
60003C
700078
7C00F0
3F03F0
1FFFC0
07FF80
01FE00
ENDCHAR
STARTCHAR 0435
ENCODING 1077
SWIDTH 624 0
DWIDTH 26 0
BBX 21 23 3 0
BITMAP
01FC00
07FF00
1FFF80
3E03C0
3C01E0
7800F0
F00070
E00070
E00038
E00038
FFFFF8
FFFFF8
FFFFF0
E00000
E00000
E00000
F00000
780000
3C0060
3E01E0
1FFFE0
07FF80
01FE00
ENDCHAR
STARTCHAR 0436
ENCODING 1078
SWIDTH 792 0
DWIDTH 33 0
BBX 30 23 1 0
BITMAP
30010018
7003803C
78038038
3C038078
1C0380F0
1E0380E0
0F0381E0
070383C0
07838380
03C38780
01FFFF00
01FFFE00
01FFFF00
03C38780
078383C0
070381C0
0E0381E0
1E0380F0
3C038070
38038078
7803803C
F003801C
6003800C
ENDCHAR
STARTCHAR 0437
ENCODING 1079
SWIDTH 504 0
DWIDTH 21 0
BBX 18 23 2 0
BITMAP
07F000
1FFC00
3FFE00
780F00
F00780
600380
000380
000780
000700
001E00
01FC00
03FC00
003F00
000780
000380
0003C0
0001C0
4003C0
E00380
F80780
7FFF00
3FFE00
0FFC00
ENDCHAR
STARTCHAR 0438
ENCODING 1080
SWIDTH 672 0
DWIDTH 28 0
BBX 21 23 3 0
BITMAP
600018
F00038
F00038
F00038
F00038
F00038
F00038
F00038
F00038
F00038
F00038
F00038
F00038
F00038
F00038
700038
700038
780078
3C00F8
3E03F8
1FFFF8
07FFB8
03FE18
ENDCHAR
STARTCHAR 0439
ENCODING 1081
SWIDTH 672 0
DWIDTH 28 0
BBX 21 33 3 0
BITMAP
040080
0E01C0
0E01C0
0F01C0
078780
03FF80
01FE00
000000
000000
000000
600018
F00038
F00038
F00038
F00038
F00038
F00038
F00038
F00038
F00038
F00038
F00038
F00038
F00038
F00038
700038
700038
780078
3C00F8
3E03F8
1FFFF8
07FFB8
03FE18
ENDCHAR
STARTCHAR 043A
ENCODING 1082
SWIDTH 552 0
DWIDTH 23 0
BBX 18 23 4 0
BITMAP
400180
E00380
E00780
E00F00
E00E00
E01E00
E03C00
E07800
E0F000
E1E000
FFC000
FF8000
FFC000
E1E000
E0F000
E07800
E03C00
E01E00
E00F00
E00F80
E00780
E003C0
E001C0
ENDCHAR
STARTCHAR 043B
ENCODING 1083
SWIDTH 600 0
DWIDTH 25 0
BBX 22 23 1 0
BITMAP
003000
003800
007800
007C00
00FC00
00EE00
01EE00
01CF00
03C700
038780
078380
0703C0
0701C0
0E01C0
0E00E0
1E00E0
1C00F0
3C0070
380078
780038
70003C
F0001C
60001C
ENDCHAR
STARTCHAR 043C
ENCODING 1084
SWIDTH 792 0
DWIDTH 33 0
BBX 25 23 4 0
BITMAP
40000300
E0000780
F0000780
F8000F80
F8001F80
FC001F80
FE003B80
EE007B80
E700F380
E780E380
E3C1C380
E1C3C380
E0E38380
E0F70380
E07F0380
E03E0380
E03C0380
E01C0380
E0000380
E0000380
E0000380
E0000380
E0000380
ENDCHAR
STARTCHAR 043D
ENCODING 1085
SWIDTH 696 0
DWIDTH 29 0
BBX 21 23 4 0
BITMAP
400030
E00038
E00038
E00038
E00038
E00038
E00038
E00038
E00038
E00038
FFFFF8
FFFFF8
FFFFF8
E00038
E00038
E00038
E00038
E00038
E00038
E00038
E00038
E00038
E00030
ENDCHAR
STARTCHAR 043E
ENCODING 1086
SWIDTH 672 0
DWIDTH 28 0
BBX 23 23 3 0
BITMAP
00FE00
07FF80
0FFFC0
1F03F0
3C00F0
780078
70003C
F0001C
E0001C
E0001E
E0001E
E0000E
E0001E
E0001E
E0001C
E0001C
F0003C
780078
3C00F8
3E01F0
1FFFE0
07FF80
01FE00
ENDCHAR
STARTCHAR 043F
ENCODING 1087
SWIDTH 672 0
DWIDTH 28 0
BBX 21 23 4 0
BITMAP
41FC00
E7FF00
EFFFC0
FE07E0
F801E0
F000F0
F00070
E00078
E00078
E00038
E00038
E00038
E00038
E00038
E00038
E00038
E00038
E00038
E00038
E00038
E00038
E00038
E00030
ENDCHAR
STARTCHAR 0440
ENCODING 1088
SWIDTH 696 0
DWIDTH 29 0
BBX 23 33 4 -10
BITMAP
00FE00
07FF80
0FFFE0
1F03F0
3C00F8
780078
70003C
F0001C
E0001C
E0001E
E0000E
E0000E
E0000E
E0000E
E0001E
F0001C
F0003C
F80038
FC0078
FF01F0
EFFFE0
E3FFC0
E0FF00
E00000
E00000
E00000
E00000
E00000
E00000
E00000
E00000
E00000
400000
ENDCHAR
STARTCHAR 0441
ENCODING 1089
SWIDTH 600 0
DWIDTH 25 0
BBX 19 23 3 0
BITMAP
01FC00
07FF00
1FFF80
3F03E0
3C01E0
7800E0
700000
E00000
E00000
E00000
E00000
E00000
E00000
E00000
E00000
E00000
F00000
780000
3C00C0
3E01E0
1FFFC0
07FF80
01FE00
ENDCHAR
STARTCHAR 0442
ENCODING 1090
SWIDTH 936 0
DWIDTH 39 0
BBX 32 23 4 0
BITMAP
43F00FE0
EFFC1FF8
FFFE7FFC
FC1FF83E
F807E01E
F007E00F
E003C00F
E003C007
E003C007
E003C007
E003C007
E003C007
E003C007
E003C007
E003C007
E003C007
E003C007
E003C007
E003C007
E003C007
E003C007
E003C007
E0018007
ENDCHAR
STARTCHAR 0443
ENCODING 1091
SWIDTH 552 0
DWIDTH 23 0
BBX 23 33 -1 -10
BITMAP
30000C
38000E
38001E
1C001C
1C001C
1E0038
0E0038
0F0078
070070
0780F0
0380E0
03C1E0
01C1C0
01E1C0
00E380
00F380
007780
007F00
003F00
003E00
001E00
001C00
001C00
003C00
003800
007800
007000
00F000
01E000
63C000
FFC000
FF8000
3E0000
ENDCHAR
STARTCHAR 0444
ENCODING 1092
SWIDTH 744 0
DWIDTH 31 0
BBX 26 42 3 -9
BITMAP
001C0000
001C0000
001C0000
001C0000
001C0000
001C0000
001C0000
001C0000
001C0000
01FFC000
07FFF000
0FFFFC00
1F1C7E00
3C1C1F00
781C0F00
701C0780
F01C0380
E01C0380
E01C03C0
E01C01C0
E01C01C0
E01C01C0
E01C01C0
E01C03C0
E01C0380
F01C0780
781C0700
3C1C0F00
3E1C3E00
1FFFFC00
07FFF800
01FFE000
001C0000
001C0000
001C0000
001C0000
001C0000
001C0000
001C0000
001C0000
001C0000
00080000
ENDCHAR
STARTCHAR 0445
ENCODING 1093
SWIDTH 552 0
DWIDTH 23 0
BBX 19 23 2 0
BITMAP
400040
E000E0
F001E0
7803C0
3C0780
1C0F00
1E0F00
0F1E00
07BC00
03F800
01F000
01F000
03F000
03F800
07BC00
0F1E00
1E0F00
3C0F00
380780
7803C0
F001E0
E000E0
C000E0
ENDCHAR
STARTCHAR 0446
ENCODING 1094
SWIDTH 696 0
DWIDTH 29 0
BBX 26 30 3 -7
BITMAP
60001800
F0003800
F0003800
F0003800
F0003800
F0003800
F0003800
F0003800
F0003800
F0003800
F0003800
F0003800
F0003800
F0003800
F0003800
70003800
70003800
78007800
3C00F800
1F01F800
1FFFFF80
07FF3F80
01FE1FC0
000003C0
000003C0
000003C0
000003C0
000003C0
000003C0
00000180
ENDCHAR
STARTCHAR 0447
ENCODING 1095
SWIDTH 576 0
DWIDTH 24 0
BBX 19 23 2 0
BITMAP
4000C0
E001E0
E001E0
E001E0
E001E0
E001E0
E001E0
E001E0
E001E0
F001E0
7001E0
7803E0
3E0FE0
1FFFE0
0FFDE0
03F1E0
0001E0
0001E0
0001E0
0001E0
0001E0
0001E0
0000C0
ENDCHAR
STARTCHAR 0448
ENCODING 1096
SWIDTH 936 0
DWIDTH 39 0
BBX 33 23 3 0
BITMAP
6000800300
E001C00380
F001C00780
F001C00780
F001C00780
F001C00780
F001C00780
F001C00780
F001C00780
F001C00780
F001C00780
F001C00780
F001C00780
F001C00780
F001C00780
F001C00780
7003C00780
7003E00780
7807F00F80
3C0EF83F80
3FFC7FFF80
1FFC3FF780
07F00FE300
ENDCHAR
STARTCHAR 0449
ENCODING 1097
SWIDTH 984 0
DWIDTH 41 0
BBX 37 30 3 -7
BITMAP
6000800300
E001C00380
F001C00780
F001C00780
F001C00780
F001C00780
F001C00780
F001C00780
F001C00780
F001C00780
F001C00780
F001C00780
F001C00780
F001C00780
F001C00780
F001C00780
7003C00780
7003E00780
7807F00F80
3C0EF83F80
3FFC7FFBF0
1FFC3FF3F8
07F00FE1F8
0000000038
0000000038
0000000038
0000000038
0000000038
0000000038
0000000038
ENDCHAR
STARTCHAR 044A
ENCODING 1098
SWIDTH 672 0
DWIDTH 28 0
BBX 25 23 1 0
BITMAP
7F800000
FFC00000
FFC00000
01C00000
01C00000
01C00000
01C00000
01C00000
01FFF800
01FFFC00
01C07E00
01C00F00
01C00780
01C00380
01C00380
01C00380
01E00380
00E00780
00F00700
00F80F00
007FFE00
003FFC00
000FF800
ENDCHAR
STARTCHAR 044B
ENCODING 1099
SWIDTH 768 0
DWIDTH 32 0
BBX 25 23 4 0
BITMAP
40000300
E0000700
E0000780
E0000780
E0000780
E0000780
E0000780
E0000780
FFF80780
FFFE0780
FFFF0780
E0078780
E0038780
E0038780
E003C780
E001C780
E003C780
F0038780
F0038780
78078780
3FFF0780
1FFE0700
0FF80300
ENDCHAR
STARTCHAR 044C
ENCODING 1100
SWIDTH 600 0
DWIDTH 25 0
BBX 19 23 4 0
BITMAP
400000
E00000
E00000
E00000
E00000
E00000
E00000
E00000
FFFC00
FFFF00
FFFF80
E003C0
E001C0
E001E0
E000E0
E000E0
E000E0
F001E0
F001C0
7C07C0
3FFF80
1FFF00
07FC00
ENDCHAR
STARTCHAR 044D
ENCODING 1101
SWIDTH 600 0
DWIDTH 25 0
BBX 19 23 3 0
BITMAP
07F000
1FFC00
7FFE00
F81F00
F00780
C003C0
0001C0
0001E0
0000E0
0000E0
03FFE0
07FFE0
03FFE0
0000E0
0000E0
0001E0
0001C0
0003C0
E00780
F00F00
FFFE00
3FFC00
0FF000
ENDCHAR
STARTCHAR 044E
ENCODING 1102
SWIDTH 888 0
DWIDTH 37 0
BBX 31 23 4 0
BITMAP
4000FE00
E007FF80
E00FFFE0
E01F03F0
E03C00F0
E0780078
E070003C
E0F0001C
E0E0001C
E0E0001E
FFE0001E
FFE0000E
FFE0001E
E0E0001E
E0E0001C
E0E0001C
E0F0003C
E0780078
E03C00F8
E03E01F0
E01FFFE0
E007FF80
E001FE00
ENDCHAR
STARTCHAR 044F
ENCODING 1103
SWIDTH 576 0
DWIDTH 24 0
BBX 17 23 3 0
BITMAP
03FF80
0FFF80
3FFF80
7C0380
780380
700380
F00380
E00380
E00380
F00380
700380
780380
3FFF80
1FFF80
07FF80
0F0380
1E0380
1E0380
3C0380
780380
F00380
E00380
E00180
ENDCHAR
STARTCHAR 0450
ENCODING 1104
SWIDTH 624 0
DWIDTH 26 0
BBX 21 34 3 0
BITMAP
0E0000
0F0000
078000
03C000
01E000
00F000
007000
000000
000000
000000
000000
01FC00
07FF00
1FFF80
3E03C0
3C01E0
7800F0
F00070
E00070
E00038
E00038
FFFFF8
FFFFF8
FFFFF0
E00000
E00000
E00000
F00000
780000
3C0060
3E01E0
1FFFE0
07FF80
01FE00
ENDCHAR
STARTCHAR 0451
ENCODING 1105
SWIDTH 624 0
DWIDTH 26 0
BBX 21 31 3 1
BITMAP
0F0780
0F0780
0F0780
070700
000000
000000
000000
000000
01FC00
07FF00
1FFF80
3E03C0
3C01E0
7800F0
F00070
E00070
E00038
E00038
FFFFF8
FFFFF8
FFFFF0
E00000
E00000
E00000
F00000
780000
3C0060
3E01E0
1FFFE0
07FF80
01FE00
ENDCHAR
STARTCHAR 0452
ENCODING 1106
SWIDTH 720 0
DWIDTH 30 0
BBX 25 43 1 -10
BITMAP
04000000
0E000000
0E000000
0E000000
0E000000
FFFFC000
FFFFC000
7FFF0000
0E000000
0E000000
0E000000
0E000000
0E1FE000
0E7FF800
0EFDFC00
0FE03C00
0F801E00
0F000F00
0F000700
0F000780
0E000780
0E000380
0E000380
0E000380
0E000380
0E000380
0E000380
0E000380
0E000380
0E000380
0E000380
0E000380
06000780
00000700
00000700
00000F00
00000E00
00001E00
00003C00
0001F800
0003F000
0003E000
00030000
ENDCHAR
STARTCHAR 0453
ENCODING 1107
SWIDTH 528 0
DWIDTH 22 0
BBX 18 34 2 0
BITMAP
000E00
001E00
003E00
007C00
00F800
01F000
01E000
008000
000000
000000
000000
07F000
1FFC00
3FFE00
7C0F00
F00700
600780
000380
000780
000700
001F00
00FE00
07F800
1FE000
7E0000
780000
F00000
E00000
E00080
F001C0
7807C0
7FFF80
3FFE00
0FF800
ENDCHAR
STARTCHAR 0454
ENCODING 1108
SWIDTH 600 0
DWIDTH 25 0
BBX 19 23 3 0
BITMAP
01FC00
07FF00
1FFF80
3F03E0
3C01E0
7800E0
700000
E00000
E00000
E00000
FFF800
FFFC00
FFF800
E00000
E00000
E00000
F00000
780000
3C00C0
3E01E0
1FFFC0
07FF80
01FE00
ENDCHAR
STARTCHAR 0455
ENCODING 1109
SWIDTH 528 0
DWIDTH 22 0
BBX 18 23 3 0
BITMAP
07F000
1FFC00
3FFF00
780F80
700780
F00380
F00000
F00000
780000
7E0000
1FF000
0FFC00
01FF00
000F80
000380
0003C0
0001C0
4003C0
E00380
F80780
7FFF00
3FFE00
0FF800
ENDCHAR
STARTCHAR 0456
ENCODING 1110
SWIDTH 288 0
DWIDTH 12 0
BBX 4 32 4 0
BITMAP
60
F0
F0
F0
60
00
00
00
00
60
F0
F0
F0
F0
F0
F0
F0
F0
F0
F0
F0
F0
F0
F0
F0
F0
F0
F0
F0
F0
F0
60
ENDCHAR
STARTCHAR 0457
ENCODING 1111
SWIDTH 288 0
DWIDTH 12 0
BBX 14 32 -1 0
BITMAP
2010
7878
F87C
F87C
7038
0000
0000
0000
0000
0300
0780
0780
0780
0780
0780
0780
0780
0780
0780
0780
0780
0780
0780
0780
0780
0780
0780
0780
0780
0780
0780
0300
ENDCHAR
STARTCHAR 0458
ENCODING 1112
SWIDTH 288 0
DWIDTH 12 0
BBX 12 42 -4 -10
BITMAP
0060
00F0
00F0
00F0
0060
0000
0000
0000
0000
0060
00E0
00E0
00E0
00E0
00E0
00E0
00E0
00E0
00E0
00E0
00E0
00E0
00E0
00E0
00E0
00E0
00E0
00E0
00E0
00E0
00E0
00E0
00E0
00E0
00E0
01E0
01C0
07C0
3F80
FF00
FE00
7000
ENDCHAR
STARTCHAR 0459
ENCODING 1113
SWIDTH 816 0
DWIDTH 34 0
BBX 31 23 1 0
BITMAP
00300000
00380000
00780000
007C0000
00FC0000
00EE0000
01EE0000
01CF0000
03C7FFE0
0387FFF0
0783FFF8
0703C03C
0701C01C
0E01C00E
0E00E00E
1C00E00E
1C00F00E
3800701E
3800781C
7800387C
70003FF8
F0001FF0
60000FC0
ENDCHAR
STARTCHAR 045A
ENCODING 1114
SWIDTH 960 0
DWIDTH 40 0
BBX 34 23 4 0
BITMAP
4000200000
E000700000
E000700000
E000700000
E000700000
E000700000
E000700000
E000700000
E0007FFC00
E0007FFE00
FFFFFFFF00
FFFFF00780
FFFFF003C0
E0007001C0
E0007001C0
E0007001C0
E0007001C0
E0007801C0
E0007803C0
E0003C0780
E0001FFF00
E0000FFE00
E00007FC00
ENDCHAR
STARTCHAR 045B
ENCODING 1115
SWIDTH 696 0
DWIDTH 29 0
BBX 26 32 0 1
BITMAP
0E000000
0F000000
0F000000
0F000000
FFFFC000
FFFFC000
7FFF8000
0F000000
0F000000
0F000000
0F1FE000
0F7FF800
0FFFFC00
0FE03E00
0FC00F00
0F800780
0F000780
0F000380
0F000380
0F000380
0F0003C0
0F0003C0
0F0003C0
0F0003C0
0F0003C0
0F0003C0
0F0003C0
0F0003C0
0F0003C0
0F0003C0
0F000380
06000180
ENDCHAR
STARTCHAR 045C
ENCODING 1116
SWIDTH 552 0
DWIDTH 23 0
BBX 18 34 4 0
BITMAP
003800
007800
00F800
01F000
03E000
03C000
078000
030000
000000
000000
000000
400180
E00380
E00780
E00F00
E00E00
E01E00
E03C00
E07800
E0F000
E1E000
FFC000
FF8000
FFC000
E1E000
E0F000
E07800
E03C00
E01E00
E00F00
E00F80
E00780
E003C0
E001C0
ENDCHAR
STARTCHAR 045D
ENCODING 1117
SWIDTH 672 0
DWIDTH 28 0
BBX 21 34 3 0
BITMAP
070000
078000
07C000
03E000
01F000
00F800
007800
000000
000000
000000
000000
600018
F00038
F00038
F00038
F00038
F00038
F00038
F00038
F00038
F00038
F00038
F00038
F00038
F00038
F00038
700038
700038
780078
3C00F8
3E03F8
1FFFF8
07FFB8
03FE18
ENDCHAR
STARTCHAR 045E
ENCODING 1118
SWIDTH 552 0
DWIDTH 23 0
BBX 23 43 -1 -10
BITMAP
000020
030070
038070
0380F0
03E3E0
01FFC0
007F80
000000
000000
000000
30000C
38000E
38001E
1C001C
1C001C
1E0038
0E0038
0F0078
070070
0780F0
0380E0
03C1E0
01C1C0
01E1C0
00E380
00F380
007780
007F00
003F00
003E00
001E00
001C00
001C00
003C00
003800
007800
007000
00F000
01E000
63C000
FFC000
FF8000
3E0000
ENDCHAR
STARTCHAR 045F
ENCODING 1119
SWIDTH 552 0
DWIDTH 23 0
BBX 19 29 2 -7
BITMAP
400040
E000E0
E000E0
E000E0
E000E0
E000E0
E000E0
E000E0
E000E0
E000E0
E000E0
E000E0
E000E0
E000E0
E000E0
E000E0
E000E0
E000E0
E000E0
E000E0
FFFFE0
FFFFE0
FFFFE0
00E000
00E000
00E000
00E000
00E000
00E000
ENDCHAR
STARTCHAR 0462
ENCODING 1122
SWIDTH 768 0
DWIDTH 32 0
BBX 29 32 1 1
BITMAP
03C00000
03C00000
03C00000
03C00000
03C00000
FFFFF800
FFFFF800
7FFFF000
03C00000
03C00000
03C00000
03C00000
03FFF000
03FFFF00
03FFFF80
03C00FE0
03C001E0
03C000F0
03C00070
03C00078
03C00038
03C00038
03C00038
03C00038
03C00078
03C00078
03C000F0
03C001F0
03C003E0
03FFFFC0
03FFFF80
01FFFE00
ENDCHAR
STARTCHAR 0463
ENCODING 1123
SWIDTH 600 0
DWIDTH 25 0
BBX 22 33 1 0
BITMAP
020000
070000
070000
070000
070000
070000
070000
070000
070000
070000
FFFF00
FFFF00
070000
070000
070000
070000
070000
070000
07FFC0
07FFF0
07FFF8
070078
07003C
07001C
07001C
07001C
07001C
07801C
03803C
03C078
01FFF8
00FFF0
007FC0
ENDCHAR
STARTCHAR 046A
ENCODING 1130
SWIDTH 936 0
DWIDTH 39 0
BBX 36 33 1 0
BITMAP
01FFFFFC00
07FFFFFE00
07FFFFFE00
03C0001C00
01E0003C00
00E0007800
00F0007000
007800E000
003801E000
001C03C000
001E038000
000F070000
00070F0000
00079E0000
0003DC0000
000FFF0000
007FFFE000
00FFFFF800
01F070FC00
03C0703C00
0780701E00
0780700E00
0F00700F00
0F00700700
1E00700780
1E00700380
1C007003C0
38007001C0
38007000E0
70007000E0
7000700070
E000700070
6000600030
ENDCHAR
STARTCHAR 046B
ENCODING 1131
SWIDTH 744 0
DWIDTH 31 0
BBX 27 23 2 0
BITMAP
0FFFFE00
1FFFFE00
0FFFFE00
07001C00
03803800
03C07000
01C0F000
00E1E000
0071C000
007B8000
003F0000
03FFF800
0FFFFE00
1F0E1E00
3C0E0F00
380E0780
380E0380
700E0380
700E01C0
F00E01C0
E00E01E0
E00E00E0
C00C00E0
ENDCHAR
STARTCHAR 0472
ENCODING 1138
SWIDTH 912 0
DWIDTH 38 0
BBX 33 33 3 0
BITMAP
000FF00000
007FFE0000
01FFFF8000
03F81FE000
07C003F000
0F0000F800
1E00007C00
3C00003C00
3800001E00
7800000E00
7000000F00
F000000700
E000000700
E000000780
E000000780
FFFFFFFF80
FFFFFFFF80
FFFFFFFF80
E000000380
E000000780
E000000700
F000000700
F000000F00
7000000F00
7800001E00
3C00001E00
3E00003C00
1F00007800
0F8001F000
07E007E000
03FFFFC000
00FFFF0000
003FFC0000
ENDCHAR
STARTCHAR 0473
ENCODING 1139
SWIDTH 672 0
DWIDTH 28 0
BBX 23 23 3 0
BITMAP
00FE00
07FF80
0FFFC0
1F03F0
3C00F0
780078
70003C
F0001C
E0001C
E0001E
FFFFFE
FFFFFE
FFFFFE
E0001E
E0001C
E0001C
F0003C
780078
3C00F8
3E01F0
1FFFE0
07FF80
01FE00
ENDCHAR
STARTCHAR 0474
ENCODING 1140
SWIDTH 720 0
DWIDTH 30 0
BBX 29 33 1 0
BITMAP
40000030
E00000F8
E00001F0
F00003C0
70000380
70000780
78000700
38000700
3C000E00
1C000E00
1C000E00
1E001C00
0E001C00
0F003C00
07003800
07003800
07807000
03807000
03807000
01C0E000
01C0E000
01E0E000
00E1C000
00E1C000
00738000
00738000
007B8000
003F0000
003F0000
001F0000
001E0000
001E0000
000C0000
ENDCHAR
STARTCHAR 0475
ENCODING 1141
SWIDTH 552 0
DWIDTH 23 0
BBX 22 23 1 0
BITMAP
C0001C
E0007C
E000FC
F000F0
7001E0
7801C0
3803C0
380380
1C0380
1C0700
1E0700
0E0F00
0F0E00
070E00
079E00
039C00
039C00
01F800
01F800
01F800
00F000
00F000
006000
ENDCHAR
STARTCHAR 0490
ENCODING 1168
SWIDTH 624 0
DWIDTH 26 0
BBX 21 40 4 0
BITMAP
000010
000038
000038
000038
000038
000038
000038
7FFFF8
FFFFF8
FFFFF8
FFFFF0
E00000
E00000
E00000
E00000
E00000
E00000
E00000
E00000
E00000
E00000
E00000
E00000
E00000
E00000
E00000
E00000
E00000
E00000
E00000
E00000
E00000
E00000
E00000
E00000
E00000
E00000
E00000
E00000
600000
ENDCHAR
STARTCHAR 0491
ENCODING 1169
SWIDTH 504 0
DWIDTH 21 0
BBX 15 30 4 0
BITMAP
0006
000E
000E
000E
000E
000E
000E
7FFE
FFFE
FFFE
E000
E000
E000
E000
E000
E000
E000
E000
E000
E000
E000
E000
E000
E000
E000
E000
E000
E000
E000
E000
ENDCHAR
STARTCHAR 0492
ENCODING 1170
SWIDTH 624 0
DWIDTH 26 0
BBX 26 33 -1 0
BITMAP
03FFFF00
07FFFFC0
07FFFFC0
07FFFF00
07000000
07000000
07000000
07000000
07000000
07000000
07000000
07000000
07000000
07000000
07000000
7FFF0000
FFFF8000
7FFF8000
07000000
07000000
07000000
07000000
07000000
07000000
07000000
07000000
07000000
07000000
07000000
07000000
07000000
07000000
03000000
ENDCHAR
STARTCHAR 0493
ENCODING 1171
SWIDTH 480 0
DWIDTH 20 0
BBX 18 23 1 0
BITMAP
0FFFC0
1FFFC0
1FFFC0
1C0000
1C0000
1C0000
1C0000
1C0000
1C0000
1C0000
FFF800
FFFC00
FFF800
1C0000
1C0000
1C0000
1C0000
1C0000
1C0000
1C0000
1C0000
1C0000
0C0000
ENDCHAR
STARTCHAR 0494
ENCODING 1172
SWIDTH 696 0
DWIDTH 29 0
BBX 22 34 4 -1
BITMAP
7FFFE0
FFFFF8
FFFFF8
FFFFE0
E00000
E00000
E00000
E00000
E00000
E00000
E0FE00
E7FF80
FFFFE0
FF03F0
F800F0
E00078
E00038
E0003C
E0001C
E0001C
E0001C
E0001C
E0001C
E0001C
E0001C
E0003C
E00038
E00078
E000F0
E003E0
E01FC0
E07F80
607F00
003800
ENDCHAR
STARTCHAR 0495
ENCODING 1173
SWIDTH 576 0
DWIDTH 24 0
BBX 18 31 4 -8
BITMAP
7FFC00
FFFE00
FFFE00
E00000
E00000
E00000
E00000
E00000
E0C000
EFFC00
FFFE00
FFFF00
F00F80
E00780
E003C0
E003C0
E001C0
E001C0
E001C0
E001C0
E001C0
E001C0
E001C0
0003C0
0003C0
000780
000F80
003F00
01FE00
01FC00
00F000
ENDCHAR
STARTCHAR 0496
ENCODING 1174
SWIDTH 1056 0
DWIDTH 44 0
BBX 42 39 1 -6
BITMAP
70001C000E00
38001C000E00
3C001C001E00
1E001C003C00
0E001C007800
0F001C007000
07801C00F000
03C01C01E000
01C01C03C000
01E01C038000
00F01C078000
00701C0F0000
00781C1E0000
003C1C1C0000
001FFFFC0000
001FFFF80000
001FFFFC0000
003C1C1E0000
00781C1E0000
00F01C0F0000
00E01C078000
01E01C038000
03C01C03C000
07801C01E000
0F001C00F000
0F001C007000
1E001C007800
3C001C003C00
78001C001C00
70001C001FC0
F0001C000FC0
6000180007C0
0000000001C0
0000000001C0
0000000001C0
0000000001C0
0000000001C0
0000000001C0
0000000001C0
ENDCHAR
STARTCHAR 0497
ENCODING 1175
SWIDTH 816 0
DWIDTH 34 0
BBX 32 30 1 -7
BITMAP
20030018
70038038
78038038
3C038070
1C0380F0
1E0380E0
0E0381C0
070383C0
07838380
03838700
01FFFF00
01FFFE00
01FFFF00
03C38700
07838380
0F0383C0
0E0381C0
1E0381E0
3C0380E0
78038070
7003807E
F003803F
6003003F
00000007
00000007
00000007
00000007
00000007
00000007
00000007
ENDCHAR
STARTCHAR 0498
ENCODING 1176
SWIDTH 648 0
DWIDTH 27 0
BBX 22 40 2 -7
BITMAP
01FC00
07FF00
1FFFC0
3F03E0
7C00F0
700070
700070
000078
000078
000078
000070
000070
0000E0
0001E0
007FC0
00FF00
00FFC0
0003E0
0000F0
000078
000038
00003C
00001C
00001C
00001C
00001C
00003C
E00038
F00078
7C01F0
3FFFE0
1FFFC0
03FF00
003800
003800
003800
003800
003800
003800
003800
ENDCHAR
STARTCHAR 0499
ENCODING 1177
SWIDTH 504 0
DWIDTH 21 0
BBX 18 30 2 -7
BITMAP
07F000
1FFC00
3FFE00
780F00
F00780
600380
000380
000780
000700
001E00
01FC00
03FC00
003F00
000780
000380
0003C0
0001C0
4003C0
E00380
F80780
7FFF00
3FFE00
0FF800
01C000
01C000
01C000
01C000
01C000
01C000
00C000
ENDCHAR
STARTCHAR 049A
ENCODING 1178
SWIDTH 696 0
DWIDTH 29 0
BBX 24 40 4 -7
BITMAP
400008
E0001C
E0003C
E00078
E00078
E000F0
E001E0
E003C0
E00780
E00700
E00F00
E01E00
E03C00
E07800
E07000
FFF000
FFE000
FFF000
E07800
E07800
E03C00
E01E00
E00F00
E00F00
E00780
E003C0
E001E0
E001E0
E000F0
E00078
E0003F
E0003F
60001F
000007
000007
000007
000007
000007
000007
000007
ENDCHAR
STARTCHAR 049B
ENCODING 1179
SWIDTH 576 0
DWIDTH 24 0
BBX 20 30 4 -7
BITMAP
400080
E001C0
E003C0
E00780
E00F00
E01E00
E03C00
E07800
E07000
E0F000
FFE000
FFC000
FFE000
E0E000
E0F000
E07800
E03C00
E01E00
E01E00
E00F00
E007E0
E003E0
E001F0
0000F0
0000F0
0000F0
0000F0
0000F0
0000F0
000060
ENDCHAR
STARTCHAR 049C
ENCODING 1180
SWIDTH 696 0
DWIDTH 29 0
BBX 23 33 4 0
BITMAP
400008
E0001C
E0003C
E00078
E00078
E000F0
E001E0
E003C0
E00780
E30700
E30F00
E31E00
E33C00
E37800
E37000
FFF000
FFE000
FFF000
E37800
E33C00
E33E00
E31E00
E30F00
E00780
E003C0
E001E0
E001F0
E000F0
E00078
E0003C
E0001E
E0000E
600006
ENDCHAR
STARTCHAR 049D
ENCODING 1181
SWIDTH 576 0
DWIDTH 24 0
BBX 19 23 4 0
BITMAP
4000C0
E001C0
E003C0
E00780
E00F00
E00F00
E61E00
E63C00
E67800
E6F000
FFE000
FFC000
FFE000
E6F000
E67800
E63C00
E61E00
E60F00
E00F80
E007C0
E003C0
E001E0
E000C0
ENDCHAR
STARTCHAR 04A0
ENCODING 1184
SWIDTH 864 0
DWIDTH 36 0
BBX 33 33 1 0
BITMAP
7FF0000200
FFF8000700
FFF8000F00
0038001E00
0038001E00
0038003C00
0038007800
003800F000
003801E000
003801E000
003803C000
0038078000
00380F0000
00381E0000
00381C0000
003FFC0000
003FF80000
003FFC0000
00381E0000
00380F0000
00380F8000
0038078000
003803C000
003801E000
003800F000
0038007800
0038003C00
0038003E00
0038001E00
0038000F00
0038000780
0038000380
0018000180
ENDCHAR
STARTCHAR 04A1
ENCODING 1185
SWIDTH 672 0
DWIDTH 28 0
BBX 25 23 1 0
BITMAP
7FC00100
FFC00380
FFC00780
01C00F00
01C01E00
01C03C00
01C07800
01C0F000
01C0E000
01C1E000
01FFC000
01FF8000
01FFC000
01C1E000
01C1F000
01C0F000
01C07800
01C03C00
01C01E00
01C00F00
01C00780
01C00380
00C00180
ENDCHAR
STARTCHAR 04A2
ENCODING 1186
SWIDTH 840 0
DWIDTH 35 0
BBX 31 40 4 -7
BITMAP
40000040
E00000E0
E00000E0
E00000E0
E00000E0
E00000E0
E00000E0
E00000E0
E00000E0
E00000E0
E00000E0
E00000E0
E00000E0
E00000E0
E00000E0
FFFFFFE0
FFFFFFE0
FFFFFFE0
E00000E0
E00000E0
E00000E0
E00000E0
E00000E0
E00000E0
E00000E0
E00000E0
E00000E0
E00000E0
E00000E0
E00000E0
E00000FE
E00000FE
600000FE
0000000E
0000000E
0000000E
0000000E
0000000E
0000000E
0000000E
ENDCHAR
STARTCHAR 04A3
ENCODING 1187
SWIDTH 696 0
DWIDTH 29 0
BBX 25 30 4 -7
BITMAP
40003000
E0003800
E0003800
E0003800
E0003800
E0003800
E0003800
E0003800
E0003800
E0003800
FFFFF800
FFFFF800
FFFFF800
E0003800
E0003800
E0003800
E0003800
E0003800
E0003800
E0003800
E0003F00
E0003F80
E0003F80
00000380
00000380
00000380
00000380
00000380
00000380
00000300
ENDCHAR
STARTCHAR 04A4
ENCODING 1188
SWIDTH 1104 0
DWIDTH 46 0
BBX 42 33 4 0
BITMAP
400001FFFF00
E00003FFFFC0
E00003FFFFC0
E00003FFFF00
E00003800000
E00003800000
E00003800000
E00003800000
E00003800000
E00003800000
E00003800000
E00003800000
E00003800000
E00003800000
E00003800000
FFFFFF800000
FFFFFF800000
FFFFFF800000
E00003800000
E00003800000
E00003800000
E00003800000
E00003800000
E00003800000
E00003800000
E00003800000
E00003800000
E00003800000
E00003800000
E00003800000
E00003800000
E00003800000
600003000000
ENDCHAR
STARTCHAR 04A5
ENCODING 1189
SWIDTH 888 0
DWIDTH 37 0
BBX 31 23 4 0
BITMAP
40007FFC
E000FFFE
E000FFFE
E000E000
E000E000
E000E000
E000E000
E000E000
E000E000
E000E000
FFFFE000
FFFFE000
FFFFE000
E000E000
E000E000
E000E000
E000E000
E000E000
E000E000
E000E000
E000E000
E000E000
E000E000
ENDCHAR
STARTCHAR 04AA
ENCODING 1194
SWIDTH 768 0
DWIDTH 32 0
BBX 26 40 3 -7
BITMAP
000FF000
007FFE00
01FFFF00
03F81FC0
07C003C0
0F8001C0
1E000000
3C000000
38000000
78000000
70000000
F0000000
E0000000
E0000000
E0000000
E0000000
E0000000
E0000000
E0000000
E0000000
E0000000
F0000000
70000000
78000000
78000000
3C000000
1E000000
1F0000C0
0F8003C0
07E00FC0
01FFFF80
00FFFF00
003FFC00
00038000
00038000
00038000
00038000
00038000
00038000
00038000
ENDCHAR
STARTCHAR 04AB
ENCODING 1195
SWIDTH 600 0
DWIDTH 25 0
BBX 19 30 3 -7
BITMAP
01FC00
07FF00
1FFF80
3F03E0
3C01E0
7800E0
700000
E00000
E00000
E00000
E00000
E00000
E00000
E00000
E00000
E00000
F00000
780000
3C00C0
3E01E0
1FFFC0
07FF80
01FE00
007800
007800
007800
007800
007800
007800
003000
ENDCHAR
STARTCHAR 04AE
ENCODING 1198
SWIDTH 648 0
DWIDTH 27 0
BBX 27 33 0 0
BITMAP
00000040
E00000E0
F00001E0
780001C0
780003C0
3C000780
1C000700
1E000F00
0F001E00
07001C00
07803C00
03C03800
01C07000
01E0F000
00E0E000
00F1E000
007BC000
003B8000
003F8000
001F0000
000E0000
000E0000
000E0000
000E0000
000E0000
000E0000
000E0000
000E0000
000E0000
000E0000
000E0000
000E0000
000E0000
ENDCHAR
STARTCHAR 04AF
ENCODING 1199
SWIDTH 528 0
DWIDTH 22 0
BBX 21 32 1 -9
BITMAP
C00030
E00078
E00070
F00070
7000E0
7800E0
3801E0
3801C0
1C03C0
1C0380
1E0380
0E0700
0F0700
070E00
070E00
039E00
039C00
01FC00
01F800
01F800
00F000
00F000
007000
007000
007000
007000
007000
007000
007000
007000
007000
006000
ENDCHAR
STARTCHAR 04B0
ENCODING 1200
SWIDTH 648 0
DWIDTH 27 0
BBX 27 33 0 0
BITMAP
00000040
E00000E0
F00001E0
780001C0
780003C0
3C000780
1C000700
1E000F00
0F001E00
07001C00
07803C00
03C03800
01C07000
01E0F000
00E0E000
00F1E000
007BC000
003B8000
003F8000
001F0000
03FFFC00
07FFFC00
03FFF000
000E0000
000E0000
000E0000
000E0000
000E0000
000E0000
000E0000
000E0000
000E0000
000E0000
ENDCHAR
STARTCHAR 04B1
ENCODING 1201
SWIDTH 576 0
DWIDTH 24 0
BBX 21 33 2 -10
BITMAP
400030
E00038
E00078
F00070
7000F0
7800E0
3801E0
3C01C0
1C03C0
1E0380
1E0780
0E0780
0F0F00
070F00
078E00
039E00
03DC00
01FC00
01F800
00F800
00F000
1FFFC0
7FFFE0
7FFFE0
1FFFC0
007000
007000
007000
007000
007000
007000
007000
002000
ENDCHAR
ENDFONT
